<?xml version="1.0" standalone="no"?>
<!DOCTYPE svg PUBLIC "-//W3C//DTD SVG 1.1//EN" "http://www.w3.org/Graphics/SVG/1.1/DTD/svg11.dtd" >
<svg>
<metadata>
Created by FontForge 20090914 at Fri Mar 10 08:31:24 2017
 By www-data
Copyright (c) 2002, 2005 Parachute&#194;&#168;, www.parachute.gr.  All rights reserved.
</metadata>
<defs>
<font id="PFDinTextCondPro-Italic" horiz-adv-x="1818" >
  <font-face 
    font-family="PF Din Text Cond Pro"
    font-weight="400"
    font-style="italic"
    font-stretch="normal"
    units-per-em="1000"
    panose-1="2 0 0 0 0 0 0 0 0 0"
    ascent="750"
    descent="-250"
    x-height="494"
    cap-height="696"
    bbox="-209 -254.004 1760 920"
    underline-thickness="50"
    underline-position="-50"
    slope="-12"
    unicode-range="U+0020-U+FB05"
  />
<missing-glyph horiz-adv-x="440" 
d="M0 700h440v-700h-440v700zM360 650h-280l140 -255zM390 95v510l-140 -255zM360 50l-140 255l-140 -255h280zM50 95l140 255l-140 255v-510z" />
    <glyph glyph-name="fj" unicode="fj" horiz-adv-x="431" 
d="M125 495l18 89.999c10.667 54 30.5 92.333 59.5 115s65.167 34 108.5 34c33.333 0 61.5 -5.66699 84.5 -17s41.167 -26.666 54.5 -45.999l-55 -56c-8 12 -19.5 22 -34.5 30s-32.833 12 -53.5 12c-28 0 -47.833 -7 -59.5 -21s-19.834 -32.333 -24.501 -55l-17 -86h216
l-104 -563c-4 -18.667 -9.5 -36.167 -16.5 -52.5s-16.167 -30.5 -27.5 -42.5s-25.166 -21.333 -41.499 -28s-35.833 -10 -58.5 -10h-39l15 75h11.5c6.33301 0 9.83301 0.333008 10.5 1c20 0 35.167 5.5 45.5 16.5s17.5 26.167 21.5 45.5l93 491h-139l-112 -578h-80l111 578
h-55l13 67h55z" />
    <glyph glyph-name="ffj" unicode="ffj" horiz-adv-x="655" 
d="M427 495l213.001 -0.00195312l-102 -561c-3.33301 -18 -8.33301 -35.167 -15 -51.5s-15.667 -30.5 -27 -42.5s-25.5 -21.667 -42.5 -29s-37.833 -11 -62.5 -11h-18c-9.33301 0 -15.666 0.333008 -18.999 1l14 75c2.66699 0 6.66699 -0.166992 12 -0.5
s9 -0.166016 11 0.500977c21.333 0.666992 37 7.83398 47 21.501s17.333 31.834 22 54.501l91 476h-138l-112 -577h-80l112 577h-140l-112 -577h-80l112 577h-55l13 67h55l16 81c10 53.333 30.667 91.166 62 113.499s68.666 33.5 111.999 33.5c20 0 39 -2 57 -6
s33 -9.66699 45 -17c17.333 14.667 35.833 25.167 55.5 31.5s41.5 9.5 65.5 9.5c32.667 0 60.667 -5.5 84 -16.5s42 -26.5 56 -46.5l-59 -55c-9.33301 12 -20.833 22 -34.5 30s-30.834 12 -51.501 12c-25.333 0 -45.333 -6.5 -60 -19.5s-24 -30.5 -28 -52.5z
M312.001 646.998c-26.667 0 -47.167 -6.33105 -61.5 -18.998s-23.833 -30.334 -28.5 -53.001l-15 -80h139l19 98c1.33301 6.66699 2.83301 13 4.5 19s3.5 11.667 5.5 17c-8.66699 5.33301 -18.167 9.66602 -28.5 12.999s-21.833 5 -34.5 5z" />
    <glyph glyph-name="ff" unicode="ff" horiz-adv-x="479" 
d="M317 723c16.667 0 33.667 -1.66699 51 -5s31.666 -7.66602 42.999 -12.999c11.333 11.333 25 20.333 41 27s36.333 10 61 10c6 0 13 -0.333008 21 -1s14.667 -1.66699 20 -3l-12 -74c-10 2 -21 3 -33 3c-12.667 0 -23 -2.33301 -31 -7s-14.5 -10.834 -19.5 -18.501
s-8.66699 -16 -11 -25s-4.16602 -17.5 -5.49902 -25.5l-17 -97h90c-2.66699 -11.333 -5 -22.333 -7 -33l-6 -33h-90l-112 -577h-80l111 577h-138l-112 -577h-80l111 577h-55c2.66699 11.333 5 22.333 7 33l6 33h55l16 77c10.667 54 31.167 92.833 61.5 116.5
s68.5 35.5 114.5 35.5zM344 494l21.001 103c1.33301 6 2.66602 11.667 3.99902 17s2.66602 11 3.99902 17c-8 5.33301 -17.833 9.33301 -29.5 12s-23.5 4 -35.5 4c-26 0 -45.667 -6.83301 -59 -20.5s-22.666 -32.167 -27.999 -55.5l-15 -77h138z" />
    <glyph glyph-name="fi" unicode="fi" horiz-adv-x="431" 
d="M253 0l83 427.999h-141l-112 -578h-80l111 578h-55l13 67h55l18 90c10.667 55.333 31 94 61 116s66 33 108 33c34 0 63 -5.66699 87 -17s42.667 -26.666 56 -45.999l-60 -56c-8 12 -19.167 22 -33.5 30s-31.833 12 -52.5 12c-25.333 0 -45 -7.16699 -59 -21.5
s-23.333 -32.833 -28 -55.5l-16 -85h221l-96 -495h-80z" />
    <glyph glyph-name="fl" unicode="fl" horiz-adv-x="455" 
d="M378 646c-9.33301 4.66699 -20.001 8 -32.001 10s-22.333 3 -31 3c-26.667 0 -47.167 -6.5 -61.5 -19.5s-23.833 -32.167 -28.5 -57.5l-17 -87h91l-13 -67h-91l-111 -578h-80l110 578h-55l13 67h55l18 90c10.667 54 30.667 92.667 60 116s66.333 35 111 35
c13.333 0 33.833 -1.83301 61.5 -5.5s58.5 -12.167 92.5 -25.5l-112 -573c-1.33301 -4 -2 -7.66699 -2 -11v-10c0 -12 3.33301 -21.5 10 -28.5s17.334 -10.5 32.001 -10.5h16l-15 -75h-13c-33.333 0 -60.833 6.5 -82.5 19.5s-32.5 35.167 -32.5 66.5c0 12.667 1 25 3 37z
" />
    <glyph glyph-name="ffi" unicode="ffi" horiz-adv-x="655" 
d="M473 0l81.999 427.999h-140l-111 -578h-81l111 578h-139l-111 -578h-81l111 578h-55l14 67h55l15 81c10.667 53.333 32 91.333 64 114s69.333 34 112 34c19.333 0 37.833 -2.16699 55.5 -6.5s32.5 -10.166 44.5 -17.499c17.333 14.667 35.5 25.167 54.5 31.5
s40.833 9.5 65.5 9.5c33.333 0 62 -5.5 86 -16.5s42.667 -26.167 56 -45.5l-61 -56c-8 12 -19.167 22 -33.5 30s-31.833 12 -52.5 12c-25.333 0 -45.166 -6.5 -59.499 -19.5s-23.5 -30.5 -27.5 -52.5l-19 -98h221l-96 -495h-80zM311.999 646.999
c-26.667 0 -47 -6.33203 -61 -18.999s-23 -30.334 -27 -53.001l-16 -80h140l18 98c1.33301 6.66699 2.83301 13.167 4.5 19.5s3.83398 12.5 6.50098 18.5c-16.667 10.667 -38.334 16 -65.001 16z" />
    <glyph glyph-name="ffl" unicode="ffl" horiz-adv-x="676" 
d="M324 723c39.333 0 71.3301 -7.66699 95.9971 -23c17.333 14.667 35.5 25.167 54.5 31.5s39.833 9.5 62.5 9.5c13.333 0 33.833 -1.83301 61.5 -5.5s58.5 -12.167 92.5 -25.5l-43.5 -222l-29.5 -154l-19 -99l-11 -58c-2.66699 -14 -4.66699 -24 -6 -30
s-2.33301 -11 -3 -15c-1.33301 -4 -2 -7.66699 -2 -11v-10c0 -12 3.33301 -21.5 10 -28.5s17.334 -10.5 32.001 -10.5h16l-15 -75h-13c-33.333 0 -60.833 6.5 -82.5 19.5s-32.5 35.167 -32.5 66.5c0 12.667 1 25 3 37l104 531c-9.33301 4.66699 -20 8 -32 10
s-22.333 3 -31 3c-26.667 0 -47.167 -6.5 -61.5 -19.5s-23.833 -32.167 -28.5 -57.5l-19 -92h91l-13 -67h-91l-111 -578h-81l112 578h-139l-112 -578h-80l111 578h-55l13 67h55l16 80c10.667 53.333 32.334 91.333 65.001 114s71.334 34 116.001 34zM313.997 647
c-28 0 -49.001 -6.49805 -63.001 -19.498s-23 -30.5 -27 -52.5l-16 -80h139l18 95c1.33301 7.33301 2.83301 14.166 4.5 20.499s3.83398 12.5 6.50098 18.5c-8.66699 5.33301 -18 9.66602 -28 12.999s-21.333 5 -34 5z" />
    <glyph glyph-name="ft" unicode="ft" horiz-adv-x="469" 
d="M348 494l11.999 63.499c4 21 8.33301 42.167 13 63.5h80c-4.66699 -21.333 -9 -42.5 -13 -63.5l-12 -63.5h69l-6 -33c-2 -10.667 -4.33301 -21.667 -7 -33h-69l-57 -293c-1.33301 -4 -2 -7.83301 -2 -11.5v-10.5c0 -26 13.333 -39 40 -39h27l-14 -74h-45
c-32 0 -55.5 7.83301 -70.5 23.5s-22.5 35.834 -22.5 60.501c0 8.66699 1 18 3 28l30 158.5l31 157.5h-141l-110 -576h-81l111 576h-55l6 33c2 10.667 4.33301 21.667 7 33h54l18 91c4 19.333 9.16699 37.833 15.5 55.5s15 33.167 26 46.5s25.167 23.833 42.5 31.5
s39 11.5 65 11.5c6 0 12.5 -0.333008 19.5 -1s14.167 -1.66699 21.5 -3l-5.5 -37.5c-2.33301 -15.667 -4.5 -28.167 -6.5 -37.5c-10.667 2.66699 -21.667 4 -33 4c-12.667 0 -23 -2.5 -31 -7.5s-14.167 -11.333 -18.5 -19s-7.66602 -16.167 -9.99902 -25.5l-6.5 -26l-17 -83
h142z" />
    <glyph glyph-name=".notdef" horiz-adv-x="440" 
d="M0 700h440v-700h-440v700zM360 650h-280l140 -255zM390 95v510l-140 -255zM360 50l-140 255l-140 -255h280zM50 95l140 255l-140 255v-510z" />
    <glyph glyph-name="space" unicode=" " horiz-adv-x="210" 
 />
    <glyph glyph-name="exclam" unicode="!" horiz-adv-x="235" 
d="M143 177h-63l93 519h79zM35 0l18 89h85l-18 -89h-85z" />
    <glyph glyph-name="quotedbl" unicode="&#x22;" horiz-adv-x="280" 
d="M224 498l39 198h62l-39 -198h-62zM106 498l39 198h62l-39 -198h-62z" />
    <glyph glyph-name="numbersign" unicode="#" horiz-adv-x="440" 
d="M24 275h86l53 151h-77l11 55h86l77 216h57l-77 -216h100l77 216h57l-78 -216h81l-11 -55h-89l-54 -151h81l-11 -55h-90l-77 -220h-57l77 220h-100l-77 -220h-57l78 220h-77zM166 275h100l54 151h-100z" />
    <glyph glyph-name="dollar" unicode="$" horiz-adv-x="440" 
d="M157 -4c-41.333 4 -72.665 17.8311 -93.998 41.498s-37.333 51.5 -48 83.5l68 36c6.66699 -19.333 16.834 -37.5 30.501 -54.5s32.834 -27.167 57.501 -30.5l25 124.5l24 124.5c-36.667 17.333 -66.834 37.666 -90.501 60.999s-35.5 54.333 -35.5 93
c0 32.667 5 62.167 15 88.5s23.667 49 41 68s38.166 34 62.499 45s51.166 17.5 80.499 19.5l16 80h44c-3.33301 -13.333 -6.16602 -27 -8.49902 -41s-4.83301 -27.667 -7.5 -41c20 -2 37.5 -6.66699 52.5 -14s28 -16.5 39 -27.5s19.833 -23 26.5 -36s11 -26.5 13 -40.5
l-34 -18l-33 -18c-2.66699 8 -5.83398 16.333 -9.50098 25s-8.66699 16.5 -15 23.5s-13.833 13 -22.5 18s-19.334 8.5 -32.001 10.5l-45 -228c20 -9.33301 38.5 -18.666 55.5 -27.999s31.5 -20 43.5 -32s21.333 -25.833 28 -41.5s10 -34.167 10 -55.5
c0 -36 -5.16699 -68.5 -15.5 -97.5s-24.833 -53.667 -43.5 -74s-41.167 -36.166 -67.5 -47.499s-55.5 -17.666 -87.5 -18.999l-9.5 -49.5l-9.5 -49.5h-44zM328.001 215.998c0 22 -6.83301 39.668 -20.5 53.001s-29.167 24.666 -46.5 33.999l-23 -116l-23 -116
c36 5.33301 63.833 21.333 83.5 48s29.5 59 29.5 97zM179.001 483.999c0 -17.333 5.33203 -31.999 15.999 -43.999s24.667 -22.667 42 -32l20 105l21 105c-15.333 -2.66699 -29.166 -8.33398 -41.499 -17.001s-22.833 -19.167 -31.5 -31.5s-15.167 -26 -19.5 -41
s-6.5 -29.833 -6.5 -44.5z" />
    <glyph glyph-name="percent" unicode="%" horiz-adv-x="640" 
d="M113 -17h-61l512 730h62zM281 382c-6.66699 -33.333 -19.334 -59.501 -38.001 -78.501s-46 -28.5 -82 -28.5c-15.333 0 -30.166 2.66699 -44.499 8s-26.666 13 -36.999 23s-17.833 22.333 -22.5 37s-5 31.334 -1 50.001l38 199c6.66699 32.667 20.5 58.667 41.5 78
s47.5 29 79.5 29c16.667 0 32.167 -2.83301 46.5 -8.5s26.166 -13.834 35.499 -24.501s16 -23.167 20 -37.5s4.33301 -30.166 1 -47.499zM257 586.999c3.33301 14 0.5 26.5 -8.5 37.5s-21.5 16.5 -37.5 16.5c-15.333 0 -27.5 -4.66699 -36.5 -14s-14.833 -21 -17.5 -35
l-38 -204c-3.33301 -15.333 -1.33301 -28.5 6 -39.5s20.333 -16.5 39 -16.5c17.333 0 30 5 38 15s13.333 21.667 16 35zM584 101.999c-6.66699 -33.333 -19.334 -59.501 -38.001 -78.501s-46 -28.5 -82 -28.5c-15.333 0 -30.166 2.66699 -44.499 8s-26.666 13 -36.999 23
s-17.833 22.333 -22.5 37s-5 31.334 -1 50.001l38 199c6.66699 32.667 20.5 58.667 41.5 78s47.5 29 79.5 29c16.667 0 32.167 -2.83301 46.5 -8.5s26.166 -13.834 35.499 -24.501s16 -23.167 20 -37.5s4.33301 -30.166 1 -47.499zM560 306.998
c3.33301 14 0.5 26.5 -8.5 37.5s-21.5 16.5 -37.5 16.5c-15.333 0 -27.5 -4.66699 -36.5 -14s-14.833 -21 -17.5 -35l-38 -204c-3.33301 -15.333 -1.33301 -28.5 6 -39.5s20.333 -16.5 39 -16.5c17.333 0 30 5 38 15s13.333 21.667 16 35z" />
    <glyph glyph-name="ampersand" unicode="&#x26;" horiz-adv-x="502" 
d="M250 432c6 -16 13.499 -34.335 22.499 -55.002l28 -63l28 -62.5c9 -20.333 16.5 -38.5 22.5 -54.5c11.333 16.667 20.333 34 27 52l19 53l71 -3c-7.33301 -27.333 -18.166 -57 -32.499 -89s-31.166 -61.667 -50.499 -89l56 -121h-89l-28 60
c-28 -25.333 -53.833 -42.666 -77.5 -51.999s-49.5 -14 -77.5 -14c-41.333 0 -74.5 13.333 -99.5 40s-37.5 62.334 -37.5 107.001c0 47.333 13.5 90.5 40.5 129.5s64.833 74.5 113.5 106.5c-6 20 -14 43.167 -24 69.5s-15 56.166 -15 89.499c0 22.667 4 44.167 12 64.5
s19.5 38 34.5 53s33 26.833 54 35.5s44.5 13 70.5 13c29.333 0 55.666 -5.83301 78.999 -17.5s41.333 -30.5 54 -56.5l-64 -40c-7.33301 16.667 -17.5 28.167 -30.5 34.5s-28.5 9.5 -46.5 9.5c-14 0 -26.167 -2.83301 -36.5 -8.5s-19 -13 -26 -22
s-12.167 -19.167 -15.5 -30.5s-5 -22.666 -5 -33.999c0 -29.333 7.66699 -64.333 23 -105zM214.999 311.998c-36.667 -26.667 -63.332 -53.667 -79.999 -81s-25 -55.333 -25 -84c0 -23.333 6 -42.833 18 -58.5s30.667 -23.5 56 -23.5c19.333 0 39.666 5.5 60.999 16.5
s39 23.833 53 38.5z" />
    <glyph glyph-name="quotesingle" unicode="'" horiz-adv-x="207" 
d="M128 498l38 198h62l-38 -198h-62z" />
    <glyph glyph-name="parenleft" unicode="(" horiz-adv-x="247" 
d="M139 -115c-26.667 44 -48.001 91.8311 -64.001 143.498s-24 106.167 -24 163.5c0 50.667 6.66699 100.834 20 150.501s31.5 97.334 54.5 143.001s49.333 88.667 79 129s61.167 76.833 94.5 109.5l37 -23c-30.667 -36.667 -58.667 -76 -84 -118
s-47.166 -85.5 -65.499 -130.5s-32.5 -91.333 -42.5 -139s-15 -95.5 -15 -143.5c0 -46 4.5 -91 13.5 -135s22.167 -85 39.5 -123l-43 -27v0z" />
    <glyph glyph-name="parenright" unicode=")" horiz-adv-x="247" 
d="M-39 -88c29.333 34.667 56.668 73 82.001 115s47.166 85.833 65.499 131.5s32.666 92.5 42.999 140.5s15.5 95.667 15.5 143c0 45.333 -4.66699 90.166 -14 134.499s-22.666 85.5 -39.999 123.5l22.5 12c7.66699 4 15.5 7.66699 23.5 11
c26 -43.333 46.833 -90.166 62.5 -140.499s23.5 -104.166 23.5 -161.499c0 -51.333 -6.66699 -102 -20 -152s-31.5 -98 -54.5 -144s-49.667 -89.333 -80 -130s-62.5 -77.334 -96.5 -110.001z" />
    <glyph glyph-name="asterisk" unicode="*" horiz-adv-x="356" 
d="M334 442c-2.66699 -2 -6.83203 -4.83008 -12.499 -8.49707l-17.5 -11l-17.5 -11c-5.66699 -3.66699 -9.83398 -6.5 -12.501 -8.5l-42 102l-16.5 -20.5l-24 -30.5l-24 -30.5c-7.66699 -9.66699 -13.167 -16.834 -16.5 -21.501c-2 2 -5.16699 4.83301 -9.5 8.5l-13.5 11.5
c-4.66699 4 -9.16699 7.66699 -13.5 11s-7.5 6 -9.5 8l95 92l-21.5 6l-31 8.5l-31.5 8.5c-10 2.66699 -17 4.66699 -21 6l6 12.5c2.66699 5.66699 5.66699 11.667 9 18l9.5 18c3 5.66699 5.16699 10.167 6.5 13.5l98 -45c0.666992 4.66699 1.66699 12.667 3 24
s2.83301 23.166 4.5 35.499s3 24 4 35s1.83301 19.167 2.5 24.5h64l-33 -119c4.66699 2 12.5 5 23.5 9l34 13l33.5 13.5c10.667 4.33301 18.667 7.5 24 9.5c0 -3.33301 0.5 -7.83301 1.5 -13.5s2 -11.667 3 -18s2 -12.333 3 -18s1.5 -9.83398 1.5 -12.501l-118 -29z" />
    <glyph glyph-name="plus" unicode="+" horiz-adv-x="440" 
d="M262 263l-35 -178h-61l34 178h-170l12 62h170l35 177h61l-34 -177h170l-12 -62h-170z" />
    <glyph glyph-name="comma" unicode="," horiz-adv-x="223" 
d="M41 -116h-47l50 112h-25l20 104h95l-20 -102z" />
    <glyph glyph-name="hyphen" unicode="-" horiz-adv-x="369" 
d="M57 241l14 71h274l-14 -71h-274z" />
    <glyph glyph-name="period" unicode="." horiz-adv-x="218" 
d="M21 0l19 101h95l-19 -101h-95z" />
    <glyph glyph-name="slash" unicode="/" horiz-adv-x="287" 
d="M4 -42h-61l366 767h63z" />
    <glyph glyph-name="zero" unicode="0" horiz-adv-x="440" 
d="M364 159c-9.33301 -49.333 -28.332 -89.167 -56.999 -119.5s-70.667 -45.5 -126 -45.5c-24 0 -46.333 4.16699 -67 12.5s-37.834 20.5 -51.501 36.5s-23.334 35.833 -29.001 59.5s-5.5 50.5 0.5 80.5l68 353c10.667 53.333 31.834 94.333 63.501 123s72.167 43 121.5 43
c22 0 43 -3.83301 63 -11.5s37 -19 51 -34s24.167 -33.5 30.5 -55.5s6.83301 -47.333 1.5 -76zM354.001 526.999c5.33301 27.333 0.499023 50.335 -14.501 69.002s-35.5 28 -61.5 28s-47.167 -7.66699 -63.5 -23s-27.166 -37 -32.499 -65l-68 -357
c-6.66699 -35.333 -3.33398 -62 9.99902 -80s34 -27 62 -27c14.667 0 27.667 2.66699 39 8s20.833 12.166 28.5 20.499s13.834 17.666 18.501 27.999s8 20.5 10 30.5z" />
    <glyph glyph-name="one" unicode="1" horiz-adv-x="440" 
d="M231 0h-80l119 611l-109 -73l17 86l107 72h81z" />
    <glyph glyph-name="two" unicode="2" horiz-adv-x="440" 
d="M-4 0l14.002 76l294 350c17.333 22 30.666 43.833 39.999 65.5s14 41.5 14 59.5c0 20 -6.16699 37.167 -18.5 51.5s-31.833 21.5 -58.5 21.5c-23.333 0 -44.833 -9.16699 -64.5 -27.5s-33.167 -44.5 -40.5 -78.5l-80 15c12.667 52.667 36.167 93.834 70.5 123.501
s76.166 44.5 125.499 44.5c43.333 0 79 -11.667 107 -35s42 -58.333 42 -105c0.666992 -34.667 -6.5 -65.834 -21.5 -93.501s-32.833 -54.167 -53.5 -79.5l-259 -311h236l-15 -77h-332z" />
    <glyph glyph-name="three" unicode="3" horiz-adv-x="440" 
d="M297 360c22 -11.333 36.8262 -27.332 44.4932 -47.999s11.5 -39.667 11.5 -57c0 -24.667 -2.66699 -52.167 -8 -82.5s-15.666 -58.833 -30.999 -85.5s-36.666 -49 -63.999 -67s-63 -27 -107 -27c-19.333 0 -38 2.5 -56 7.5s-33.667 12.833 -47 23.5s-24 24.5 -32 41.5
s-12 37.5 -12 61.5v14l82 12v-11c0 -23.333 6 -41.5 18 -54.5s29.667 -19.5 53 -19.5s42.833 5 58.5 15s28.334 23 38.001 39s16.5 34 20.5 54s6 40 6 60c0 26 -6.33301 47.5 -19 64.5s-35 25.5 -67 25.5h-33l14 71h37c18.667 0 35.5 4.16699 50.5 12.5
s27.833 19.5 38.5 33.5s18.667 30.167 24 48.5s8 37.833 8 58.5c0 19.333 -5.5 36.666 -16.5 51.999s-29.167 23 -54.5 23c-21.333 0 -41.666 -7.16699 -60.999 -21.5s-32.666 -37.833 -39.999 -70.5l-78 14c6 26 14.833 48.667 26.5 68s25.834 35.333 42.501 48
s35.167 22.167 55.5 28.5s41.5 9.5 63.5 9.5c48 0 84.167 -12.5 108.5 -37.5s36.5 -55.833 36.5 -92.5c0 -18 -1.5 -36.833 -4.5 -56.5s-8.66699 -39 -17 -58s-19.666 -36.833 -33.999 -53.5s-32.833 -31 -55.5 -43z" />
    <glyph glyph-name="four" unicode="4" horiz-adv-x="440" 
d="M339 108l-21 -108h-78l20 108h-249l15 76l289 512h83l-289 -514h166l38 199h79l-38 -199h52l-14 -74h-53z" />
    <glyph glyph-name="five" unicode="5" horiz-adv-x="440" 
d="M185 68c29.333 0 51.8359 9.5 67.5029 28.5s27.167 43.5 34.5 73.5c5.33301 21.333 10.833 45 16.5 71s8.5 49.667 8.5 71c0 22 -5 39.667 -15 53s-28.333 20 -55 20c-16.667 0 -32.834 -4.5 -48.501 -13.5s-29.167 -21.167 -40.5 -36.5h-75l70 361h317l-15 -76h-243
l-39 -201h2c17.333 14 35.166 23.833 53.499 29.5s36.5 8.5 54.5 8.5c20.667 0 38.5 -3.16699 53.5 -9.5s27 -15 36 -26s15.667 -24 20 -39s6.5 -31.167 6.5 -48.5c0 -20 -1.33301 -39.833 -4 -59.5s-5.66699 -39.167 -9 -58.5c-14.667 -88.667 -42.667 -150.667 -84 -186
c-28.667 -24.667 -69.334 -37 -122.001 -37c-22 0 -42.167 3 -60.5 9s-34 15 -47 27s-23.167 27.333 -30.5 46s-10.333 40.667 -9 66l82 12c0 -27.333 5 -48.333 15 -63s30 -22 60 -22z" />
    <glyph glyph-name="six" unicode="6" horiz-adv-x="440" 
d="M237 332c-24.667 0 -44.667 -7 -60 -21s-26.666 -30.333 -33.999 -49c-6.66699 -16 -12.167 -34.167 -16.5 -54.5s-6.5 -39.5 -6.5 -57.5c0 -10.667 1 -21 3 -31s5.66699 -18.667 11 -26s12.333 -13.333 21 -18s20 -7 34 -7c23.333 0 42.5 6 57.5 18
s26.167 27.667 33.5 47c9.33301 26.667 16.166 51.667 20.499 75s6.5 40.666 6.5 51.999c0 20.667 -5.33301 37.834 -16 51.501s-28.667 20.5 -54 20.5zM213 389l2 -1.99902c9.33301 5.33301 20.166 9.5 32.499 12.5s23.5 4.5 33.5 4.5c20 0 36.833 -3.33301 50.5 -10
s24.834 -15.834 33.501 -27.501s15 -25.167 19 -40.5s6 -31.333 6 -48c0 -6 -0.5 -14.5 -1.5 -25.5s-2.66699 -23.5 -5 -37.5s-5.5 -29 -9.5 -45s-8.66699 -31.667 -14 -47c-30 -86 -89.667 -129 -179 -129c-24.667 0 -46 3.66699 -64 11s-33 17.333 -45 30
s-21 27.5 -27 44.5s-9 35.5 -9 55.5c0 14 1.16699 29.833 3.5 47.5s6 36 11 55s11.333 37.833 19 56.5s16.5 36 26.5 52l227 350h85l-118 -188.5z" />
    <glyph glyph-name="seven" unicode="7" horiz-adv-x="440" 
d="M115 0h-83l327 620h-175l-18 -94h-75l33 170h334l-14 -75z" />
    <glyph glyph-name="eight" unicode="8" horiz-adv-x="440" 
d="M295 702c46 0 81.502 -13.502 106.502 -40.502s37.5 -61.5 37.5 -103.5c-0.666992 -12.667 -2.66699 -28.834 -6 -48.501s-9 -39.5 -17 -59.5s-18.667 -38.167 -32 -54.5s-30 -27.5 -50 -33.5c10 -5.33301 18.333 -12.166 25 -20.499s12 -17.5 16 -27.5
s6.83301 -20 8.5 -30s2.5 -19 2.5 -27s-0.5 -17.667 -1.5 -29s-2.83301 -23.666 -5.5 -36.999s-5.83398 -26.833 -9.50098 -40.5s-8.16699 -26.834 -13.5 -39.501c-14 -34 -35 -62 -63 -84s-65.333 -33 -112 -33c-20.667 0 -40.334 3 -59.001 9s-35.167 15.167 -49.5 27.5
s-25.666 27.5 -33.999 45.5s-12.5 39 -12.5 63c0 8.66699 1 23.5 3 44.5s6.83301 43.333 14.5 67s19 46 34 67s35.5 36.167 61.5 45.5c-14.667 10.667 -26 24.334 -34 41.001s-12 34.667 -12 54c0 13.333 1.5 28.5 4.5 45.5s8.83301 39.167 17.5 66.5
c13.333 42.667 35.666 75.334 66.999 98.001s69 34 113 34zM229.002 327.998c-24 0 -43.999 -6.33203 -59.999 -18.999s-28.667 -28 -38 -46s-15.833 -36.667 -19.5 -56s-5.5 -35.333 -5.5 -48c0 -8.66699 0.833008 -18.334 2.5 -29.001s5.16699 -20.5 10.5 -29.5
s13.166 -16.667 23.499 -23s24.166 -9.5 41.499 -9.5c12 0 22.5 1.66699 31.5 5s17 7.5 24 12.5s13 10.333 18 16s9.16699 11.167 12.5 16.5c5.33301 8.66699 10.166 18.5 14.499 29.5s7.83301 22 10.5 33s4.83398 21.5 6.50098 31.5s2.83398 18.333 3.50098 25
c0 25.333 -5.66699 46.833 -17 64.5s-31 26.5 -59 26.5zM283.003 626.999c-17.333 0 -31.834 -3.33301 -43.501 -10s-21.5 -15.334 -29.5 -26.001c-6 -8 -10.5 -16.5 -13.5 -25.5l-9.5 -28.5c-4 -13.333 -7.16699 -26.833 -9.5 -40.5s-3.5 -25.834 -3.5 -36.501
c0 -19.333 6.83301 -34.666 20.5 -45.999s30.167 -17 49.5 -17c28 0 50.5 9 67.5 27s29.167 39.667 36.5 65c3.33301 10 5.83301 20.333 7.5 31s2.5 21.334 2.5 32.001c0 22 -6.66699 40 -20 54s-31.666 21 -54.999 21z" />
    <glyph glyph-name="nine" unicode="9" horiz-adv-x="440" 
d="M224 364c24.667 0 44.667 7 60 21s26.666 30.333 33.999 49c6.66699 16 12.167 34.167 16.5 54.5s6.5 39.5 6.5 57.5c0 10.667 -1 21 -3 31s-5.66699 18.667 -11 26s-12.333 13.333 -21 18s-20 7 -34 7c-23.333 0 -42.5 -6 -57.5 -18s-26.167 -27.667 -33.5 -47
c-9.33301 -26.667 -16.166 -51.667 -20.499 -75s-6.5 -40.666 -6.5 -51.999c0 -20.667 5.33301 -37.834 16 -51.501s28.667 -20.5 54 -20.5zM248 307l-2 1.99902c-9.33301 -5.33301 -20.166 -9.5 -32.499 -12.5s-23.5 -4.5 -33.5 -4.5c-20 0 -36.833 3.33301 -50.5 10
s-24.834 15.834 -33.501 27.501s-15 25 -19 40s-6 31.167 -6 48.5c0 6 0.5 14.5 1.5 25.5s2.66699 23.5 5 37.5s5.5 29 9.5 45s8.66699 31.667 14 47c30 86 89.667 129 179 129c24.667 0 46 -3.66699 64 -11s33 -17.333 45 -30s21 -27.5 27 -44.5s9 -35.5 9 -55.5
c0 -14 -1.33301 -29.833 -4 -47.5s-6.5 -36 -11.5 -55s-11.167 -37.833 -18.5 -56.5s-16 -36 -26 -52l-227 -350h-85l65 104.5l52.5 84l42.5 66.5z" />
    <glyph glyph-name="colon" unicode=":" horiz-adv-x="216" 
d="M18 0l19 101h95l-19 -101h-95zM75 292l19 102h95l-19 -102h-95z" />
    <glyph glyph-name="semicolon" unicode=";" horiz-adv-x="216" 
d="M76 292l20 102h95l-20 -102h-95zM41 -116h-48l50 112h-24l20 104h95l-20 -102z" />
    <glyph glyph-name="less" unicode="&#x3c;" horiz-adv-x="440" 
d="M383 74l-344 192l11 57l419 193l-12 -72l-341 -153l282 -153z" />
    <glyph glyph-name="equal" unicode="=" horiz-adv-x="440" 
d="M47 349l12 65h402l-12 -65h-402zM13 176l13 65h402l-13 -65h-402z" />
    <glyph glyph-name="greater" unicode="&#x3e;" horiz-adv-x="440" 
d="M16 146l340 152l-281 153l13 65l345 -193l-11 -57l-420 -192z" />
    <glyph glyph-name="question" unicode="?" horiz-adv-x="434" 
d="M300 701c48 0 87.167 -13.3301 117.5 -39.9971s45.5 -63.334 45.5 -110.001c0 -21.333 -1.83301 -39.833 -5.5 -55.5s-9 -30 -16 -43s-15.5 -25.333 -25.5 -37l-33 -37.5c-9.33301 -10.667 -19.333 -21.334 -30 -32.001l-31 -32.5c-10 -11 -18.833 -22.5 -26.5 -34.5
s-13.5 -25 -17.5 -39l-12 -60h-83c5.33301 32 12.333 61.5 21 88.5s25 52.5 49 76.5c16.667 20 32.5 37.833 47.5 53.5s28.167 30.5 39.5 44.5s20.333 28 27 42s10 29.667 10 47c0 25.333 -6.5 46.666 -19.5 63.999s-35.167 26 -66.5 26
c-33.333 0 -59.5 -10.833 -78.5 -32.5s-30.167 -47.5 -33.5 -77.5c-14 3.33301 -27.833 6.33301 -41.5 9l-41.5 8c15.333 60 39.333 103.667 72 131s76.667 41 132 41zM147 0.00292969l18 89h84l-18 -89h-84z" />
    <glyph glyph-name="at" unicode="@" horiz-adv-x="790" 
d="M584 526l-54 -281.002c-3.33301 -15.333 -1.83301 -28.333 4.5 -39s16.833 -16 31.5 -16c16 0 32.333 4.5 49 13.5s31.834 23.167 45.501 42.5s24.834 44.5 33.501 75.5s13 68.167 13 111.5c0 34 -5.83301 64.167 -17.5 90.5s-27.5 48.666 -47.5 66.999
s-43.5 32.166 -70.5 41.499s-55.833 14 -86.5 14c-54 0 -102.333 -10.333 -145 -31s-78.667 -48.667 -108 -84s-51.833 -76.166 -67.5 -122.499s-23.5 -95.166 -23.5 -146.499c0 -74.667 19.5 -134 58.5 -178s98.833 -66 179.5 -66c32 0 63.167 3.5 93.5 10.5
s63.166 18.5 98.499 34.5c3.33301 -9.33301 6.5 -18.833 9.5 -28.5s6.16699 -19.167 9.5 -28.5c-34 -13.333 -69.167 -24.166 -105.5 -32.499s-72.833 -12.5 -109.5 -12.5c-46.667 0 -88.5 6.33301 -125.5 19s-68.5 31.334 -94.5 56.001s-46 55 -60 91s-21 77.333 -21 124
c0 64.667 10 124.667 30 180s48.167 103.166 84.5 143.499s79.833 72 130.5 95s106.334 34.5 167.001 34.5c44.667 0 84.667 -6.66699 120 -20s65.333 -31.833 90 -55.5s43.5 -52 56.5 -85s19.5 -69.167 19.5 -108.5c0 -55.333 -6.5 -102.333 -19.5 -141
s-29.833 -70.334 -50.5 -95.001s-43.334 -42.5 -68.001 -53.5s-49 -16.5 -73 -16.5c-7.33301 0 -15.833 0.833008 -25.5 2.5s-19.167 4.66699 -28.5 9s-17.5 10 -24.5 17s-11.5 15.833 -13.5 26.5h-3c-11.333 -14 -26.333 -25.833 -45 -35.5s-38.667 -14.5 -60 -14.5
c-28 0 -52.333 8.5 -73 25.5s-31 42.5 -31 76.5c0 18.667 1.33301 39.834 4 63.501s7 48.5 13 74.5c11.333 46.667 29 84.334 53 113.001s58 43 102 43c13.333 0 27.666 -3.33301 42.999 -10s28 -17 38 -31l1 1c1.33301 6 2.5 12 3.5 18s2.16699 12 3.5 18h66zM384 198.998
c20 0 36.834 7.33203 50.501 21.999s24.667 32.834 33 54.501s14.166 44.5 17.499 68.5s5 45 5 63s-4.5 32.333 -13.5 43s-23.167 16 -42.5 16c-13.333 0 -26 -2.66699 -38 -8s-22.333 -15 -31 -29c-21.333 -35.333 -34.333 -90.333 -39 -165
c0 -18.667 3.83301 -34.167 11.5 -46.5s23.167 -18.5 46.5 -18.5z" />
    <glyph glyph-name="A" unicode="A" horiz-adv-x="491" 
d="M360 0l-11 158h-221l-73 -158h-87l335 696h75l65 -696h-83zM330 413l-11 159h-3l-69 -157l-86 -182h183z" />
    <glyph glyph-name="B" unicode="B" horiz-adv-x="500" 
d="M386 362c0 -0.666992 -0.166992 -1.16699 -0.5 -1.5s-0.5 -0.833008 -0.5 -1.5c28 -9.33301 47.833 -25.666 59.5 -48.999s17.5 -51 17.5 -83c-2.66699 -43.333 -11.167 -79.5 -25.5 -108.5s-33 -52.333 -56 -70s-49.5 -30.167 -79.5 -37.5s-62 -11 -96 -11h-182l136 696
h186c52 0 92.5 -11.833 121.5 -35.5s43.5 -60.5 43.5 -110.5c0 -51.333 -10.667 -92.333 -32 -123s-52 -52.334 -92 -65.001zM169 325l-24 -124.5l-25 -124.5h124c22 0 41.667 4.5 59 13.5s31.666 20.833 42.999 35.5s20 31.667 26 51s9 39.333 9 60
c0 28.667 -8.66699 50.667 -26 66s-41.666 23 -72.999 23h-113zM227 621l-44 -224.001h80c22 0 43 2.33301 63 7s37.667 12.5 53 23.5s27.5 25.5 36.5 43.5s13.5 40 13.5 66c0 28.667 -9.33301 49.834 -28 63.501s-43 20.5 -73 20.5h-101z" />
    <glyph glyph-name="C" unicode="C" horiz-adv-x="469" 
d="M331 701c57.333 0 100.335 -14 129.002 -42s44.334 -65 47.001 -111l-84 -25c0 30 -8 54 -24 72s-39 27 -69 27c-22 0 -40.5 -3.16699 -55.5 -9.5s-27.667 -14.833 -38 -25.5s-18.833 -22.667 -25.5 -36s-12.334 -27 -17.001 -41c-11.333 -38 -20.5 -77.5 -27.5 -118.5
s-14.5 -81.5 -22.5 -121.5c-3.33301 -16 -6.5 -32.667 -9.5 -50s-4.5 -33.333 -4.5 -48s1.5 -28 4.5 -40s8.16699 -22.5 15.5 -31.5s17 -16 29 -21s27.333 -7.5 46 -7.5c31.333 0 58.666 8.83301 81.999 26.5s40.666 43.5 51.999 77.5l80 -31
c-17.333 -48.667 -44.333 -86 -81 -112s-82 -39 -136 -39c-60 0 -104.333 15.5 -133 46.5s-43 70.833 -43 119.5c0 12.667 1.66699 30.5 5 53.5s7 45.167 11 66.5l17 85l17 85c6 31.333 14 62 24 92s23.833 56.833 41.5 80.5s40.167 42.667 67.5 57s61.333 21.5 102 21.5z
" />
    <glyph glyph-name="D" unicode="D" horiz-adv-x="515" 
d="M341 696c54 0 97.166 -12.333 129.499 -37s48.5 -63.334 48.5 -116.001c0 -20.667 -2.33301 -49 -7 -85s-10.667 -74 -18 -114c-4 -24 -8.5 -48 -13.5 -72s-10.167 -46.5 -15.5 -67.5s-10.666 -39.667 -15.999 -56s-10.333 -29.166 -15 -38.499
c-24.667 -44 -54 -73.333 -88 -88s-72 -22 -114 -22h-209l135 696h183zM419.999 398c2 10 3.99902 21.001 5.99902 33.001s3.83301 23.5 5.5 34.5l4.5 30.5c1.33301 9.33301 2 16.333 2 21c2 31.333 -5.33301 56.166 -22 74.499s-45.667 27.5 -87 27.5h-103l-52.5 -271.5
l-53.5 -271.5h103c28 0 51.333 3.5 70 10.5s34.334 17 47.001 30s22.5 28.833 29.5 47.5s12.833 39.667 17.5 63z" />
    <glyph glyph-name="E" unicode="E" horiz-adv-x="449" 
d="M24 0l135 696h365l-16 -77h-282l-44 -229h242l-14 -75h-242l-47 -238h282l-14 -77h-365z" />
    <glyph glyph-name="F" unicode="F" horiz-adv-x="440" 
d="M226 619l-44 -232h242l-15 -75h-242l-60 -312h-83l135 696h365l-16 -77h-282z" />
    <glyph glyph-name="G" unicode="G" horiz-adv-x="500" 
d="M323 701c57.333 0 100.332 -14 128.999 -42s44.334 -65 47.001 -111l-84 -25c0 30 -8 54 -24 72s-39 27 -69 27c-22 0 -40.5 -3.16699 -55.5 -9.5s-27.667 -14.833 -38 -25.5s-18.833 -22.667 -25.5 -36s-12.334 -27 -17.001 -41c-11.333 -38 -20.5 -77.5 -27.5 -118.5
s-14.5 -81.5 -22.5 -121.5c-3.33301 -16 -6.5 -32.667 -9.5 -50s-4.5 -33.333 -4.5 -48s1.5 -28.167 4.5 -40.5s8.16699 -23 15.5 -32s17.5 -16 30.5 -21s29.167 -7.5 48.5 -7.5c26.667 0 49 5.16699 67 15.5s32.833 23.833 44.5 40.5s20.834 35.667 27.501 57s12 43 16 65
l10 51h-112l14 74h197l-27 -135c-7.33301 -34.667 -16.666 -67 -27.999 -97s-26.333 -56 -45 -78s-41.834 -39.167 -69.501 -51.5s-61.5 -18.5 -101.5 -18.5c-60 0 -104.333 15.5 -133 46.5s-43 70.833 -43 119.5c0 12.667 1.66699 30.5 5 53.5s7 45.167 11 66.5l17 85
l17 85c6 31.333 14 62 24 92s23.833 56.833 41.5 80.5s40.167 42.667 67.5 57s61.333 21.5 102 21.5z" />
    <glyph glyph-name="H" unicode="H" horiz-adv-x="525" 
d="M339 0l61 317h-232l-61 -317h-83l135 696h83l-60 -306h232l60 306h82l-135 -696h-82z" />
    <glyph glyph-name="I" unicode="I" horiz-adv-x="214" 
d="M25 0l136 696h83l-135 -696h-84z" />
    <glyph glyph-name="J" unicode="J" horiz-adv-x="401" 
d="M330 182c-7.33301 -35.333 -17.167 -65 -29.5 -89s-27.5 -43.333 -45.5 -58s-38.333 -25.167 -61 -31.5s-47.334 -9.5 -74.001 -9.5c-32 0 -60.167 6.16699 -84.5 18.5s-43.166 29.833 -56.499 52.5l64 48c8 -12.667 19.333 -23 34 -31s29.667 -12 45 -12
c30.667 0 57 8.33301 79 25s37.667 47 47 91l99 510h83z" />
    <glyph glyph-name="K" unicode="K" horiz-adv-x="510" 
d="M374 0l-49 173l-49 173l-132 -150l-38 -196h-83l136 696h82l-67 -352h2l123 146l177 206h94l-231 -276l122 -420h-87z" />
    <glyph glyph-name="L" unicode="L" horiz-adv-x="436" 
d="M24 0l135 696h83l-121 -619h274l-14 -77h-357z" />
    <glyph glyph-name="M" unicode="M" horiz-adv-x="649" 
d="M468 0l94 485h-4l-80 -134l-137 -215h-56l-53 219l-28 130h-3l-94 -485h-83l135 696h82l60 -269l35 -161h3l98 163l164 267h85l-136 -696h-82z" />
    <glyph glyph-name="N" unicode="N" horiz-adv-x="555" 
d="M375 0l-124 378l-44 139h-3l-99 -517h-83l136 696h80l121 -370l46 -142h3l99 512h82l-135 -696h-79z" />
    <glyph glyph-name="O" unicode="O" horiz-adv-x="497" 
d="M454 203c-12.667 -67.333 -37.668 -119 -75.001 -155s-86.333 -54 -147 -54c-38 0 -70 6.16699 -96 18.5s-46.333 28.833 -61 49.5s-24 44.5 -28 71.5s-3.33301 55.167 2 84.5l54 276c4.66699 23.333 11.834 47.333 21.501 72s23.334 47 41.001 67s39.667 36.333 66 49
s58.166 19 95.499 19c36 0 66.333 -6.33301 91 -19s44.167 -29 58.5 -49s23.833 -42.5 28.5 -67.5s4.66699 -50.167 0 -75.5zM424.999 490c2 10.667 2.49902 23.5 1.49902 38.5s-5.16699 29.5 -12.5 43.5s-18.833 25.833 -34.5 35.5s-37.167 14.5 -64.5 14.5
c-22.667 0 -41.667 -4.5 -57 -13.5s-28.166 -20 -38.499 -33s-18.166 -27.167 -23.499 -42.5s-9.33301 -29.333 -12 -42l-52 -275c-4 -18.667 -5.33301 -36.667 -4 -54s5.66602 -32.833 12.999 -46.5s18.5 -24.5 33.5 -32.5s34.5 -12 58.5 -12c35.333 0 64.833 11 88.5 33
s39.167 52.333 46.5 91z" />
    <glyph glyph-name="P" unicode="P" horiz-adv-x="478" 
d="M107 0h-82.999l135 696h192c53.333 0 94.833 -13 124.5 -39s44.5 -64 44.5 -114c0 -37.333 -5 -72 -15 -104s-25 -59.833 -45 -83.5s-44.833 -42.167 -74.5 -55.5s-63.834 -20 -102.501 -20h-122zM435.001 524c0 30 -8.50098 53.333 -25.501 70s-42.833 25 -77.5 25h-106
l-50 -261h111c24.667 0 46.334 4.33301 65.001 13s34.167 20.5 46.5 35.5s21.5 32.5 27.5 52.5s9 41.667 9 65z" />
    <glyph glyph-name="Q" unicode="Q" horiz-adv-x="500" 
d="M326 701c29.333 0 55.334 -4.33301 78.001 -13s41.667 -20.667 57 -36s26.833 -33.666 34.5 -54.999s11.5 -45 11.5 -71c0 -17.333 -1.5 -36.333 -4.5 -57s-6.5 -42 -10.5 -64s-8.5 -44.333 -13.5 -67s-9.5 -44.334 -13.5 -65.001
c-4.66699 -20 -8.83398 -39.5 -12.501 -58.5s-8.5 -37.833 -14.5 -56.5c-8 -26 -18 -49 -30 -69l54 -52l-53 -54l-52 49c-17.333 -12.667 -37 -22.167 -59 -28.5s-47.667 -9.5 -77 -9.5c-32 0 -59.167 4.33301 -81.5 13s-40.5 20.834 -54.5 36.501s-24.333 34 -31 55
s-10 43.5 -10 67.5c0 17.333 1.5 36.666 4.5 57.999s6.66699 43.5 11 66.5s9 46.167 14 69.5s9.5 45.333 13.5 66c8 39.333 17.5 75.833 28.5 109.5s25.5 62.667 43.5 87s40.333 43.5 67 57.5s60 21 100 21zM316.001 624c-31.333 0 -55.834 -7.83008 -73.501 -23.4971
s-31.167 -34.5 -40.5 -56.5c-6 -15.333 -12.167 -33.833 -18.5 -55.5s-12.333 -44.834 -18 -69.501s-11 -49.334 -16 -74.001s-9.33301 -48 -13 -70s-6.5 -41.167 -8.5 -57.5s-3 -28.166 -3 -35.499c0 -16 1.33301 -30.833 4 -44.5s7.83398 -25.5 15.501 -35.5
s18 -17.833 31 -23.5s29.833 -8.5 50.5 -8.5c14.667 0 28.667 1.66699 42 5s23.666 7.66602 30.999 12.999l-71 69l55 53l64 -62c8 16.667 14.667 34.667 20 54s10 38.666 14 57.999c4 20.667 8.5 42.167 13.5 64.5s9.66699 44.5 14 66.5s8 43.333 11 64s4.5 39.667 4.5 57
c0 32 -8.16699 58.667 -24.5 80s-44.166 32 -83.499 32z" />
    <glyph glyph-name="R" unicode="R" horiz-adv-x="500" 
d="M346 0l-65.001 305.999h-115l-59 -306h-83l135 696h207c52 0 91.5 -14.667 118.5 -44s38.833 -70.333 35.5 -123c-3.33301 -56.667 -18.166 -102.167 -44.499 -136.5s-63.5 -59.166 -111.5 -74.499l72 -318h-90zM436.999 522.999
c2.66699 32.667 -4.83203 57.168 -22.499 73.501s-43.834 24.5 -78.501 24.5h-109l-47 -242h120c38.667 0 70.667 13.167 96 39.5s39 61.166 41 104.499z" />
    <glyph glyph-name="S" unicode="S" horiz-adv-x="472" 
d="M321 702c23.333 0 44.4941 -2.99023 63.4941 -8.99023s35.667 -14.167 50 -24.5s26.333 -22 36 -35s16.834 -26.5 21.501 -40.5l-75 -45c-8.66699 23.333 -22.667 41.333 -42 54s-41.333 19 -66 19c-20 0 -37.667 -3.5 -53 -10.5s-28.166 -16.333 -38.499 -28
s-18.166 -25.334 -23.499 -41.001s-8 -32.167 -8 -49.5c0 -16.667 3.33301 -30.334 10 -41.001s15.834 -19.834 27.501 -27.501s25.667 -14.334 42 -20.001l53.5 -18.5c48 -16.667 81.5 -37.834 100.5 -63.501s28.5 -58.167 28.5 -97.5
c0 -32.667 -5.16699 -63.167 -15.5 -91.5s-25.666 -52.833 -45.999 -73.5s-45.333 -36.834 -75 -48.501s-63.5 -17.5 -101.5 -17.5c-54 0 -97 11.667 -129 35s-53.333 54 -64 92l78 39c9.33301 -23.333 23.5 -43.333 42.5 -60s46.5 -25 82.5 -25
c24 0 44.5 4.16699 61.5 12.5s31 19.166 42 32.499s19.167 28.166 24.5 44.499s8 32.833 8 49.5c0 15.333 -2.16699 28.333 -6.5 39s-10.666 19.667 -18.999 27s-18.666 13.833 -30.999 19.5s-26.5 11.167 -42.5 16.5c-29.333 9.33301 -54 19.166 -74 29.499
s-36.333 22 -49 35s-21.834 27.5 -27.501 43.5s-8.5 34.667 -8.5 56c0 34 5.16699 64.833 15.5 92.5s25.333 51.167 45 70.5s43.167 34.166 70.5 44.499s58 15.5 92 15.5z" />
    <glyph glyph-name="T" unicode="T" horiz-adv-x="398" 
d="M321 621l-121 -621h-82l120 621h-157l15 75h396l-15 -75h-156z" />
    <glyph glyph-name="U" unicode="U" horiz-adv-x="513" 
d="M552 696l-45.001 -229.997l-44 -229c-6 -34.667 -15 -66.834 -27 -96.501s-27.5 -55.334 -46.5 -77.001s-42 -38.667 -69 -51s-58.833 -18.5 -95.5 -18.5c-39.333 0 -70.833 6.16699 -94.5 18.5s-41.5 28.833 -53.5 49.5s-19.167 44.167 -21.5 70.5
s-1.16602 53.5 3.50098 81.5l22.5 118.5l25 130l24 126l20.5 107.5h82l-21 -107.5l-25 -130l-25.5 -132l-21.5 -113.5c-3.33301 -16 -5 -32.167 -5 -48.5s3 -31 9 -44s15.5 -23.5 28.5 -31.5s30.5 -12 52.5 -12c26 0 48 4.5 66 13.5s33 21.167 45 36.5
s21.5 33.166 28.5 53.499s12.5 41.5 16.5 63.5l88 452h83z" />
    <glyph glyph-name="V" unicode="V" horiz-adv-x="464" 
d="M221 152c4 8 10 21.5 18 40.5l25 61l25 61.5c8 19.333 14 33 18 41l147 340h91l-317 -696h-78l-42 696h84l16 -347l8 -197h5z" />
    <glyph glyph-name="W" unicode="W" horiz-adv-x="694" 
d="M497 0h-75l-8 314l-6 218h-3l-87 -215l-130 -317h-75v696h84l-6 -265l-8 -251h4l88 211l127 305h75l8 -311l6 -207h4l66 196l119 322h88z" />
    <glyph glyph-name="X" unicode="X" horiz-adv-x="445" 
d="M316 0l-74 282l-184 -282h-92l245 361l-97 335h86l66 -258l167 258h92l-229 -335l106 -361h-86z" />
    <glyph glyph-name="Y" unicode="Y" horiz-adv-x="437" 
d="M253 386l72 122.998l54.5 94l54.5 93h89l-249 -405l-57 -291h-80l57 291l-46 202.5l-46 202.5h81l48 -235c2.66699 -9.33301 5.5 -21.166 8.5 -35.499s5.83301 -27.166 8.5 -38.499z" />
    <glyph glyph-name="Z" unicode="Z" horiz-adv-x="408" 
d="M-14 0l15 77l374 544h-257l15 75h345l-14 -72l-374 -548h267l-14 -76h-357z" />
    <glyph glyph-name="bracketleft" unicode="[" horiz-adv-x="233" 
d="M7 -103l156 801h150l-11 -53h-79l-135 -695h79l-10 -53h-150z" />
    <glyph glyph-name="backslash" unicode="\" horiz-adv-x="264" 
d="M141 -24l-51 737h62l51 -737h-62z" />
    <glyph glyph-name="bracketright" unicode="]" horiz-adv-x="233" 
d="M-39 -104l9 54h79l135 695h-79l11 53h149l-156 -802h-148z" />
    <glyph glyph-name="asciicircum" unicode="^" horiz-adv-x="440" 
d="M42 332l248 362h56l108 -362h-66l-83 289l-194 -289h-69z" />
    <glyph glyph-name="underscore" unicode="_" horiz-adv-x="495" 
d="M-65 -130l12 61h494l-12 -61h-494z" />
    <glyph glyph-name="grave" unicode="`" horiz-adv-x="424" 
d="M312 550l-96 171l67 28l72 -180z" />
    <glyph glyph-name="a" unicode="a" horiz-adv-x="447" 
d="M440 495l-96 -494.999h-79l9 46c-0.666992 0 -1.16699 0.166992 -1.5 0.5s-0.833008 0.5 -1.5 0.5c-16.667 -18.667 -33.167 -32.167 -49.5 -40.5s-38.166 -12.5 -65.499 -12.5c-40.667 0 -70.834 13.333 -90.501 40s-29.5 62.667 -29.5 108c0 18 1.33301 37.167 4 57.5
s5.66699 39.166 9 56.499c6.66699 33.333 15 64.833 25 94.5s22.667 55.5 38 77.5s34 39.5 56 52.5s48 19.5 78 19.5c22 0 42.333 -4.5 61 -13.5s33 -22.167 43 -39.5c0.666992 0 1 0.166992 1 0.5s0.333008 0.5 1 0.5l10 47h78zM190 73.001
c23.333 0 42.834 7.83008 58.501 23.4971s27.167 32.834 34.5 51.501c6 15.333 11.667 31.833 17 49.5s9.83301 35 13.5 52s6.66699 33.5 9 49.5s3.5 30.333 3.5 43c0 24.667 -5.83301 44 -17.5 58s-29.5 21 -53.5 21c-16 0 -30.833 -3.5 -44.5 -10.5
s-25.834 -18.833 -36.501 -35.5c-8 -12 -15.5 -29 -22.5 -51s-13.167 -45 -18.5 -69c-4 -19.333 -7.33301 -37.166 -10 -53.499s-4 -30.5 -4 -42.5c0 -11.333 1 -22.166 3 -32.499s5.66699 -19.5 11 -27.5s12.5 -14.333 21.5 -19s20.833 -7 35.5 -7z" />
    <glyph glyph-name="b" unicode="b" horiz-adv-x="429" 
d="M202 -6c-25.333 0 -46.167 4.33203 -62.5 12.999s-29.833 22 -40.5 40c-0.666992 0 -1 -0.166992 -1 -0.5s-0.333008 -0.5 -1 -0.5l-10 -46h-78l141 726h79l-55 -283h2c16 17.333 35 31 57 41s45 15 69 15c41.333 0 70.5 -12 87.5 -36s25.5 -54.667 25.5 -92
c0 -8 -0.5 -18 -1.5 -30s-2.5 -25.167 -4.5 -39.5s-4.33301 -29 -7 -44l-8 -43.5c-6 -28 -13.833 -55.167 -23.5 -81.5s-22 -49.666 -37 -69.999s-33.333 -36.833 -55 -49.5s-47.167 -19 -76.5 -19zM190.999 70.999c20.667 0 38.0029 4.66602 52.0029 13.999
s25.667 22 35 38s17.166 34.5 23.499 55.5s12.166 43.167 17.499 66.5c4 17.333 7.16699 35 9.5 53s3.5 32.667 3.5 44c0 26.667 -5.5 46.5 -16.5 59.5s-29.833 19.5 -56.5 19.5c-26 0 -47.167 -8.66699 -63.5 -26s-28.5 -37 -36.5 -59
c-10.667 -30 -19.334 -62.167 -26.001 -96.5s-10 -67.166 -10 -98.499c0 -19.333 5.5 -35.833 16.5 -49.5s28.167 -20.5 51.5 -20.5z" />
    <glyph glyph-name="c" unicode="c" horiz-adv-x="381" 
d="M178 -6c-30.667 0 -55.665 4.5 -74.998 13.5s-34.5 20.833 -45.5 35.5s-18.5 31.167 -22.5 49.5s-6 36.833 -6 55.5c0 19.333 1.33301 38.666 4 57.999s5.66699 38.666 9 57.999c6 31.333 14.5 61.333 25.5 90s25.5 53.834 43.5 75.501s39.667 39 65 52s55 19.5 89 19.5
c35.333 0 65.666 -9 90.999 -27s40.666 -44 45.999 -78l-74 -36c-3.33301 22 -11.333 38.333 -24 49s-28.667 16 -48 16c-20.667 0 -38.5 -4.66699 -53.5 -14s-27.833 -21.833 -38.5 -37.5s-19.5 -33.667 -26.5 -54s-12.5 -41.166 -16.5 -62.499
c-3.33301 -15.333 -6 -30.833 -8 -46.5s-3 -30.5 -3 -44.5c0 -33.333 6 -57.666 18 -72.999s33 -23 63 -23c19.333 0 37.5 5.66699 54.5 17s29.833 26.666 38.5 45.999l68 -38c-16.667 -28.667 -39.667 -52.667 -69 -72s-64.333 -29 -105 -29z" />
    <glyph glyph-name="d" unicode="d" horiz-adv-x="428" 
d="M145 -6c-21.333 0 -39.165 3.33301 -53.498 10s-26 16 -35 28s-15.5 26.5 -19.5 43.5s-6 35.833 -6 56.5c0 23.333 1.66699 47.333 5 72s6.66602 45.667 9.99902 63c6 32.667 14.167 63.167 24.5 91.5s23.333 53 39 74s34.334 37.5 56.001 49.5s46.5 18 74.5 18
c22.667 0 43 -4.66699 61 -14s32.667 -22.333 44 -39h2l55 279h79l-70.5 -363l-71.5 -363h-79l4 22.5l4 23.5c-0.666992 0 -1 0.166992 -1 0.5s-0.333008 0.5 -1 0.5c-16.667 -16.667 -34.334 -29.667 -53.001 -39s-41.334 -14 -68.001 -14zM187.001 73
c12.667 0 24.166 2.33496 34.499 7.00195s19.5 10.667 27.5 18s14.833 15.5 20.5 24.5s10.167 18.167 13.5 27.5c6 16 11 32.667 15 50s7.66699 34.666 11 51.999c3.33301 15.333 6.16602 30.333 8.49902 45s3.5 28.667 3.5 42c0 23.333 -5.5 42.666 -16.5 57.999
s-29.167 23 -54.5 23c-21.333 0 -39 -4.83301 -53 -14.5s-25.667 -22.334 -35 -38.001s-16.666 -33.5 -21.999 -53.5s-10 -40.333 -14 -61c-3.33301 -18 -6 -35.5 -8 -52.5s-3 -32.5 -3 -46.5c0 -23.333 4.83301 -42.666 14.5 -57.999s28.834 -23 57.501 -23z" />
    <glyph glyph-name="e" unicode="e" horiz-adv-x="414" 
d="M258 501c46 0 81.998 -10.832 107.998 -32.499s39 -51.5 39 -89.5c0 -26.667 -4.83301 -50.834 -14.5 -72.501s-24.5 -40.334 -44.5 -56.001s-45.333 -27.667 -76 -36s-67 -12.5 -109 -12.5c-7.33301 0 -15.5 0.166992 -24.5 0.5s-17.5 0.833008 -25.5 1.5
c-2 -14 -3 -28 -3 -42c0 -12 1.16699 -23.667 3.5 -35s6.16602 -21.166 11.499 -29.499s12.833 -15 22.5 -20s21.834 -7.5 36.501 -7.5c8.66699 0 18 1.5 28 4.5s19.833 7 29.5 12s18.667 11 27 18s15.166 14.5 20.499 22.5l66 -36c-19.333 -28.667 -43.666 -52 -72.999 -70
s-64.666 -27 -105.999 -27c-27.333 0 -50.166 4.5 -68.499 13.5s-32.833 21 -43.5 36s-18.167 32.5 -22.5 52.5s-6.5 40.667 -6.5 62c0 34.667 3.5 72.167 10.5 112.5s19.167 77.5 36.5 111.5s40.333 62.333 69 85s65 34 109 34zM250.998 427.001
c-34.667 0 -62.1699 -13.667 -82.5029 -41s-35.166 -64.666 -44.499 -111.999c7.33301 -0.666992 15 -1.16699 23 -1.5s15.667 -0.5 23 -0.5c56.667 0 96.834 9.16699 120.501 27.5s35.5 41.166 35.5 68.499c0 17.333 -6.66699 31.5 -20 42.5s-31.666 16.5 -54.999 16.5z
" />
    <glyph glyph-name="f" unicode="f" horiz-adv-x="258" 
d="M113 425l-59.001 -0.00195312l14 69h59l18 91c4 19.333 9.16699 37.833 15.5 55.5s15 33.167 26 46.5s25.167 23.833 42.5 31.5s39 11.5 65 11.5c6 0 12.5 -0.333008 19.5 -1s14.167 -1.66699 21.5 -3l-5.5 -37.5c-2.33301 -15.667 -4.5 -28.167 -6.5 -37.5
c-10.667 2.66699 -21.667 4 -33 4c-12.667 0 -23 -2.5 -31 -7.5s-14.167 -11.333 -18.5 -19s-7.66602 -16.167 -9.99902 -25.5l-6.5 -26l-17 -83h81l-13 -69h-81l-81 -414c-4 -19.333 -9.16699 -37.833 -15.5 -55.5s-15 -33.167 -26 -46.5s-25 -24 -42 -32
s-38.167 -12 -63.5 -12c-6.66699 0 -13.667 0.333008 -21 1s-14.666 1.66699 -21.999 3l11 75c6.66699 -1.33301 12.167 -2.16602 16.5 -2.49902s9.83301 -0.5 16.5 -0.5c12 0 21.667 1.83301 29 5.5s13.333 8.33398 18 14.001s8.16699 12 10.5 19
s4.16602 13.833 5.49902 20.5z" />
    <glyph glyph-name="g" unicode="g" horiz-adv-x="436" 
d="M341 0c-5.33301 -27.333 -12.001 -53.333 -20.001 -78s-19.167 -46.334 -33.5 -65.001s-33.166 -33.334 -56.499 -44.001s-53 -16 -89 -16c-34.667 0 -65.5 7.5 -92.5 22.5s-44.833 35.833 -53.5 62.5l66 45c7.33301 -16.667 17.5 -29.834 30.5 -39.501
s30.167 -14.5 51.5 -14.5c28 0 50 7 66 21s27.667 31.667 35 53c5.33301 16.667 10.166 33.834 14.499 51.501s8.16602 35.5 11.499 53.5h-2c-17.333 -20 -36.666 -34.333 -57.999 -43s-42.666 -13 -63.999 -13c-22 0 -40.333 3.33301 -55 10s-26.5 16 -35.5 28
s-15.333 26.167 -19 42.5s-5.5 34.166 -5.5 53.499c0 18 1.16699 37.833 3.5 59.5s5.83301 44.167 10.5 67.5s10.5 46.5 17.5 69.5s14.833 44.833 23.5 65.5s19 37.834 31 51.501s24.833 24.834 38.5 33.501s28 14.834 43 18.501s29.5 5.5 43.5 5.5
c22 0 42.167 -4.5 60.5 -13.5s32.5 -22.167 42.5 -39.5c0.666992 0 1 0.166992 1 0.5s0.333008 0.5 1 0.5l10 46h79zM253.999 422c-20 0 -36.8311 -4.00098 -50.498 -12.001s-25.334 -19.333 -35.001 -34s-17.834 -32.334 -24.501 -53.001s-12.334 -44 -17.001 -70
c-6 -33.333 -10 -63.333 -12 -90c-1.33301 -25.333 2.83398 -46.333 12.501 -63s29.167 -25 58.5 -25c26 0 47.5 8.66699 64.5 26s29.5 37 37.5 59c8.66699 24.667 15.5 50.334 20.5 77.001s8.83301 52.334 11.5 77.001c0.666992 12 0.833984 24.5 0.500977 37.5
s-2.5 24.667 -6.5 35s-10.833 18.833 -20.5 25.5s-22.834 10 -39.501 10z" />
    <glyph glyph-name="h" unicode="h" horiz-adv-x="444" 
d="M271 0l22.501 113l20.5 104.5l15 79c4 21 6 32.833 6 35.5c3.33301 24 0.5 44.667 -8.5 62s-28.5 26 -58.5 26c-28.667 0 -53.334 -9.5 -74.001 -28.5s-34 -44.167 -40 -75.5l-62 -316h-79l140 727h80l-56 -288h3c19.333 21.333 39.833 36.833 61.5 46.5
s43.5 14.5 65.5 14.5c37.333 0 66.833 -12 88.5 -36s29.5 -58.333 23.5 -103c0 -3.33301 -2 -16 -6 -38l-15.5 -83.5l-21.5 -113l-24 -126.5h-81z" />
    <glyph glyph-name="i" unicode="i" horiz-adv-x="195" 
d="M136 615l16 81h80l-16 -81h-80zM17 0l96 495h80l-96 -495h-80z" />
    <glyph glyph-name="j" unicode="j" horiz-adv-x="207" 
d="M143 615l16 81h81l-16 -81h-81zM91 -66c-3.33301 -18 -8.66699 -35.1699 -16 -51.5029s-17 -30.5 -29 -42.5s-26.333 -21.667 -43 -29s-36 -11 -58 -11h-18.5c-9 0 -14.833 0.333008 -17.5 1l14 75c2 0 5.83301 -0.166992 11.5 -0.5s9.16699 -0.166016 10.5 0.500977
c21.333 0.666992 37 7.83398 47 21.501s17.333 31.834 22 54.501l106 543h81z" />
    <glyph glyph-name="k" unicode="k" horiz-adv-x="435" 
d="M304 0l-84 243l-101 -112l-25 -131h-79l141 727h79l-92 -468h3l218 236h94l-177 -194l111 -301h-88z" />
    <glyph glyph-name="l" unicode="l" horiz-adv-x="224" 
d="M239 726l-58.001 -297l-58 -297c-1.33301 -4 -2 -7.66699 -2 -11v-10c0 -12 3.33301 -21.5 10 -28.5s17.334 -10.5 32.001 -10.5h16l-15 -75h-13c-33.333 0 -60.833 6.5 -82.5 19.5s-32.5 35.167 -32.5 66.5c0 12.667 1 25 3 37l120 606h80z" />
    <glyph glyph-name="m" unicode="m" horiz-adv-x="708" 
d="M561 500c28 0 50.498 -5.16309 67.498 -15.4961s29.5 -23.666 37.5 -39.999s12.333 -34.833 13 -55.5s-1 -41 -5 -61l-65 -328h-80l64 328c2 9.33301 2.66699 19.166 2 29.499s-3.16699 19.666 -7.5 27.999s-11 15.166 -20 20.499s-20.5 8 -34.5 8
c-16.667 0 -31.667 -3 -45 -9s-25.166 -14.333 -35.499 -25s-19 -22.834 -26 -36.501s-11.833 -28.5 -14.5 -44.5l-57 -299h-81l23.5 120l18 90l13 67.5c3.66699 19 6.83398 36.167 9.50098 51.5c1.33301 12 1.5 23.5 0.5 34.5s-4 20.667 -9 29s-12.333 15 -22 20
s-22.5 7.5 -38.5 7.5c-30.667 0 -55.167 -11.5 -73.5 -34.5s-31.166 -53.167 -38.499 -90.5c-1.33301 -6 -3.33301 -16.667 -6 -32s-6 -32.833 -10 -52.5l-12.5 -63l-12.5 -63l-10.5 -52.5c-3 -15.333 -5.16699 -26 -6.5 -32h-79l96 494h80l-11 -53h3
c17.333 19.333 36.5 33.666 57.5 42.999s42.833 14 65.5 14c29.333 0 52.666 -5.33301 69.999 -16s30.333 -25.667 39 -45h1c21.333 20 43 35.5 65 46.5s47 16.5 75 16.5z" />
    <glyph glyph-name="n" unicode="n" horiz-adv-x="440" 
d="M268 0l22.498 112.999l20.5 104.5l15 79c4 21 6 32.833 6 35.5c2 12 2.5 23.333 1.5 34s-4.16699 20.167 -9.5 28.5s-13.166 14.833 -23.499 19.5s-23.833 7 -40.5 7c-28.667 0 -52.5 -10 -71.5 -30s-31.5 -45 -37.5 -75l-62 -316h-79l96 495h80l-11 -55h3
c18.667 21.333 38.834 36.666 60.501 45.999s43.5 14 65.5 14c18.667 0 35.5 -3.16699 50.5 -9.5s27.667 -15.166 38 -26.499s17.833 -25.166 22.5 -41.499s5.66699 -34.833 3 -55.5c0 -3.33301 -2 -16.333 -6 -39s-9.33301 -51.167 -16 -85.5l-22.5 -115l-24.5 -127.5h-81z
" />
    <glyph glyph-name="o" unicode="o" horiz-adv-x="429" 
d="M258 500c26 0 48.5 -4 67.5 -12s34.667 -18.833 47 -32.5s21.5 -29.667 27.5 -48s9 -37.833 9 -58.5c0 -20 -1.83301 -41.667 -5.5 -65s-7.5 -45 -11.5 -65c-7.33301 -36 -16.333 -67.833 -27 -95.5s-24 -51.167 -40 -70.5s-35.5 -34 -58.5 -44s-50.5 -15 -82.5 -15
c-27.333 0 -50.333 4 -69 12s-33.834 18.833 -45.501 32.5s-20.167 29.167 -25.5 46.5s-8 35.333 -8 54c0 26 1.66699 51 5 75s7.33301 46.667 12 68c6.66699 31.333 15.334 60.333 26.001 87s23 48.667 37 66c36 43.333 83.333 65 142 65zM252 428
c-28 0 -51.001 -10.0029 -69.001 -30.0029c-10.667 -11.333 -20.334 -26.666 -29.001 -45.999s-16.334 -41.333 -23.001 -66c-5.33301 -19.333 -9.5 -40.166 -12.5 -62.499s-5.16699 -42.166 -6.5 -59.499c-0.666992 -12 -0.166992 -23.833 1.5 -35.5
s5.33398 -22 11.001 -31s13.834 -16.333 24.501 -22s24.667 -8.5 42 -8.5c28 0 49 7.16699 63 21.5s25.667 33.166 35 56.499c6 14.667 11.5 30.834 16.5 48.501s9.33301 35.5 13 53.5s6.5 35.333 8.5 52s3 31.667 3 45c0 28 -7.16699 49 -21.5 63s-33.166 21 -56.499 21z
" />
    <glyph glyph-name="p" unicode="p" horiz-adv-x="433" 
d="M-31 -197l66.999 345.997l68 346h79l-9 -46c0.666992 0 1 -0.166992 1 -0.5s0.333008 -0.5 1 -0.5c16.667 16.667 34.5 29.667 53.5 39s41.833 14 68.5 14c34.667 0 62.334 -10.667 83.001 -32s31 -53.666 31 -96.999c0 -22 -1.33301 -45.833 -4 -71.5
s-6 -49.167 -10 -70.5c-6 -32.667 -13.667 -63.167 -23 -91.5s-21.666 -53.166 -36.999 -74.499s-34.333 -38.166 -57 -50.499s-50.334 -18.5 -83.001 -18.5c-20 0 -39 4.5 -57 13.5s-32.667 22.167 -44 39.5c-0.666992 0 -1 -0.166992 -1 -0.5s-0.333008 -0.5 -1 -0.5
l-23 -122l-24 -122h-79zM255.999 421.997c-25.333 0 -46.167 -8.5 -62.5 -25.5s-27.833 -35.5 -34.5 -55.5c-8 -25.333 -15 -51 -21 -77s-10.333 -51 -13 -75c-0.666992 -6 -1.16699 -12.167 -1.5 -18.5s-0.5 -12.5 -0.5 -18.5c0 -23.333 5.83301 -42.166 17.5 -56.499
s28.834 -21.5 51.501 -21.5c16 0 31 3.16699 45 9.5s26.333 17.166 37 32.499c9.33301 13.333 17.666 32.333 24.999 57s13.666 50.667 18.999 78c3.33301 15.333 5.66602 29.833 6.99902 43.5s2.33301 26.167 3 37.5c0 12 -0.833008 23.5 -2.5 34.5
s-5.16699 20.667 -10.5 29s-12.666 14.833 -21.999 19.5s-21.666 7 -36.999 7z" />
    <glyph glyph-name="q" unicode="q" horiz-adv-x="439" 
d="M230 -197l24.502 124.501l25.5 123.5c-0.666992 0 -1 0.166992 -1 0.5s-0.333008 0.5 -1 0.5c-34.667 -38 -74.334 -57 -119.001 -57c-23.333 0 -42.666 4 -57.999 12s-27.5 18.667 -36.5 32s-15.333 28.833 -19 46.5s-5.5 36.5 -5.5 56.5c0 21.333 2.16699 47 6.5 77
s10.166 60.333 17.499 91c6 26 14.167 50.667 24.5 74s23 43.666 38 60.999s32.833 31 53.5 41s44.667 15 72 15c22 0 42.667 -5 62 -15s32.666 -23.333 39.999 -40c0.666992 0 1 0.166992 1 0.5s0.333008 0.5 1 0.5l9 48h80l-132 -692h-83zM263.002 423.001
c-19.333 0 -35.999 -4.00293 -49.999 -12.0029s-25.833 -19.5 -35.5 -34.5s-17.834 -32.833 -24.501 -53.5s-12.334 -44 -17.001 -70c-3.33301 -19.333 -6.16602 -37.166 -8.49902 -53.499s-3.5 -31.166 -3.5 -44.499c0 -23.333 4.83301 -42.666 14.5 -57.999
s28.5 -23 56.5 -23c18 0 33.667 5 47 15s25 23 35 39s18.333 34.167 25 54.5s12 40.833 16 61.5s6.83301 40.334 8.5 59.001s2.5 34.667 2.5 48c0 19.333 -5 36.166 -15 50.499s-27 21.5 -51 21.5z" />
    <glyph glyph-name="r" unicode="r" horiz-adv-x="310" 
d="M327 403c-6.66699 4 -14.498 6.83496 -23.498 8.50195s-16.833 2.5 -23.5 2.5c-30.667 0 -57 -9.66699 -79 -29s-36.667 -48 -44 -86l-59 -299h-80l96 495h81l-14 -67h3c17.333 28 37.666 47.333 60.999 58s48.333 15.667 75 15c8 -0.666992 15.667 -1.83398 23 -3.50098
s12.666 -3.83398 15.999 -6.50098z" />
    <glyph glyph-name="s" unicode="s" horiz-adv-x="401" 
d="M248 501c38.667 0 70.834 -8.49902 96.501 -25.499s43.167 -40.5 52.5 -70.5l-70 -37c-6 18.667 -15.833 32.834 -29.5 42.501s-33.167 14.5 -58.5 14.5c-27.333 0 -49.5 -7.5 -66.5 -22.5s-25.5 -33.833 -25.5 -56.5c0 -16 8 -27.833 24 -35.5s38 -15.167 66 -22.5
c18 -4.66699 34.333 -10 49 -16s27.334 -13.667 38.001 -23s19 -20.666 25 -33.999s9 -29 9 -47c0 -28 -4.83301 -52.833 -14.5 -74.5s-23 -39.834 -40 -54.501s-37.167 -25.834 -60.5 -33.501s-49 -11.5 -77 -11.5c-40 0 -74.333 8.83301 -103 26.5
s-47.334 43.5 -56.001 77.5l67 36c8 -20 19.833 -35.833 35.5 -47.5s36.834 -17.5 63.501 -17.5c12.667 0 25.334 1.83301 38.001 5.5s23.667 9.16699 33 16.5s17 16.5 23 27.5s9 23.5 9 37.5c0 11.333 -2.83301 20.333 -8.5 27s-13.334 12.334 -23.001 17.001
s-20.834 8.5 -33.501 11.5s-26.334 6.5 -41.001 10.5c-34 11.333 -59.667 25.166 -77 41.499s-26 40.166 -26 71.499c0 25.333 4.66699 48.333 14 69s22 38.167 38 52.5s35 25.333 57 33s46 11.5 72 11.5z" />
    <glyph glyph-name="t" unicode="t" horiz-adv-x="250" 
d="M205 494l69.999 0.000976562c-2.66699 -11.333 -5 -22.333 -7 -33l-6 -33h-70l-57 -293c-2 -8.66699 -3.16699 -16.667 -3.5 -24s0.833984 -13.833 3.50098 -19.5s7 -10 13 -13s14.667 -4.5 26 -4.5h26l-15 -75h-38c-21.333 0 -38.833 3.16699 -52.5 9.5
s-24.167 14.666 -31.5 24.999s-12 22.333 -14 36s-1.33301 28.167 2 43.5l61 315h-55l6 33c2 10.667 4.33301 21.667 7 33h55l25 128h80z" />
    <glyph glyph-name="u" unicode="u" horiz-adv-x="444" 
d="M270 0l11 53.001h-3c-18.667 -21.333 -38.834 -36.5 -60.501 -45.5s-43.167 -13.5 -64.5 -13.5c-41.333 0 -72.166 12 -92.499 36s-27.833 56.333 -22.5 97c0 3.33301 2 16.333 6 39s9.33301 51.167 16 85.5l22.5 115l24.5 128.5h80l-22 -113.5l-20 -105l-15 -79
c-4 -21 -6 -32.833 -6 -35.5c-2 -12 -2.66699 -23.333 -2 -34s3.16699 -20.167 7.5 -28.5s11.333 -15 21 -20s23.167 -7.5 40.5 -7.5c14 0 27.333 3.33301 40 10s24.167 15.5 34.5 26.5s19 23.667 26 38s12.167 29.166 15.5 44.499l60 304h79l-96 -495h-80z" />
    <glyph glyph-name="v" unicode="v" horiz-adv-x="383" 
d="M418 494c-16.667 -45.333 -33.832 -89.1699 -51.499 -131.503s-36.334 -83.666 -56.001 -123.999s-40.834 -80.166 -63.501 -119.499s-47.667 -79 -75 -119h-78l-53 494h82l18 -205c2.66699 -28 4.83398 -56.5 6.50098 -85.5s2.16699 -61.5 1.5 -97.5h3
c19.333 30 37 60 53 90s31.167 60.833 45.5 92.5s28 64.334 41 98.001l39.5 107.5h87z" />
    <glyph glyph-name="w" unicode="w" horiz-adv-x="628" 
d="M328 376c-12.667 -38.667 -24.998 -73.998 -36.998 -105.998s-24.667 -62.5 -38 -91.5s-27.5 -57.833 -42.5 -86.5l-49.5 -92h-80l-37 495h83l11 -240c0.666992 -11.333 1.16699 -22.333 1.5 -33l1 -32.5c0.333008 -11 0.5 -22.833 0.5 -35.5
s-0.333008 -26.334 -1 -41.001h4c31.333 56.667 59.833 117.167 85.5 181.5s50.834 131.166 75.501 200.499h90l13 -212c1.33301 -24.667 2.16602 -50 2.49902 -76s-0.166992 -56 -1.5 -90h3c16.667 30 32 59.167 46 87.5s27.5 57.5 40.5 87.5s25.5 61.5 37.5 94.5l38 108.5
h83c-15.333 -47.333 -31.166 -92 -47.499 -134s-34 -82.833 -53 -122.5s-39.333 -79.167 -61 -118.5s-44.834 -79.333 -69.501 -120h-79l-13 238c-0.666992 17.333 -1.33398 38.5 -2.00098 63.5s-0.333984 49.833 0.999023 74.5h-5z" />
    <glyph glyph-name="x" unicode="x" horiz-adv-x="390" 
d="M254 0l-57.002 180.999c-6 -7.33301 -15 -19.5 -27 -36.5l-37.5 -54l-37.5 -54c-12 -17 -21 -29.167 -27 -36.5h-96l193 254c-3.33301 6.66699 -7.33301 16.334 -12 29.001l-15.5 42.5l-17.5 49l-17.5 49l-16 42.5l-11.5 29h89l54 -174l25 35.5l35 52l35 51.5l25 35h96
l-186 -243c4.66699 -10 11.334 -26.833 20.001 -50.5l27.5 -75.5l27.5 -75.5c8.66699 -23.667 15.334 -40.5 20.001 -50.5h-89z" />
    <glyph glyph-name="y" unicode="y" horiz-adv-x="375" 
d="M408 495l-57.502 -164.001c-18.333 -50 -36.833 -97.167 -55.5 -141.5s-37.667 -86.333 -57 -126s-40.333 -78.167 -63 -115.5c-30 -48.667 -64.5 -86 -103.5 -112s-83.5 -38.667 -133.5 -38l-3 71c34.667 4.66699 65.834 15.834 93.501 33.501s51.5 43.167 71.5 76.5
l-56 516h83l18 -222c2.66699 -28.667 4.83398 -61.5 6.50098 -98.5s1.83398 -71.833 0.500977 -104.5h3c16 29.333 31.667 61.5 47 96.5s30.166 71 44.499 108l41.5 112l37 108.5h83z" />
    <glyph glyph-name="z" unicode="z" horiz-adv-x="366" 
d="M-19 0l14 71l287 352h-205l13 71h296l-13 -69l-284 -349h216l-15 -76h-309z" />
    <glyph glyph-name="braceleft" unicode="{" horiz-adv-x="243" 
d="M129 -103c-30 0 -52.3311 10.1709 -66.998 30.5039s-19 46.833 -13 79.5l27 143c6.66699 35.333 7 64.666 1 87.999s-21.667 36.666 -47 39.999l10 51c13.333 2 25.166 6.83301 35.499 14.5s19.5 17.334 27.5 29.001s14.667 25 20 40s9.66602 30.5 12.999 46.5l27 136
c5.33301 30 17.833 54.333 37.5 73s44.167 28 73.5 28h52l-10 -53h-26c-10.667 0 -19.667 -2.33301 -27 -7s-13.333 -10.667 -18 -18s-8.33398 -15.5 -11.001 -24.5s-5 -17.833 -7 -26.5l-25 -130c-4 -21.333 -10.167 -39.833 -18.5 -55.5s-17.166 -28.834 -26.499 -39.501
s-18.333 -18.834 -27 -24.501s-15.667 -9.5 -21 -11.5l-1 -3c4.66699 -2 10.334 -5.83301 17.001 -11.5s12.5 -13.834 17.5 -24.501s8.66699 -23.667 11 -39s1.5 -33.333 -2.5 -54l-27 -142c-4 -22.667 -4.33301 -42 -1 -58s13.666 -24 30.999 -24h27l-10 -53h-42z" />
    <glyph glyph-name="bar" unicode="|" horiz-adv-x="207" 
d="M72 -161v883h64v-883h-64z" />
    <glyph glyph-name="braceright" unicode="}" horiz-adv-x="243" 
d="M242 270c-26 -3.33301 -46.668 -17.3408 -62.001 -42.0078s-26.333 -53.667 -33 -87l-28 -143c-5.33301 -30 -17.666 -54.333 -36.999 -73s-45 -28 -77 -28h-47l10 53h25c19.333 0 33.666 8.33301 42.999 25s16.333 37.334 21 62.001l24 127
c4 20.667 10.167 38.834 18.5 54.501s17 28.834 26 39.501s18 18.834 27 24.501s16.167 9.5 21.5 11.5l1 3c-5.33301 2 -11.166 5.83301 -17.499 11.5s-12 13.667 -17 24s-8.5 23.333 -10.5 39s-1 34.167 3 55.5l25 129c2.66699 12.667 4.5 24.334 5.5 35.001
s0.666992 19.834 -1 27.501s-5.16699 13.667 -10.5 18s-13 6.5 -23 6.5h-28l10 51h46c32.667 0 55.167 -10.167 67.5 -30.5s15.5 -46.166 9.5 -77.499l-27 -136c-3.33301 -16.667 -5.16602 -32.5 -5.49902 -47.5s1.16699 -28.333 4.5 -40s8.66602 -21.167 15.999 -28.5
s17.333 -11.666 30 -12.999l-10 -51v0z" />
    <glyph glyph-name="asciitilde" unicode="~" horiz-adv-x="440" 
d="M437 292c-16.667 -28 -35.334 -49.502 -56.001 -64.502s-44.667 -22.5 -72 -22.5c-13.333 0 -26.5 2.83301 -39.5 8.5s-26.167 11.834 -39.5 18.501s-26.666 12.834 -39.999 18.501s-27 8.5 -41 8.5c-15.333 0 -28 -4 -38 -12s-22.667 -19.667 -38 -35l-44 35
c18.667 26.667 39 47.167 61 61.5s45.333 21.5 70 21.5c16 0 30.5 -2.83301 43.5 -8.5s25.667 -12 38 -19s24.5 -13.333 36.5 -19s24.667 -8.5 38 -8.5s25.833 3.5 37.5 10.5s24.167 19.5 37.5 37.5z" />
    <glyph glyph-name="exclamdown" unicode="&#xa1;" horiz-adv-x="235" 
d="M135 317h63l-93 -519h-79zM243 494l-18 -89h-85l18 89h85z" />
    <glyph glyph-name="cent" unicode="&#xa2;" horiz-adv-x="401" 
d="M151 -4c-24.667 2.66699 -44.998 8.83398 -60.998 18.501s-28.5 21.5 -37.5 35.5s-15.167 29.5 -18.5 46.5s-5 34.167 -5 51.5c0 19.333 1.33301 38.666 4 57.999s5.66699 38.666 9 57.999c5.33301 30 13.333 58.833 24 86.5s24.167 52.334 40.5 74.001
s36.166 39.167 59.499 52.5s50.666 21 81.999 23l20 101h43l-20 -102c29.333 -4.66699 53.833 -15.667 73.5 -33s32.167 -40.666 37.5 -69.999l-74 -36c-2.66699 17.333 -8.5 31.166 -17.5 41.499s-20.5 17.166 -34.5 20.499l-68 -351c16 3.33301 30.833 10.5 44.5 21.5
s24.167 24.5 31.5 40.5l68 -38c-15.333 -27.333 -36.5 -50.166 -63.5 -68.499s-58.833 -28.833 -95.5 -31.5l-21 -112h-43zM110.002 166c0 -28 4.16699 -49.6689 12.5 -65.002s22.833 -25 43.5 -29l67 350c-16.667 -3.33301 -31.167 -10.166 -43.5 -20.499s-23 -23 -32 -38
s-16.5 -31.667 -22.5 -50s-10.667 -37.166 -14 -56.499c-3.33301 -15.333 -6 -30.833 -8 -46.5s-3 -30.5 -3 -44.5z" />
    <glyph glyph-name="sterling" unicode="&#xa3;" horiz-adv-x="440" 
d="M306 701c49.333 0 86.6689 -11.998 112.002 -35.998s40.666 -59.667 45.999 -107l-75 -23c-2.66699 12.667 -5.83398 24.667 -9.50098 36s-8.66699 21 -15 29s-14.666 14.333 -24.999 19s-23.166 7 -38.499 7c-17.333 0 -32 -3.66699 -44 -11s-21.833 -17.333 -29.5 -30
s-13.334 -27 -17.001 -43s-5.5 -32.667 -5.5 -50c0 -18 1.66699 -37.333 5 -58s5 -40.667 5 -60c0 -2 -0.166992 -3.83301 -0.5 -5.5s-0.5 -3.5 -0.5 -5.5h123l-14 -65h-116c-9.33301 -46.667 -21.666 -87.334 -36.999 -122.001s-35.333 -68.334 -60 -101.001h257l-14 -75
h-356c1.33301 11.333 3.16602 22.5 5.49902 33.5s4.5 22.167 6.5 33.5c29.333 34.667 54.166 70.167 74.499 106.5s34.833 77.833 43.5 124.5h-75l13 65h66c0 23.333 -2 47.333 -6 72s-6 47 -6 67c0 28.667 4.5 55.167 13.5 79.5s21.667 45.333 38 63s36 31.5 59 41.5
s48.5 15 76.5 15z" />
    <glyph glyph-name="currency" unicode="&#xa4;" horiz-adv-x="524" 
d="M45 486l48.0029 49l62 -62c17.333 11.333 34.5 19.833 51.5 25.5s35.167 8.5 54.5 8.5s37.666 -2.83301 54.999 -8.5s34.666 -14.167 51.999 -25.5l60 62c10 -9.33301 18.167 -17.5 24.5 -24.5s14.5 -15.167 24.5 -24.5l-62 -61c22.667 -35.333 34 -70.666 34 -105.999
c0 -18.667 -2.83301 -36.5 -8.5 -53.5s-14.167 -34.167 -25.5 -51.5l62 -60c-10 -10 -18.167 -18.5 -24.5 -25.5s-14.5 -15.167 -24.5 -24.5l-60 62c-32.667 -22.667 -68.334 -34 -107.001 -34c-36.667 0 -72 11.333 -106 34l-12 -12l-19 -19l-19 -19l-12 -12l-29.5 30.5
l-18.5 18.5l63 61c-22.667 33.333 -34 68.333 -34 105c0 37.333 11.333 72.666 34 105.999zM143.003 321c0 -16 3.00195 -31.167 9.00195 -45.5s14.167 -27 24.5 -38s22.666 -19.667 36.999 -26s29.833 -9.5 46.5 -9.5c16 0 31.333 3.16699 46 9.5
s27.334 14.666 38.001 24.999s19.167 22.666 25.5 36.999s9.5 29.5 9.5 45.5c0 16.667 -3 32.334 -9 47.001s-14.333 27.334 -25 38.001s-23.334 19 -38.001 25s-30.334 9 -47.001 9c-16 0 -31 -3 -45 -9s-26.333 -14.333 -37 -25s-19.167 -23.167 -25.5 -37.5
s-9.5 -29.5 -9.5 -45.5z" />
    <glyph glyph-name="yen" unicode="&#xa5;" horiz-adv-x="440" 
d="M299 347l110 0.000976562c-1.33301 -8.66699 -2.83301 -17.167 -4.5 -25.5s-3.5 -16.833 -5.5 -25.5h-128l-11 -26c-1.33301 -8.66699 -2.83301 -17.334 -4.5 -26.001s-3.5 -17.667 -5.5 -27h134l-10 -52h-134l-33 -165h-75l33 165h-133l10 52h133l10 53v26h-127
c1.33301 8.66699 2.83301 17.167 4.5 25.5s3.5 16.833 5.5 25.5h108l-36.5 174.5l-36.5 174.5h81l56 -326h1l20.5 37l31 55l51 90.5l81.5 143.5h83z" />
    <glyph glyph-name="brokenbar" unicode="&#xa6;" horiz-adv-x="207" 
d="M72 299v417h64v-417h-64zM136 251v-413h-64v413h64z" />
    <glyph glyph-name="section" unicode="&#xa7;" horiz-adv-x="445" 
d="M319 702c32.667 0 62.3301 -5.16699 88.9971 -15.5s48.667 -25.166 66 -44.499l-51 -54c-17.333 18 -35 30.167 -53 36.5s-36 9.5 -54 9.5c-29.333 0 -53.666 -8.5 -72.999 -25.5s-29 -37.167 -29 -60.5c0 -10 2.66699 -19 8 -27s12.333 -15.667 21 -23
s18.667 -14.333 30 -21s23 -13 35 -19c14 -7.33301 28.333 -15.5 43 -24.5s28.167 -19.167 40.5 -30.5s22.333 -24.333 30 -39s11.5 -31.334 11.5 -50.001c0 -30.667 -7.5 -57.167 -22.5 -79.5s-34.167 -41.833 -57.5 -58.5c6.66699 -10.667 11.834 -22.334 15.501 -35.001
s5.5 -26 5.5 -40c0 -25.333 -4.83301 -48.666 -14.5 -69.999s-23.167 -39.833 -40.5 -55.5s-38.5 -28 -63.5 -37s-52.5 -13.5 -82.5 -13.5c-32.667 0 -63.834 6.5 -93.501 19.5s-52.167 29.5 -67.5 49.5l48 50c16 -19.333 33.333 -32.666 52 -39.999s39.334 -11 62.001 -11
c34.667 0 63.5 8.5 86.5 25.5s34.5 40.5 34.5 70.5c0 19.333 -8.16699 37.333 -24.5 54s-41.5 33.667 -75.5 51c-37.333 19.333 -66.166 38.333 -86.499 57s-30.5 43.334 -30.5 74.001c0 31.333 7.33301 57.666 22 78.999s35.334 40.666 62.001 57.999
c-9.33301 12 -16.5 23.833 -21.5 35.5s-7.5 26.167 -7.5 43.5c0 25.333 5 48 15 68s23.5 36.833 40.5 50.5s36.667 24.167 59 31.5s46.166 11 71.499 11zM215.996 420c-16 -6 -30.165 -16.668 -42.498 -32.001s-18.5 -31 -18.5 -47c0 -14.667 5.33301 -27.667 16 -39
s23.667 -21.5 39 -30.5s31.666 -17.5 48.999 -25.5s32.666 -16 45.999 -24c16.667 7.33301 29.5 18.833 38.5 34.5s13.5 31.834 13.5 48.501c0 18.667 -7.83301 34.5 -23.5 47.5s-38.167 26.167 -67.5 39.5c-8 4 -16 8.33301 -24 13z" />
    <glyph glyph-name="dieresis" unicode="&#xa8;" horiz-adv-x="422" 
d="M329 593l17 84h77l-16 -84h-78zM164 593l17 84h77l-16 -84h-78z" />
    <glyph glyph-name="copyright" unicode="&#xa9;" horiz-adv-x="753" 
d="M509 224c-6 -34.667 -20.499 -60.832 -43.499 -78.499s-51.5 -26.5 -85.5 -26.5c-41.333 0 -74 12.667 -98 38s-36 58.333 -36 99v156c0 39.333 11.833 71.833 35.5 97.5s56.5 38.5 98.5 38.5c34 0 62.667 -9 86 -27s37.666 -43.333 42.999 -76l-57 -19
c-3.33301 19.333 -11.333 35.166 -24 47.499s-28.667 18.5 -48 18.5c-24 0 -42.333 -8.16699 -55 -24.5s-19 -34.5 -19 -54.5v-158c0 -20.667 6.5 -39 19.5 -55s31.167 -24 54.5 -24c38.667 0 62.667 22.333 72 67zM377.001 -7.99805c-50 0 -95.165 8.83301 -135.498 26.5
s-74.666 42.167 -102.999 73.5s-50 68.166 -65 110.499s-22.5 88.5 -22.5 138.5s7.66699 96.5 23 139.5s37.166 80.167 65.499 111.5s62.666 55.833 102.999 73.5s85.166 26.5 134.499 26.5c48.667 0 93 -8.83301 133 -26.5s74.333 -42.167 103 -73.5
s50.667 -68.5 66 -111.5s23 -89.5 23 -139.5s-7.66699 -96.167 -23 -138.5s-37.333 -79.166 -66 -110.499s-63 -55.833 -103 -73.5s-84.333 -26.5 -133 -26.5zM377.003 636.002c-41.333 0 -78.334 -7.66699 -111.001 -23s-60.5 -36.166 -83.5 -62.499
s-40.667 -57.5 -53 -93.5s-18.5 -74.667 -18.5 -116s6.33301 -79.666 19 -114.999s30.667 -66.333 54 -93s51.333 -47.5 84 -62.5s69 -22.5 109 -22.5c40.667 0 77.334 7.5 110.001 22.5s60.5 35.833 83.5 62.5s40.667 57.667 53 93s18.5 73.666 18.5 114.999
s-6.33301 80 -19 116s-30.5 67.167 -53.5 93.5s-50.833 47.166 -83.5 62.499s-69 23 -109 23z" />
    <glyph glyph-name="ordfeminine" unicode="&#xaa;" horiz-adv-x="309" 
d="M343 607l-65.002 -327.999h-63l6 28c-20 -21.333 -46 -32 -78 -32c-25.333 0 -45.666 8.16699 -60.999 24.5s-23 38.5 -23 66.5c0 14.667 1 29.667 3 45s4.33301 29.666 7 42.999c4.66699 21.333 10.5 41.333 17.5 60s15.833 35 26.5 49s23.834 25.167 39.501 33.5
s34.167 12.5 55.5 12.5c13.333 0 25.833 -2.33301 37.5 -7s21.167 -12 28.5 -22l5 27h64zM168.998 336.001c15.333 0 27.8311 4.83301 37.498 14.5s16.5 19.834 20.5 30.501c7.33301 18 13.333 36.833 18 56.5s8 38.167 10 55.5c1.33301 14 -1 26.833 -7 38.5
s-18.333 17.5 -37 17.5c-21.333 0 -38 -9 -50 -27c-5.33301 -8.66699 -10.666 -21.334 -15.999 -38.001s-9.66602 -33 -12.999 -49c-2 -10 -3.66699 -19.5 -5 -28.5s-2 -15.833 -2 -20.5c0 -15.333 3 -27.5 9 -36.5s17.667 -13.5 35 -13.5z" />
    <glyph glyph-name="guillemotleft" unicode="&#xab;" horiz-adv-x="447" 
d="M296 46l-80 186l151 186h80l-151 -187l77 -185h-77zM129 46l-80 186l151 186h80l-152 -187l78 -185h-77z" />
    <glyph glyph-name="logicalnot" unicode="&#xac;" horiz-adv-x="440" 
d="M396 85h-68l34 178h-332l12 62h401z" />
    <glyph glyph-name="sfthyphen" unicode="&#xad;" horiz-adv-x="369" 
d="M57 241l14 71h274l-14 -71h-274z" />
    <glyph glyph-name="registered" unicode="&#xae;" horiz-adv-x="523" 
d="M261 278c-30.667 0 -58.334 5.33301 -83.001 16s-45.834 25.5 -63.501 44.5s-31.167 41.5 -40.5 67.5s-14 54.333 -14 85s4.66699 59.167 14 85.5s22.833 49 40.5 68s38.834 34 63.501 45s52.334 16.5 83.001 16.5c30 0 57.167 -5.5 81.5 -16.5s45.333 -26 63 -45
s31.167 -41.667 40.5 -68s14 -54.833 14 -85.5s-4.66699 -59 -14 -85s-22.833 -48.5 -40.5 -67.5s-38.667 -33.833 -63 -44.5s-51.5 -16 -81.5 -16zM261 670c-25.333 0 -47.832 -4.66406 -67.499 -13.9971s-36.334 -22 -50.001 -38s-24.167 -34.833 -31.5 -56.5
s-11 -44.834 -11 -69.501c0 -25.333 3.83301 -48.833 11.5 -70.5s18.5 -40.334 32.5 -56.001s30.833 -27.834 50.5 -36.501s41.5 -13 65.5 -13c24.667 0 46.834 4.5 66.501 13.5s36.167 21.333 49.5 37s23.666 34.167 30.999 55.5s11 44.666 11 69.999
c0 24.667 -3.66699 47.834 -11 69.501s-18 40.5 -32 56.5s-30.667 28.667 -50 38s-41 14 -65 14zM305.001 362.003l-22 52.5l-22 52.5h-33v-105h-42v255h85c22 0 39.667 -6.5 53 -19.5s20 -31.5 20 -55.5c0 -32.667 -14 -55.667 -42 -69c8 -18.667 16.333 -37.167 25 -55.5
s17 -36.833 25 -55.5h-47zM302.001 542.003c0 12 -3.33398 21.167 -10.001 27.5s-15 9.5 -25 9.5h-39v-75h35c10.667 0 19.834 3 27.501 9s11.5 15.667 11.5 29z" />
    <glyph glyph-name="macron" unicode="&#xaf;" horiz-adv-x="428" 
d="M160 594l14 71h254l-15 -71h-253z" />
    <glyph glyph-name="degree" unicode="&#xb0;" horiz-adv-x="333" 
d="M286 584c0 -16 -3.16699 -31.167 -9.5 -45.5s-14.833 -26.833 -25.5 -37.5s-23.167 -19.167 -37.5 -25.5s-29.5 -9.5 -45.5 -9.5s-31.167 3.16699 -45.5 9.5s-26.833 14.833 -37.5 25.5s-19 23.167 -25 37.5s-9 29.5 -9 45.5s3 31.167 9 45.5s14.333 26.833 25 37.5
s23.167 19.167 37.5 25.5s29.5 9.5 45.5 9.5c17.333 0 33.166 -3.16699 47.499 -9.5s26.833 -14.833 37.5 -25.5s18.834 -23.167 24.501 -37.5s8.5 -29.5 8.5 -45.5zM236 584c0 19.333 -6.5 35.5 -19.5 48.5s-29.167 19.5 -48.5 19.5c-18.667 0 -34.667 -6.5 -48 -19.5
s-20 -29.167 -20 -48.5s6.5 -35.666 19.5 -48.999s29.167 -20 48.5 -20s35.5 6.66699 48.5 20s19.5 29.666 19.5 48.999z" />
    <glyph glyph-name="plusminus" unicode="&#xb1;" horiz-adv-x="440" 
d="M267 278l-33 -169h-62l33 169h-168l12 62h168l33 169h61l-32 -169h167l-12 -62h-167zM-17 0l12 62h397l-12 -62h-397z" />
    <glyph glyph-name="twosuperior" unicode="&#xb2;" horiz-adv-x="279" 
d="M36 371l10.0029 52.998l184 202c20.667 23.333 31.667 45.333 33 66c0.666992 11.333 -2.33301 21 -9 29s-18.334 12 -35.001 12c-30.667 0 -51.667 -22.333 -63 -67l-65 12c10.667 34.667 27.167 62 49.5 82s50.833 30 85.5 30c33.333 0 59.166 -8 77.499 -24
s26.5 -39.333 24.5 -70c-0.666992 -17.333 -5.33398 -34.166 -14.001 -50.499s-19.667 -32.166 -33 -47.499l-154 -167h148l-12 -60h-227z" />
    <glyph glyph-name="threesuperior" unicode="&#xb3;" horiz-adv-x="281" 
d="M324 708c0 -10 -1.16797 -21.002 -3.50098 -33.002s-6.16602 -23.5 -11.499 -34.5s-12.333 -21.333 -21 -31s-19.667 -17.5 -33 -23.5c14.667 -7.33301 24 -17 28 -29s6 -22.667 6 -32c0 -14.667 -1.83301 -31.167 -5.5 -49.5s-10.5 -35.5 -20.5 -51.5
s-24.167 -29.5 -42.5 -40.5s-41.833 -16.5 -70.5 -16.5c-27.333 0 -50.833 6.5 -70.5 19.5s-29.5 34.167 -29.5 63.5v13l62 9v-13c0 -26 14 -39 42 -39c14 0 25.667 2.83301 35 8.5s16.833 13 22.5 22s9.83398 19 12.501 30s4 22.167 4 33.5
c0 13.333 -3.83301 24.5 -11.5 33.5s-20.834 13.5 -39.501 13.5h-27l4 20l7 32h27c23.333 0 41.333 8.16699 54 24.5s19 35.833 19 58.5c0 10 -3.16699 19 -9.5 27s-16.5 12 -30.5 12c-13.333 0 -25.833 -4.16699 -37.5 -12.5s-19.5 -22.166 -23.5 -41.499l-61 9
c8 34 23.833 59 47.5 75s50.5 24 80.5 24c32 0 56.167 -7.66699 72.5 -23s24.5 -34.666 24.5 -57.999z" />
    <glyph glyph-name="acute" unicode="&#xb4;" horiz-adv-x="424" 
d="M258 572l104 173l71 -25l-130 -167z" />
    <glyph glyph-name="mu" unicode="&#xb5;" horiz-adv-x="449" 
d="M-21 -196l66.499 344.998l67.5 345h80l-64 -323c-2.66699 -14 -3.66699 -26.833 -3 -38.5s3.66699 -22 9 -31s13.333 -16 24 -21s24.667 -7.5 42 -7.5c32.667 0 57.834 12 75.501 36s30.167 53.333 37.5 88l58 297h79l-95 -494h-80
c1.33301 8.66699 2.83301 17.334 4.5 26.001s3.5 17.334 5.5 26.001h-3c-14.667 -18.667 -32.834 -32.667 -54.501 -42s-43.5 -14 -65.5 -14c-11.333 0 -22.166 1.5 -32.499 4.5s-19.833 7.83301 -28.5 14.5c-0.666992 0 -1 -0.166992 -1 -0.5s-0.333008 -0.5 -1 -0.5
l-42 -210h-79z" />
    <glyph glyph-name="mu" unicode="&#x3bc;" horiz-adv-x="449" 
d="M-21 -196l66.499 344.998l67.5 345h80l-64 -323c-2.66699 -14 -3.66699 -26.833 -3 -38.5s3.66699 -22 9 -31s13.333 -16 24 -21s24.667 -7.5 42 -7.5c32.667 0 57.834 12 75.501 36s30.167 53.333 37.5 88l58 297h79l-95 -494h-80
c1.33301 8.66699 2.83301 17.334 4.5 26.001s3.5 17.334 5.5 26.001h-3c-14.667 -18.667 -32.834 -32.667 -54.501 -42s-43.5 -14 -65.5 -14c-11.333 0 -22.166 1.5 -32.499 4.5s-19.833 7.83301 -28.5 14.5c-0.666992 0 -1 -0.166992 -1 -0.5s-0.333008 -0.5 -1 -0.5
l-42 -210h-79z" />
    <glyph glyph-name="paragraph" unicode="&#xb6;" horiz-adv-x="481" 
d="M206 324l-25.002 0.00195312c-17.333 0 -32.166 3.5 -44.499 10.5s-22.666 16.5 -30.999 28.5s-14.5 26 -18.5 42s-6 33 -6 51c0 27.333 4.33301 55.666 13 84.999s21.334 56.166 38.001 80.499s37.167 44.333 61.5 60s52.166 23.5 83.499 23.5h264l-14 -73h-44
l-139 -714h-71l139 714h-74l-138 -714h-72z" />
    <glyph glyph-name="periodcentered" unicode="&#xb7;" horiz-adv-x="216" 
d="M75 216l19 101h95l-19 -101h-95z" />
    <glyph glyph-name="cedilla" unicode="&#xb8;" horiz-adv-x="431" 
d="M197 29l-35.002 -76.0039c14.667 -1.33301 27 -4.16602 37 -8.49902s17.833 -9.66602 23.5 -15.999s9.66699 -13.166 12 -20.499s3.5 -14.666 3.5 -21.999c0 -10 -2 -20.5 -6 -31.5s-10.5 -21 -19.5 -30s-20.5 -16.5 -34.5 -22.5s-30.667 -9 -50 -9h-14.5
c-6.33301 0 -13.666 0.5 -21.999 1.5s-16.833 2.5 -25.5 4.5s-16.667 5 -24 9l20 42c11.333 -6 22.833 -9.83301 34.5 -11.5s21.834 -2.5 30.501 -2.5c13.333 0 25.333 3.5 36 10.5s16 17.167 16 30.5c0 24.667 -15.333 37 -46 37h-10l-15 15l49 102z" />
    <glyph glyph-name="onesuperior" unicode="&#xb9;" horiz-adv-x="241" 
d="M176 371h-62.999l68 350l-14.5 -9l-20.5 -13l-21 -13c-6.66699 -4 -11.334 -6.66699 -14.001 -8l14 66l71 44h61z" />
    <glyph glyph-name="ordmasculine" unicode="&#xba;" horiz-adv-x="296" 
d="M208 610c37.333 0 65.3311 -9.83301 83.998 -29.5s28 -43.5 28 -71.5c0 -13.333 -1.16699 -27.666 -3.5 -42.999s-5.16602 -29.333 -8.49902 -42c-10 -46 -25.833 -82.167 -47.5 -108.5s-54.5 -39.5 -98.5 -39.5c-19.333 0 -35.666 2.66699 -48.999 8
s-24.166 12.5 -32.499 21.5s-14.333 19.5 -18 31.5s-5.5 24.333 -5.5 37c0 17.333 1.16699 33.666 3.5 48.999s5.16602 29.666 8.49902 42.999c5.33301 20.667 11.5 39.834 18.5 57.501s15.167 32.167 24.5 43.5c10.667 13.333 24 23.833 40 31.5s34.667 11.5 56 11.5z
M206.998 554c-15.333 0 -29.333 -5.66895 -42 -17.002c-7.33301 -7.33301 -13.5 -16.666 -18.5 -27.999s-9.5 -23.666 -13.5 -36.999c-4 -14.667 -7.5 -30.167 -10.5 -46.5s-4.5 -29.833 -4.5 -40.5c0 -6.66699 0.5 -13 1.5 -19s3.33301 -11.5 7 -16.5s8.66699 -9 15 -12
s14.833 -4.5 25.5 -4.5c15.333 0 28 4.33301 38 13s17.667 20 23 34c7.33301 19.333 14 41 20 65s9 44.333 9 61c0 16 -4.83301 28 -14.5 36s-21.5 12 -35.5 12z" />
    <glyph glyph-name="guillemotright" unicode="&#xbb;" horiz-adv-x="447" 
d="M13 46l154 188l-81 184h77l82 -186l-154 -186h-78zM180 46l153 188l-80 184h77l82 -186l-154 -186h-78z" />
    <glyph glyph-name="onequarter" unicode="&#xbc;" horiz-adv-x="640" 
d="M522 61c-0.666992 -2 -1.5 -6 -2.5 -12s-2.16699 -12.167 -3.5 -18.5l-4 -18.5c-1.33301 -6 -2 -10.333 -2 -13h-62l12 62h-162l12 54l181 301h68l-181 -298h92l22 115h63l-22 -115h35l-11 -57h-35zM88 -17h-61l512 730h62zM184 279h-62.999l68 350l-14.5 -9l-20.5 -13
l-21 -13c-6.66699 -4 -11.334 -6.66699 -14.001 -8l14 66l71 44h61z" />
    <glyph glyph-name="onehalf" unicode="&#xbd;" horiz-adv-x="640" 
d="M318 -1l10.0029 52.998l184 202c20.667 23.333 31.667 45.333 33 66c0.666992 11.333 -2.33301 21 -9 29s-18.334 12 -35.001 12c-30.667 0 -51.667 -22.333 -63 -67l-65 12c10.667 34.667 27.167 62 49.5 82s50.833 30 85.5 30c33.333 0 59.166 -8 77.499 -24
s26.5 -39.333 24.5 -70c-0.666992 -17.333 -5.33398 -34.166 -14.001 -50.499s-19.667 -32.166 -33 -47.499l-154 -167h148l-12 -60h-227zM78.0029 -17.002h-61l512 730h62zM178.003 278.998h-62.999l68 350l-14.5 -9l-20.5 -13l-21 -13
c-6.66699 -4 -11.334 -6.66699 -14.001 -8l14 66l71 44h61z" />
    <glyph glyph-name="threequarters" unicode="&#xbe;" horiz-adv-x="640" 
d="M317 618c0 -10 -1.16797 -21.002 -3.50098 -33.002s-6.16602 -23.5 -11.499 -34.5s-12.333 -21.333 -21 -31s-19.667 -17.5 -33 -23.5c14.667 -7.33301 24 -17 28 -29s6 -22.667 6 -32c0 -14.667 -1.83301 -31.167 -5.5 -49.5s-10.5 -35.5 -20.5 -51.5
s-24.167 -29.5 -42.5 -40.5s-41.833 -16.5 -70.5 -16.5c-27.333 0 -50.833 6.5 -70.5 19.5s-29.5 34.167 -29.5 63.5v13l62 9v-13c0 -26 14 -39 42 -39c14 0 25.667 2.83301 35 8.5s16.833 13 22.5 22s9.83398 19 12.501 30s4 22.167 4 33.5
c0 13.333 -3.83301 24.5 -11.5 33.5s-20.834 13.5 -39.501 13.5h-27l4 20l7 32h27c23.333 0 41.333 8.16699 54 24.5s19 35.833 19 58.5c0 10 -3.16699 19 -9.5 27s-16.5 12 -30.5 12c-13.333 0 -25.833 -4.16699 -37.5 -12.5s-19.5 -22.166 -23.5 -41.499l-61 9
c8 34 23.833 59 47.5 75s50.5 24 80.5 24c32 0 56.167 -7.66699 72.5 -23s24.5 -34.666 24.5 -57.999zM546.999 60.998c-0.666992 -2 -1.5 -6 -2.5 -12s-2.16699 -12.167 -3.5 -18.5l-4 -18.5c-1.33301 -6 -2 -10.333 -2 -13h-62l12 62h-162l12 54l181 301h68l-181 -298h92
l22 115h63l-22 -115h35l-11 -57h-35zM119.999 -17.002h-61l512 730h62z" />
    <glyph glyph-name="questiondown" unicode="&#xbf;" horiz-adv-x="434" 
d="M198 -204c-48 0 -87.167 13.334 -117.5 40.001s-45.5 63 -45.5 109c0 20.667 2.16699 39.167 6.5 55.5s10.166 31.166 17.499 44.499s15.833 26 25.5 38s19.834 23.667 30.501 35l31.5 32c11 10.667 21.5 21.834 31.5 33.501s18.833 23.5 26.5 35.5
s12.834 24.333 15.501 37l12 60h83c-2 -11.333 -4.16699 -22.5 -6.5 -33.5s-4.83301 -22.167 -7.5 -33.5c-3.33301 -18 -10.333 -35.333 -21 -52s-22.667 -32.834 -36 -48.501s-27.333 -31.167 -42 -46.5s-28 -30.666 -40 -45.999s-22 -30.833 -30 -46.5
s-12 -31.834 -12 -48.501c0 -22.667 6.66699 -42.834 20 -60.501s35.666 -26.5 66.999 -26.5c16.667 0 31.5 3 44.5 9s24.167 14 33.5 24s16.833 21.667 22.5 35s9.5 27.333 11.5 42l83 -17c-13.333 -61.333 -37 -105.166 -71 -131.499s-78.333 -39.5 -133 -39.5z
M351 496.001l-18 -89h-84l18 89h84z" />
    <glyph glyph-name="Agrave" unicode="&#xc0;" horiz-adv-x="491" 
d="M360 0l-11 158h-221l-73 -158h-87l335 696h75l65 -696h-83zM330 413l-11 159h-3l-69 -157l-86 -182h183zM352 730l-172 93l40 61l157 -114z" />
    <glyph glyph-name="Aacute" unicode="&#xc1;" horiz-adv-x="491" 
d="M304 767l168 117l43 -59l-185 -97zM360 0l-11 158h-221l-73 -158h-87l335 696h75l65 -696h-83zM330 413l-11 159h-3l-69 -157l-86 -182h183z" />
    <glyph glyph-name="Acircumflex" unicode="&#xc2;" horiz-adv-x="491" 
d="M360 0l-11 158h-221l-73 -158h-87l335 696h75l65 -696h-83zM330 413l-11 159h-3l-69 -157l-86 -182h183zM354 815l-152 -82l-27 33l165 125h50l109 -123l-35 -33z" />
    <glyph glyph-name="Atilde" unicode="&#xc3;" horiz-adv-x="491" 
d="M360 0l-11 158h-221l-73 -158h-87l335 696h75l65 -696h-83zM330 413l-11 159h-3l-69 -157l-86 -182h183zM294 854c10.667 0 21.168 -2.16699 31.501 -6.5s20.5 -9 30.5 -14l29 -14c9.33301 -4.33301 18.333 -6.5 27 -6.5c9.33301 0 18.666 3 27.999 9s20 16.667 32 32
l43 -28c-16 -30.667 -33.667 -52 -53 -64s-37.666 -18 -54.999 -18c-11.333 0 -22.166 2 -32.499 6s-20.5 8.5 -30.5 13.5l-29 14c-9.33301 4.33301 -18.333 6.5 -27 6.5c-10 0 -19.167 -3.5 -27.5 -10.5s-18.833 -17.167 -31.5 -30.5l-45 30c15.333 26 32.666 46 51.999 60
s38.666 21 57.999 21z" />
    <glyph glyph-name="Adieresis" unicode="&#xc4;" horiz-adv-x="491" 
d="M360 0l-11 158h-221l-73 -158h-87l335 696h75l65 -696h-83zM330 413l-11 159h-3l-69 -157l-86 -182h183zM394 748l16 84h78l-16 -84h-78zM227 748l16 84h78l-16 -84h-78z" />
    <glyph glyph-name="Aring" unicode="&#xc5;" horiz-adv-x="491" 
d="M360 0l-11 158h-221l-73 -158h-87l335 696h75l65 -696h-83zM330 413l-11 159h-3l-69 -157l-86 -182h183zM349 712c-23.333 0 -42.3311 7.33398 -56.998 22.001s-22 33 -22 55c0 14.667 3 28.667 9 42s14.167 25.166 24.5 35.499s22.333 18.5 36 24.5s28.5 9 44.5 9
c23.333 0 42.333 -7.33301 57 -22s22 -33 22 -55c0 -16 -3.33301 -30.833 -10 -44.5s-15.334 -25.5 -26.001 -35.5s-22.834 -17.667 -36.501 -23s-27.5 -8 -41.5 -8zM375.002 857.001c-16 0 -30.168 -6.16602 -42.501 -18.499s-18.5 -26.5 -18.5 -42.5
c0 -12.667 3.83301 -22.834 11.5 -30.501s17.834 -11.5 30.501 -11.5c16 0 30.333 6 43 18s19 26.667 19 44c0 11.333 -4 21 -12 29s-18.333 12 -31 12z" />
    <glyph glyph-name="AE" unicode="&#xc6;" horiz-adv-x="801" 
d="M397 193h-207l-122 -193h-86l220 348l220 348h415l-11 -78h-285l-33 -228h245l-10 -75h-245l-33 -235h286l-11 -80h-370zM238 268h169l52 351h-2z" />
    <glyph glyph-name="Ccedilla" unicode="&#xc7;" horiz-adv-x="469" 
d="M331 701c57.333 0 100.332 -14.0039 128.999 -42.0039s44.334 -65 47.001 -111l-84 -25c0 30 -8 54 -24 72s-39 27 -69 27c-22 0 -40.5 -3.16699 -55.5 -9.5s-27.667 -14.833 -38 -25.5s-18.833 -22.667 -25.5 -36s-12.334 -27 -17.001 -41
c-11.333 -38 -20.5 -77.5 -27.5 -118.5s-14.5 -81.5 -22.5 -121.5c-3.33301 -16 -6.5 -32.667 -9.5 -50s-4.5 -33.333 -4.5 -48s1.5 -28 4.5 -40s8.16699 -22.5 15.5 -31.5s17 -16 29 -21s27.333 -7.5 46 -7.5c31.333 0 58.666 8.83301 81.999 26.5s40.666 43.5 51.999 77.5
l80 -31c-17.333 -48 -43.5 -84.833 -78.5 -110.5s-78.167 -39.167 -129.5 -40.5l-19 -41c14.667 -1.33301 27 -4.16602 37 -8.49902s17.833 -9.66602 23.5 -15.999s9.66699 -13.166 12 -20.499s3.5 -14.666 3.5 -21.999c0 -10 -2 -20.5 -6 -31.5s-10.5 -21 -19.5 -30
s-20.5 -16.5 -34.5 -22.5s-30.667 -9 -50 -9h-14.5c-6.33301 0 -13.666 0.5 -21.999 1.5s-16.833 2.5 -25.5 4.5s-16.667 5 -24 9l20 42c11.333 -6 22.833 -9.83301 34.5 -11.5s21.834 -2.5 30.501 -2.5c13.333 0 25.333 3.5 36 10.5s16 17.167 16 30.5
c0 24.667 -15.333 37 -46 37h-10l-15 15l32 67c-49.333 5.33301 -85.666 23 -108.999 53s-35 67 -35 111c0 12.667 1.66699 30.5 5 53.5s7 45.167 11 66.5l17 85l17 85c6 31.333 14 62 24 92s23.833 56.833 41.5 80.5s40.167 42.667 67.5 57s61.333 21.5 102 21.5z" />
    <glyph glyph-name="Egrave" unicode="&#xc8;" horiz-adv-x="449" 
d="M24 0l135 696h365l-16 -77h-282l-44 -229h242l-14 -75h-242l-47 -238h282l-14 -77h-365zM365 730l-172 93l40 61l157 -114z" />
    <glyph glyph-name="Eacute" unicode="&#xc9;" horiz-adv-x="449" 
d="M294 767l168 117l43 -59l-185 -97zM24 0l135 696h365l-16 -77h-282l-44 -229h242l-14 -75h-242l-47 -238h282l-14 -77h-365z" />
    <glyph glyph-name="Ecircumflex" unicode="&#xca;" horiz-adv-x="449" 
d="M24 0l135 696h365l-16 -77h-282l-44 -229h242l-14 -75h-242l-47 -238h282l-14 -77h-365zM362 815l-152 -82l-27 33l165 125h50l109 -123l-35 -33z" />
    <glyph glyph-name="Edieresis" unicode="&#xcb;" horiz-adv-x="449" 
d="M24 0l135 696h365l-16 -77h-282l-44 -229h242l-14 -75h-242l-47 -238h282l-14 -77h-365zM387 748l16 84h78l-16 -84h-78zM220 748l16 84h78l-16 -84h-78z" />
    <glyph glyph-name="Igrave" unicode="&#xcc;" horiz-adv-x="214" 
d="M25 0l136 696h83l-135 -696h-84zM217 730l-172 93l40 61l157 -114z" />
    <glyph glyph-name="Iacute" unicode="&#xcd;" horiz-adv-x="214" 
d="M185 767l168 117l43 -59l-185 -97zM25 0l136 696h83l-135 -696h-84z" />
    <glyph glyph-name="Icircumflex" unicode="&#xce;" horiz-adv-x="214" 
d="M25 0l136 696h83l-135 -696h-84zM225 815l-152 -82l-27 33l165 125h50l109 -123l-35 -33z" />
    <glyph glyph-name="Idieresis" unicode="&#xcf;" horiz-adv-x="214" 
d="M256 757l16 84h77l-16 -84h-77zM91 757l16 84h77l-16 -84h-77zM25 0l136 696h83l-135 -696h-84z" />
    <glyph glyph-name="Eth" unicode="&#xd0;" horiz-adv-x="515" 
d="M35 391h63.999l59 305h183c54 0 97.167 -12.333 129.5 -37s48.5 -63.334 48.5 -116.001c0 -20.667 -2.33301 -49 -7 -85s-10.667 -74 -18 -114c-4 -24 -8.5 -48 -13.5 -72s-10.167 -46.5 -15.5 -67.5s-10.666 -39.667 -15.999 -56s-10.333 -29.166 -15 -38.499
c-24.667 -44 -54 -73.333 -88 -88s-72 -22 -114 -22h-209l64 329h-64zM419.999 398c2 10 3.99902 21.001 5.99902 33.001s3.83301 23.5 5.5 34.5l4.5 30.5c1.33301 9.33301 2 16.333 2 21c2 31.333 -5.33301 56.166 -22 74.499s-45.667 27.5 -87 27.5h-103l-44 -228h82
l-13 -62h-81l-50 -253h103c28 0 51.333 3.5 70 10.5s34.334 17 47.001 30s22.5 28.833 29.5 47.5s12.833 39.667 17.5 63z" />
    <glyph glyph-name="Ntilde" unicode="&#xd1;" horiz-adv-x="555" 
d="M375 0l-124 378l-44 139h-3l-99 -517h-83l136 696h80l121 -370l46 -142h3l99 512h82l-135 -696h-79zM332 849c10.667 0 21.168 -2.16699 31.501 -6.5s20.5 -9 30.5 -14l29 -14c9.33301 -4.33301 18.333 -6.5 27 -6.5c9.33301 0 18.666 3 27.999 9s20 16.667 32 32l43 -28
c-16 -30.667 -33.667 -52 -53 -64s-37.666 -18 -54.999 -18c-11.333 0 -22.166 2 -32.499 6s-20.5 8.5 -30.5 13.5l-29 14c-9.33301 4.33301 -18.333 6.5 -27 6.5c-10 0 -19.167 -3.5 -27.5 -10.5s-18.833 -17.167 -31.5 -30.5l-45 30c15.333 26 32.666 46 51.999 60
s38.666 21 57.999 21z" />
    <glyph glyph-name="Ograve" unicode="&#xd2;" horiz-adv-x="497" 
d="M454 203c-12.667 -67.333 -37.668 -119 -75.001 -155s-86.333 -54 -147 -54c-38 0 -70 6.16699 -96 18.5s-46.333 28.833 -61 49.5s-24 44.5 -28 71.5s-3.33301 55.167 2 84.5l54 276c4.66699 23.333 11.834 47.333 21.501 72s23.334 47 41.001 67s39.667 36.333 66 49
s58.166 19 95.499 19c36 0 66.333 -6.33301 91 -19s44.167 -29 58.5 -49s23.833 -42.5 28.5 -67.5s4.66699 -50.167 0 -75.5zM424.999 490c2 10.667 2.49902 23.5 1.49902 38.5s-5.16699 29.5 -12.5 43.5s-18.833 25.833 -34.5 35.5s-37.167 14.5 -64.5 14.5
c-22.667 0 -41.667 -4.5 -57 -13.5s-28.166 -20 -38.499 -33s-18.166 -27.167 -23.499 -42.5s-9.33301 -29.333 -12 -42l-52 -275c-4 -18.667 -5.33301 -36.667 -4 -54s5.66602 -32.833 12.999 -46.5s18.5 -24.5 33.5 -32.5s34.5 -12 58.5 -12c35.333 0 64.833 11 88.5 33
s39.167 52.333 46.5 91zM401.998 730l-172 93l40 61l157 -114z" />
    <glyph glyph-name="Oacute" unicode="&#xd3;" horiz-adv-x="497" 
d="M454 203c-12.667 -67.333 -37.668 -119 -75.001 -155s-86.333 -54 -147 -54c-38 0 -70 6.16699 -96 18.5s-46.333 28.833 -61 49.5s-24 44.5 -28 71.5s-3.33301 55.167 2 84.5l54 276c4.66699 23.333 11.834 47.333 21.501 72s23.334 47 41.001 67s39.667 36.333 66 49
s58.166 19 95.499 19c36 0 66.333 -6.33301 91 -19s44.167 -29 58.5 -49s23.833 -42.5 28.5 -67.5s4.66699 -50.167 0 -75.5zM424.999 490c2 10.667 2.49902 23.5 1.49902 38.5s-5.16699 29.5 -12.5 43.5s-18.833 25.833 -34.5 35.5s-37.167 14.5 -64.5 14.5
c-22.667 0 -41.667 -4.5 -57 -13.5s-28.166 -20 -38.499 -33s-18.166 -27.167 -23.499 -42.5s-9.33301 -29.333 -12 -42l-52 -275c-4 -18.667 -5.33301 -36.667 -4 -54s5.66602 -32.833 12.999 -46.5s18.5 -24.5 33.5 -32.5s34.5 -12 58.5 -12c35.333 0 64.833 11 88.5 33
s39.167 52.333 46.5 91zM303.998 766l84 59l84 59l42 -59l-92 -49l-93 -49z" />
    <glyph glyph-name="Ocircumflex" unicode="&#xd4;" horiz-adv-x="497" 
d="M454 203c-12.667 -67.333 -37.668 -119 -75.001 -155s-86.333 -54 -147 -54c-38 0 -70 6.16699 -96 18.5s-46.333 28.833 -61 49.5s-24 44.5 -28 71.5s-3.33301 55.167 2 84.5l54 276c4.66699 23.333 11.834 47.333 21.501 72s23.334 47 41.001 67s39.667 36.333 66 49
s58.166 19 95.499 19c36 0 66.333 -6.33301 91 -19s44.167 -29 58.5 -49s23.833 -42.5 28.5 -67.5s4.66699 -50.167 0 -75.5zM424.999 490c2 10.667 2.49902 23.5 1.49902 38.5s-5.16699 29.5 -12.5 43.5s-18.833 25.833 -34.5 35.5s-37.167 14.5 -64.5 14.5
c-22.667 0 -41.667 -4.5 -57 -13.5s-28.166 -20 -38.499 -33s-18.166 -27.167 -23.499 -42.5s-9.33301 -29.333 -12 -42l-52 -275c-4 -18.667 -5.33301 -36.667 -4 -54s5.66602 -32.833 12.999 -46.5s18.5 -24.5 33.5 -32.5s34.5 -12 58.5 -12c35.333 0 64.833 11 88.5 33
s39.167 52.333 46.5 91zM366.998 815l-152 -82l-27 33l165 125h50l109 -123l-35 -33z" />
    <glyph glyph-name="Otilde" unicode="&#xd5;" horiz-adv-x="497" 
d="M454 203c-12.667 -67.333 -37.668 -119 -75.001 -155s-86.333 -54 -147 -54c-38 0 -70 6.16699 -96 18.5s-46.333 28.833 -61 49.5s-24 44.5 -28 71.5s-3.33301 55.167 2 84.5l54 276c4.66699 23.333 11.834 47.333 21.501 72s23.334 47 41.001 67s39.667 36.333 66 49
s58.166 19 95.499 19c36 0 66.333 -6.33301 91 -19s44.167 -29 58.5 -49s23.833 -42.5 28.5 -67.5s4.66699 -50.167 0 -75.5zM424.999 490c2 10.667 2.49902 23.5 1.49902 38.5s-5.16699 29.5 -12.5 43.5s-18.833 25.833 -34.5 35.5s-37.167 14.5 -64.5 14.5
c-22.667 0 -41.667 -4.5 -57 -13.5s-28.166 -20 -38.499 -33s-18.166 -27.167 -23.499 -42.5s-9.33301 -29.333 -12 -42l-52 -275c-4 -18.667 -5.33301 -36.667 -4 -54s5.66602 -32.833 12.999 -46.5s18.5 -24.5 33.5 -32.5s34.5 -12 58.5 -12c35.333 0 64.833 11 88.5 33
s39.167 52.333 46.5 91zM310.998 854c10.667 0 21.168 -2.16699 31.501 -6.5s20.5 -9 30.5 -14l29 -14c9.33301 -4.33301 18.333 -6.5 27 -6.5c9.33301 0 18.666 3 27.999 9s20 16.667 32 32l43 -28c-16 -30.667 -33.667 -52 -53 -64s-37.666 -18 -54.999 -18
c-11.333 0 -22.166 2 -32.499 6s-20.5 8.5 -30.5 13.5l-29 14c-9.33301 4.33301 -18.333 6.5 -27 6.5c-10 0 -19.167 -3.5 -27.5 -10.5s-18.833 -17.167 -31.5 -30.5l-45 30c15.333 26 32.666 46 51.999 60s38.666 21 57.999 21z" />
    <glyph glyph-name="Odieresis" unicode="&#xd6;" horiz-adv-x="497" 
d="M454 203c-12.667 -67.333 -37.668 -119 -75.001 -155s-86.333 -54 -147 -54c-38 0 -70 6.16699 -96 18.5s-46.333 28.833 -61 49.5s-24 44.5 -28 71.5s-3.33301 55.167 2 84.5l54 276c4.66699 23.333 11.834 47.333 21.501 72s23.334 47 41.001 67s39.667 36.333 66 49
s58.166 19 95.499 19c36 0 66.333 -6.33301 91 -19s44.167 -29 58.5 -49s23.833 -42.5 28.5 -67.5s4.66699 -50.167 0 -75.5zM424.999 490c2 10.667 2.49902 23.5 1.49902 38.5s-5.16699 29.5 -12.5 43.5s-18.833 25.833 -34.5 35.5s-37.167 14.5 -64.5 14.5
c-22.667 0 -41.667 -4.5 -57 -13.5s-28.166 -20 -38.499 -33s-18.166 -27.167 -23.499 -42.5s-9.33301 -29.333 -12 -42l-52 -275c-4 -18.667 -5.33301 -36.667 -4 -54s5.66602 -32.833 12.999 -46.5s18.5 -24.5 33.5 -32.5s34.5 -12 58.5 -12c35.333 0 64.833 11 88.5 33
s39.167 52.333 46.5 91zM399.998 748l16 84h78l-16 -84h-78zM232.998 748l16 84h78l-16 -84h-78z" />
    <glyph glyph-name="multiply" unicode="&#xd7;" horiz-adv-x="484" 
d="M297 260l118 -152l-48 -38l-119 151l-180 -148l-37 49l180 148l-116 147l48 38l116 -147l180 148l37 -49z" />
    <glyph glyph-name="Oslash" unicode="&#xd8;" horiz-adv-x="497" 
d="M454 203c-12.667 -67.333 -37.668 -119 -75.001 -155s-86.333 -54 -147 -54c-31.333 0 -58.5 4 -81.5 12s-42.167 19.333 -57.5 34l-33 -47l-33 25l39 57c-11.333 20 -18.333 42.167 -21 66.5s-1.33398 49.833 3.99902 76.5l54 276
c4.66699 23.333 11.834 47.333 21.501 72s23.334 47 41.001 67s39.667 36.333 66 49s58.166 19 95.499 19c31.333 0 58.333 -4.83301 81 -14.5s41.334 -22.5 56.001 -38.5l38 54l36 -25l-47 -68c8.66699 -18 14 -37.167 16 -57.5s1.33301 -40.833 -2 -61.5zM131.999 216
c-4 -16.667 -5.33398 -34.332 -4.00098 -52.999l285 411c-7.33301 13.333 -18.833 24.666 -34.5 33.999s-36.834 14 -63.501 14c-22.667 0 -41.667 -4.5 -57 -13.5s-28.166 -20 -38.499 -33s-18.166 -27.167 -23.499 -42.5s-9.33301 -29.333 -12 -42zM424.998 490.002
c0.666992 4 1.33301 8.33301 2 13s0.666992 9.66699 0 15l-284 -407c7.33301 -12 18.333 -21.667 33 -29s33.667 -11 57 -11c35.333 0 64.833 11 88.5 33s39.167 52.333 46.5 91z" />
    <glyph glyph-name="Ugrave" unicode="&#xd9;" horiz-adv-x="513" 
d="M552 696l-45.001 -229.997l-44 -229c-6 -34.667 -15 -66.834 -27 -96.501s-27.5 -55.334 -46.5 -77.001s-42 -38.667 -69 -51s-58.833 -18.5 -95.5 -18.5c-39.333 0 -70.833 6.16699 -94.5 18.5s-41.5 28.833 -53.5 49.5s-19.167 44.167 -21.5 70.5
s-1.16602 53.5 3.50098 81.5l22.5 118.5l25 130l24 126l20.5 107.5h82l-21 -107.5l-25 -130l-25.5 -132l-21.5 -113.5c-3.33301 -16 -5 -32.167 -5 -48.5s3 -31 9 -44s15.5 -23.5 28.5 -31.5s30.5 -12 52.5 -12c26 0 48 4.5 66 13.5s33 21.167 45 36.5
s21.5 33.166 28.5 53.499s12.5 41.5 16.5 63.5l88 452h83zM392.999 730.003l-172 93l40 61l157 -114z" />
    <glyph glyph-name="Uacute" unicode="&#xda;" horiz-adv-x="513" 
d="M552 696l-45.001 -229.997l-44 -229c-6 -34.667 -15 -66.834 -27 -96.501s-27.5 -55.334 -46.5 -77.001s-42 -38.667 -69 -51s-58.833 -18.5 -95.5 -18.5c-39.333 0 -70.833 6.16699 -94.5 18.5s-41.5 28.833 -53.5 49.5s-19.167 44.167 -21.5 70.5
s-1.16602 53.5 3.50098 81.5l22.5 118.5l25 130l24 126l20.5 107.5h82l-21 -107.5l-25 -130l-25.5 -132l-21.5 -113.5c-3.33301 -16 -5 -32.167 -5 -48.5s3 -31 9 -44s15.5 -23.5 28.5 -31.5s30.5 -12 52.5 -12c26 0 48 4.5 66 13.5s33 21.167 45 36.5
s21.5 33.166 28.5 53.499s12.5 41.5 16.5 63.5l88 452h83zM307.999 766.003l84 59l84 59l42 -59l-92 -49l-93 -49z" />
    <glyph glyph-name="Ucircumflex" unicode="&#xdb;" horiz-adv-x="513" 
d="M552 696l-45.001 -229.997l-44 -229c-6 -34.667 -15 -66.834 -27 -96.501s-27.5 -55.334 -46.5 -77.001s-42 -38.667 -69 -51s-58.833 -18.5 -95.5 -18.5c-39.333 0 -70.833 6.16699 -94.5 18.5s-41.5 28.833 -53.5 49.5s-19.167 44.167 -21.5 70.5
s-1.16602 53.5 3.50098 81.5l22.5 118.5l25 130l24 126l20.5 107.5h82l-21 -107.5l-25 -130l-25.5 -132l-21.5 -113.5c-3.33301 -16 -5 -32.167 -5 -48.5s3 -31 9 -44s15.5 -23.5 28.5 -31.5s30.5 -12 52.5 -12c26 0 48 4.5 66 13.5s33 21.167 45 36.5
s21.5 33.166 28.5 53.499s12.5 41.5 16.5 63.5l88 452h83zM380.999 815.003l-152 -82l-27 33l165 125h50l109 -123l-35 -33z" />
    <glyph glyph-name="Udieresis" unicode="&#xdc;" horiz-adv-x="513" 
d="M552 696l-45.001 -229.997l-44 -229c-6 -34.667 -15 -66.834 -27 -96.501s-27.5 -55.334 -46.5 -77.001s-42 -38.667 -69 -51s-58.833 -18.5 -95.5 -18.5c-39.333 0 -70.833 6.16699 -94.5 18.5s-41.5 28.833 -53.5 49.5s-19.167 44.167 -21.5 70.5
s-1.16602 53.5 3.50098 81.5l22.5 118.5l25 130l24 126l20.5 107.5h82l-21 -107.5l-25 -130l-25.5 -132l-21.5 -113.5c-3.33301 -16 -5 -32.167 -5 -48.5s3 -31 9 -44s15.5 -23.5 28.5 -31.5s30.5 -12 52.5 -12c26 0 48 4.5 66 13.5s33 21.167 45 36.5
s21.5 33.166 28.5 53.499s12.5 41.5 16.5 63.5l88 452h83zM232.999 748.003l16 84h78l-16 -84h-78zM399.999 748.003l16 84h78l-16 -84h-78z" />
    <glyph glyph-name="Yacute" unicode="&#xdd;" horiz-adv-x="437" 
d="M253 386l72 122.998l54.5 94l54.5 93h89l-249 -405l-57 -291h-80l57 291l-46 202.5l-46 202.5h81l48 -235c2.66699 -9.33301 5.5 -21.166 8.5 -35.499s5.83301 -27.166 8.5 -38.499zM256 765.998l84 59l84 59l42 -59l-92 -49l-93 -49z" />
    <glyph glyph-name="Thorn" unicode="&#xde;" horiz-adv-x="484" 
d="M136 148l-27.9971 -147.999h-84l134 694h83l-12 -65c-4 -22 -8.33301 -43.667 -13 -65h116c52.667 0 93.167 -13.333 121.5 -40s42.5 -64.334 42.5 -113.001c0 -30 -3.83301 -60.5 -11.5 -91.5s-20.834 -59.333 -39.501 -85s-43.334 -46.5 -74.001 -62.5
s-69.334 -24 -116.001 -24h-119zM265.003 225.001c26 0 48.167 5 66.5 15s33.333 23 45 39s20.167 33.833 25.5 53.5s8 39.167 8 58.5c0 26 -7.5 48.333 -22.5 67s-39.5 28 -73.5 28h-112l-51 -261h114z" />
    <glyph glyph-name="germandbls" unicode="&#xdf;" horiz-adv-x="441" 
d="M356 419c21.333 -9.33301 35.834 -22.8359 43.501 -40.5029s11.5 -37.834 11.5 -60.501c0 -14.667 -1.16699 -30 -3.5 -46s-4.5 -32 -6.5 -48c-4 -30 -10.167 -58.833 -18.5 -86.5s-20.166 -52 -35.499 -73s-34.833 -37.833 -58.5 -50.5s-53.167 -19 -88.5 -19h-37l13 69
h13c24 0 43.833 5.16699 59.5 15.5s28.167 23.833 37.5 40.5s16.666 35.834 21.999 57.501s9.66602 43.834 12.999 66.501c2 12.667 3.5 26.834 4.5 42.501s0 30.5 -3 44.5s-8.66699 25.667 -17 35s-21.166 14 -38.499 14h-24l14 70h19c17.333 0 31.833 4 43.5 12
s21.167 18 28.5 30s12.5 25.167 15.5 39.5s4.5 27.833 4.5 40.5c0 23.333 -6.16699 42.166 -18.5 56.499s-31.5 21.5 -57.5 21.5c-16 0 -29.5 -3.33301 -40.5 -10s-20.167 -15.5 -27.5 -26.5s-13.166 -23.333 -17.499 -37s-7.83301 -27.5 -10.5 -41.5l-105 -535h-79l103 531
c5.33301 28.667 12.666 54.667 21.999 78s21.166 43.5 35.499 60.5s31.833 30.167 52.5 39.5s45 14 73 14c53.333 0 92 -13.5 116 -40.5s36 -63.167 36 -108.5c0 -37.333 -8 -69.166 -24 -95.499s-39.333 -46.166 -70 -59.499z" />
    <glyph glyph-name="agrave" unicode="&#xe0;" horiz-adv-x="447" 
d="M440 495l-96 -494.999h-79l9 46c-0.666992 0 -1.16699 0.166992 -1.5 0.5s-0.833008 0.5 -1.5 0.5c-16.667 -18.667 -33.167 -32.167 -49.5 -40.5s-38.166 -12.5 -65.499 -12.5c-40.667 0 -70.834 13.333 -90.501 40s-29.5 62.667 -29.5 108c0 18 1.33301 37.167 4 57.5
s5.66699 39.166 9 56.499c6.66699 33.333 15 64.833 25 94.5s22.667 55.5 38 77.5s34 39.5 56 52.5s48 19.5 78 19.5c22 0 42.333 -4.5 61 -13.5s33 -22.167 43 -39.5c0.666992 0 1 0.166992 1 0.5s0.333008 0.5 1 0.5l10 47h78zM190 73.001
c23.333 0 42.834 7.83008 58.501 23.4971s27.167 32.834 34.5 51.501c6 15.333 11.667 31.833 17 49.5s9.83301 35 13.5 52s6.66699 33.5 9 49.5s3.5 30.333 3.5 43c0 24.667 -5.83301 44 -17.5 58s-29.5 21 -53.5 21c-16 0 -30.833 -3.5 -44.5 -10.5
s-25.834 -18.833 -36.501 -35.5c-8 -12 -15.5 -29 -22.5 -51s-13.167 -45 -18.5 -69c-4 -19.333 -7.33301 -37.166 -10 -53.499s-4 -30.5 -4 -42.5c0 -11.333 1 -22.166 3 -32.499s5.66699 -19.5 11 -27.5s12.5 -14.333 21.5 -19s20.833 -7 35.5 -7zM292.001 549.998
l-96 171l67 28l72 -180z" />
    <glyph glyph-name="aacute" unicode="&#xe1;" horiz-adv-x="447" 
d="M440 495l-96 -494.999h-79l9 46c-0.666992 0 -1.16699 0.166992 -1.5 0.5s-0.833008 0.5 -1.5 0.5c-16.667 -18.667 -33.167 -32.167 -49.5 -40.5s-38.166 -12.5 -65.499 -12.5c-40.667 0 -70.834 13.333 -90.501 40s-29.5 62.667 -29.5 108c0 18 1.33301 37.167 4 57.5
s5.66699 39.166 9 56.499c6.66699 33.333 15 64.833 25 94.5s22.667 55.5 38 77.5s34 39.5 56 52.5s48 19.5 78 19.5c22 0 42.333 -4.5 61 -13.5s33 -22.167 43 -39.5c0.666992 0 1 0.166992 1 0.5s0.333008 0.5 1 0.5l10 47h78zM190 73.001
c23.333 0 42.834 7.83008 58.501 23.4971s27.167 32.834 34.5 51.501c6 15.333 11.667 31.833 17 49.5s9.83301 35 13.5 52s6.66699 33.5 9 49.5s3.5 30.333 3.5 43c0 24.667 -5.83301 44 -17.5 58s-29.5 21 -53.5 21c-16 0 -30.833 -3.5 -44.5 -10.5
s-25.834 -18.833 -36.501 -35.5c-8 -12 -15.5 -29 -22.5 -51s-13.167 -45 -18.5 -69c-4 -19.333 -7.33301 -37.166 -10 -53.499s-4 -30.5 -4 -42.5c0 -11.333 1 -22.166 3 -32.499s5.66699 -19.5 11 -27.5s12.5 -14.333 21.5 -19s20.833 -7 35.5 -7zM243.001 571.998
l104 173l71 -25l-130 -167z" />
    <glyph glyph-name="acircumflex" unicode="&#xe2;" horiz-adv-x="447" 
d="M440 495l-96 -494.999h-79l9 46c-0.666992 0 -1.16699 0.166992 -1.5 0.5s-0.833008 0.5 -1.5 0.5c-16.667 -18.667 -33.167 -32.167 -49.5 -40.5s-38.166 -12.5 -65.499 -12.5c-40.667 0 -70.834 13.333 -90.501 40s-29.5 62.667 -29.5 108c0 18 1.33301 37.167 4 57.5
s5.66699 39.166 9 56.499c6.66699 33.333 15 64.833 25 94.5s22.667 55.5 38 77.5s34 39.5 56 52.5s48 19.5 78 19.5c22 0 42.333 -4.5 61 -13.5s33 -22.167 43 -39.5c0.666992 0 1 0.166992 1 0.5s0.333008 0.5 1 0.5l10 47h78zM190 73.001
c23.333 0 42.834 7.83008 58.501 23.4971s27.167 32.834 34.5 51.501c6 15.333 11.667 31.833 17 49.5s9.83301 35 13.5 52s6.66699 33.5 9 49.5s3.5 30.333 3.5 43c0 24.667 -5.83301 44 -17.5 58s-29.5 21 -53.5 21c-16 0 -30.833 -3.5 -44.5 -10.5
s-25.834 -18.833 -36.501 -35.5c-8 -12 -15.5 -29 -22.5 -51s-13.167 -45 -18.5 -69c-4 -19.333 -7.33301 -37.166 -10 -53.499s-4 -30.5 -4 -42.5c0 -11.333 1 -22.166 3 -32.499s5.66699 -19.5 11 -27.5s12.5 -14.333 21.5 -19s20.833 -7 35.5 -7zM318.001 655.998
l-151 -104l-32 33l168 146h50l106 -144l-43 -34z" />
    <glyph glyph-name="atilde" unicode="&#xe3;" horiz-adv-x="447" 
d="M440 495l-96 -494.999h-79l9 46c-0.666992 0 -1.16699 0.166992 -1.5 0.5s-0.833008 0.5 -1.5 0.5c-16.667 -18.667 -33.167 -32.167 -49.5 -40.5s-38.166 -12.5 -65.499 -12.5c-40.667 0 -70.834 13.333 -90.501 40s-29.5 62.667 -29.5 108c0 18 1.33301 37.167 4 57.5
s5.66699 39.166 9 56.499c6.66699 33.333 15 64.833 25 94.5s22.667 55.5 38 77.5s34 39.5 56 52.5s48 19.5 78 19.5c22 0 42.333 -4.5 61 -13.5s33 -22.167 43 -39.5c0.666992 0 1 0.166992 1 0.5s0.333008 0.5 1 0.5l10 47h78zM190 73.001
c23.333 0 42.834 7.83008 58.501 23.4971s27.167 32.834 34.5 51.501c6 15.333 11.667 31.833 17 49.5s9.83301 35 13.5 52s6.66699 33.5 9 49.5s3.5 30.333 3.5 43c0 24.667 -5.83301 44 -17.5 58s-29.5 21 -53.5 21c-16 0 -30.833 -3.5 -44.5 -10.5
s-25.834 -18.833 -36.501 -35.5c-8 -12 -15.5 -29 -22.5 -51s-13.167 -45 -18.5 -69c-4 -19.333 -7.33301 -37.166 -10 -53.499s-4 -30.5 -4 -42.5c0 -11.333 1 -22.166 3 -32.499s5.66699 -19.5 11 -27.5s12.5 -14.333 21.5 -19s20.833 -7 35.5 -7zM257.001 688.998
c10.667 0 21.168 -2.16699 31.501 -6.5s20.5 -9 30.5 -14l29 -14c9.33301 -4.33301 18.333 -6.5 27 -6.5c9.33301 0 18.666 3 27.999 9s20 16.667 32 32l43 -28c-16 -30.667 -33.667 -52 -53 -64s-37.666 -18 -54.999 -18c-11.333 0 -22.166 2 -32.499 6
s-20.5 8.5 -30.5 13.5l-29 14c-9.33301 4.33301 -18.333 6.5 -27 6.5c-10 0 -19.167 -3.5 -27.5 -10.5s-18.833 -17.167 -31.5 -30.5l-45 30c15.333 26 32.666 46 51.999 60s38.666 21 57.999 21z" />
    <glyph glyph-name="adieresis" unicode="&#xe4;" horiz-adv-x="447" 
d="M440 495l-96 -494.999h-79l9 46c-0.666992 0 -1.16699 0.166992 -1.5 0.5s-0.833008 0.5 -1.5 0.5c-16.667 -18.667 -33.167 -32.167 -49.5 -40.5s-38.166 -12.5 -65.499 -12.5c-40.667 0 -70.834 13.333 -90.501 40s-29.5 62.667 -29.5 108c0 18 1.33301 37.167 4 57.5
s5.66699 39.166 9 56.499c6.66699 33.333 15 64.833 25 94.5s22.667 55.5 38 77.5s34 39.5 56 52.5s48 19.5 78 19.5c22 0 42.333 -4.5 61 -13.5s33 -22.167 43 -39.5c0.666992 0 1 0.166992 1 0.5s0.333008 0.5 1 0.5l10 47h78zM190 73.001
c23.333 0 42.834 7.83008 58.501 23.4971s27.167 32.834 34.5 51.501c6 15.333 11.667 31.833 17 49.5s9.83301 35 13.5 52s6.66699 33.5 9 49.5s3.5 30.333 3.5 43c0 24.667 -5.83301 44 -17.5 58s-29.5 21 -53.5 21c-16 0 -30.833 -3.5 -44.5 -10.5
s-25.834 -18.833 -36.501 -35.5c-8 -12 -15.5 -29 -22.5 -51s-13.167 -45 -18.5 -69c-4 -19.333 -7.33301 -37.166 -10 -53.499s-4 -30.5 -4 -42.5c0 -11.333 1 -22.166 3 -32.499s5.66699 -19.5 11 -27.5s12.5 -14.333 21.5 -19s20.833 -7 35.5 -7zM338.001 592.998l17 84
h77l-16 -84h-78zM173.001 592.998l17 84h77l-16 -84h-78z" />
    <glyph glyph-name="aring" unicode="&#xe5;" horiz-adv-x="447" 
d="M440 495l-96 -494.999h-79l9 46c-0.666992 0 -1.16699 0.166992 -1.5 0.5s-0.833008 0.5 -1.5 0.5c-16.667 -18.667 -33.167 -32.167 -49.5 -40.5s-38.166 -12.5 -65.499 -12.5c-40.667 0 -70.834 13.333 -90.501 40s-29.5 62.667 -29.5 108c0 18 1.33301 37.167 4 57.5
s5.66699 39.166 9 56.499c6.66699 33.333 15 64.833 25 94.5s22.667 55.5 38 77.5s34 39.5 56 52.5s48 19.5 78 19.5c22 0 42.333 -4.5 61 -13.5s33 -22.167 43 -39.5c0.666992 0 1 0.166992 1 0.5s0.333008 0.5 1 0.5l10 47h78zM190 73.001
c23.333 0 42.834 7.83008 58.501 23.4971s27.167 32.834 34.5 51.501c6 15.333 11.667 31.833 17 49.5s9.83301 35 13.5 52s6.66699 33.5 9 49.5s3.5 30.333 3.5 43c0 24.667 -5.83301 44 -17.5 58s-29.5 21 -53.5 21c-16 0 -30.833 -3.5 -44.5 -10.5
s-25.834 -18.833 -36.501 -35.5c-8 -12 -15.5 -29 -22.5 -51s-13.167 -45 -18.5 -69c-4 -19.333 -7.33301 -37.166 -10 -53.499s-4 -30.5 -4 -42.5c0 -11.333 1 -22.166 3 -32.499s5.66699 -19.5 11 -27.5s12.5 -14.333 21.5 -19s20.833 -7 35.5 -7zM293.001 543.998
c-23.333 0 -42.3311 7.33398 -56.998 22.001s-22 33 -22 55c0 14.667 3 28.667 9 42s14.167 25.166 24.5 35.499s22.333 18.5 36 24.5s28.5 9 44.5 9c23.333 0 42.333 -7.33301 57 -22s22 -33 22 -55c0 -16 -3.33301 -30.833 -10 -44.5s-15.334 -25.5 -26.001 -35.5
s-22.834 -17.667 -36.501 -23s-27.5 -8 -41.5 -8zM319.003 688.999c-16 0 -30.168 -6.16602 -42.501 -18.499s-18.5 -26.5 -18.5 -42.5c0 -12.667 3.83301 -22.834 11.5 -30.501s17.834 -11.5 30.501 -11.5c16 0 30.333 6 43 18s19 26.667 19 44c0 11.333 -4 21 -12 29
s-18.333 12 -31 12z" />
    <glyph glyph-name="ae" unicode="&#xe6;" horiz-adv-x="678" 
d="M526 501c47.333 0 83.6729 -11.166 109.006 -33.499s38 -52.5 38 -90.5c0 -51.333 -18.333 -92.833 -55 -124.5s-93 -48.5 -169 -50.5c-10 0 -20.5 0.166992 -31.5 0.5s-22.167 0.833008 -33.5 1.5l-4 -27c-1.33301 -8.66699 -2 -16.667 -2 -24
c0 -30 5.83301 -51.667 17.5 -65s31.167 -20 58.5 -20c20 0 39.667 5.66699 59 17s33.666 25.333 42.999 42l60 -36c-16.667 -30 -39.5 -53.667 -68.5 -71s-63.833 -26 -104.5 -26c-34.667 0 -62.334 6.33301 -83.001 19s-35.667 31 -45 55
c-19.333 -28 -44.333 -47.333 -75 -58s-62 -16 -94 -16c-22 0 -41 3.16699 -57 9.5s-29 14.833 -39 25.5s-17.333 23.167 -22 37.5s-7 29.5 -7 45.5c0 56.667 18.167 100.834 54.5 132.501s86.166 47.5 149.499 47.5c14 -0.666992 27.667 -1.66699 41 -3
s29.666 -3.33301 48.999 -6l12 70c4 23.333 -0.166992 41.166 -12.5 53.499s-33.166 18.5 -62.499 18.5c-22.667 0 -42.834 -3.83301 -60.501 -11.5s-30.834 -19.5 -39.501 -35.5l-59 38c15.333 26.667 37.833 47.5 67.5 62.5s63.167 22.5 100.5 22.5c12 0 24.667 -1 38 -3
s26.166 -5.16699 38.499 -9.5s23.5 -10 33.5 -17s18 -15.167 24 -24.5c16 15.333 35 28.166 57 38.499s46.667 15.5 74 15.5zM301.007 218.001l-41.001 5c-11.333 1.33301 -23 2.33301 -35 3c-16.667 0 -32.667 -1.83301 -48 -5.5s-28.666 -9.33398 -39.999 -17.001
s-20.5 -17.667 -27.5 -30s-10.5 -27.166 -10.5 -44.499c0 -18 6.16699 -32.333 18.5 -43s31.5 -16 57.5 -16c26.667 0 51 7.66699 73 23s35.667 36 41 62zM518.006 424.001c-19.333 0 -35.5 -3.33301 -48.5 -10s-24.167 -16.5 -33.5 -29.5s-17 -28.833 -23 -47.5
s-11.333 -39.667 -16 -63c8.66699 -0.666992 17 -1.16699 25 -1.5s16 -0.5 24 -0.5c50 0 86.833 8.16699 110.5 24.5s35.5 39.5 35.5 69.5c0 17.333 -6.66699 31.333 -20 42s-31.333 16 -54 16z" />
    <glyph glyph-name="ccedilla" unicode="&#xe7;" horiz-adv-x="381" 
d="M352 95c-16.667 -28.667 -39.334 -52.5039 -68.001 -71.5039s-63 -28.833 -103 -29.5l-19 -41c14.667 -1.33301 27 -4.16602 37 -8.49902s17.833 -9.66602 23.5 -15.999s9.66699 -13.166 12 -20.499s3.5 -14.666 3.5 -21.999c0 -10 -2 -20.5 -6 -31.5
s-10.5 -21 -19.5 -30s-20.5 -16.5 -34.5 -22.5s-30.667 -9 -50 -9h-14.5c-6.33301 0 -13.666 0.5 -21.999 1.5s-16.833 2.5 -25.5 4.5s-16.667 5 -24 9l20 42c11.333 -6 22.833 -9.83301 34.5 -11.5s21.834 -2.5 30.501 -2.5c13.333 0 25.333 3.5 36 10.5s16 17.167 16 30.5
c0 24.667 -15.333 37 -46 37h-10l-15 15l32 68c-22.667 4 -41.167 11 -55.5 21s-25.666 21.833 -33.999 35.5s-14 28.667 -17 45s-4.5 32.833 -4.5 49.5c0 19.333 1.33301 38.666 4 57.999s5.66699 38.666 9 57.999c6 31.333 14.5 61.333 25.5 90s25.5 53.834 43.5 75.501
s39.667 39 65 52s55 19.5 89 19.5c35.333 0 65.666 -9 90.999 -27s40.666 -44 45.999 -78l-74 -36c-3.33301 22 -11.333 38.333 -24 49s-28.667 16 -48 16c-20.667 0 -38.5 -4.66699 -53.5 -14s-27.833 -21.833 -38.5 -37.5s-19.5 -33.667 -26.5 -54
s-12.5 -41.166 -16.5 -62.499c-3.33301 -15.333 -6 -30.833 -8 -46.5s-3 -30.5 -3 -44.5c0 -33.333 6 -57.666 18 -72.999s33 -23 63 -23c19.333 0 37.5 5.66699 54.5 17s29.833 26.666 38.5 45.999l68 -38v0z" />
    <glyph glyph-name="egrave" unicode="&#xe8;" horiz-adv-x="414" 
d="M258 501c46 0 81.998 -10.832 107.998 -32.499s39 -51.5 39 -89.5c0 -26.667 -4.83301 -50.834 -14.5 -72.501s-24.5 -40.334 -44.5 -56.001s-45.333 -27.667 -76 -36s-67 -12.5 -109 -12.5c-7.33301 0 -15.5 0.166992 -24.5 0.5s-17.5 0.833008 -25.5 1.5
c-2 -14 -3 -28 -3 -42c0 -12 1.16699 -23.667 3.5 -35s6.16602 -21.166 11.499 -29.499s12.833 -15 22.5 -20s21.834 -7.5 36.501 -7.5c8.66699 0 18 1.5 28 4.5s19.833 7 29.5 12s18.667 11 27 18s15.166 14.5 20.499 22.5l66 -36c-19.333 -28.667 -43.666 -52 -72.999 -70
s-64.666 -27 -105.999 -27c-27.333 0 -50.166 4.5 -68.499 13.5s-32.833 21 -43.5 36s-18.167 32.5 -22.5 52.5s-6.5 40.667 -6.5 62c0 34.667 3.5 72.167 10.5 112.5s19.167 77.5 36.5 111.5s40.333 62.333 69 85s65 34 109 34zM250.998 427.001
c-34.667 0 -62.1699 -13.667 -82.5029 -41s-35.166 -64.666 -44.499 -111.999c7.33301 -0.666992 15 -1.16699 23 -1.5s15.667 -0.5 23 -0.5c56.667 0 96.834 9.16699 120.501 27.5s35.5 41.166 35.5 68.499c0 17.333 -6.66699 31.5 -20 42.5s-31.666 16.5 -54.999 16.5z
M265.995 550.001l-96 171l67 28l72 -180z" />
    <glyph glyph-name="eacute" unicode="&#xe9;" horiz-adv-x="414" 
d="M258 501c46 0 81.998 -10.832 107.998 -32.499s39 -51.5 39 -89.5c0 -26.667 -4.83301 -50.834 -14.5 -72.501s-24.5 -40.334 -44.5 -56.001s-45.333 -27.667 -76 -36s-67 -12.5 -109 -12.5c-7.33301 0 -15.5 0.166992 -24.5 0.5s-17.5 0.833008 -25.5 1.5
c-2 -14 -3 -28 -3 -42c0 -12 1.16699 -23.667 3.5 -35s6.16602 -21.166 11.499 -29.499s12.833 -15 22.5 -20s21.834 -7.5 36.501 -7.5c8.66699 0 18 1.5 28 4.5s19.833 7 29.5 12s18.667 11 27 18s15.166 14.5 20.499 22.5l66 -36c-19.333 -28.667 -43.666 -52 -72.999 -70
s-64.666 -27 -105.999 -27c-27.333 0 -50.166 4.5 -68.499 13.5s-32.833 21 -43.5 36s-18.167 32.5 -22.5 52.5s-6.5 40.667 -6.5 62c0 34.667 3.5 72.167 10.5 112.5s19.167 77.5 36.5 111.5s40.333 62.333 69 85s65 34 109 34zM250.998 427.001
c-34.667 0 -62.1699 -13.667 -82.5029 -41s-35.166 -64.666 -44.499 -111.999c7.33301 -0.666992 15 -1.16699 23 -1.5s15.667 -0.5 23 -0.5c56.667 0 96.834 9.16699 120.501 27.5s35.5 41.166 35.5 68.499c0 17.333 -6.66699 31.5 -20 42.5s-31.666 16.5 -54.999 16.5z
M228.995 572.001l104 173l71 -25l-130 -167z" />
    <glyph glyph-name="ecircumflex" unicode="&#xea;" horiz-adv-x="414" 
d="M258 501c46 0 81.998 -10.832 107.998 -32.499s39 -51.5 39 -89.5c0 -26.667 -4.83301 -50.834 -14.5 -72.501s-24.5 -40.334 -44.5 -56.001s-45.333 -27.667 -76 -36s-67 -12.5 -109 -12.5c-7.33301 0 -15.5 0.166992 -24.5 0.5s-17.5 0.833008 -25.5 1.5
c-2 -14 -3 -28 -3 -42c0 -12 1.16699 -23.667 3.5 -35s6.16602 -21.166 11.499 -29.499s12.833 -15 22.5 -20s21.834 -7.5 36.501 -7.5c8.66699 0 18 1.5 28 4.5s19.833 7 29.5 12s18.667 11 27 18s15.166 14.5 20.499 22.5l66 -36c-19.333 -28.667 -43.666 -52 -72.999 -70
s-64.666 -27 -105.999 -27c-27.333 0 -50.166 4.5 -68.499 13.5s-32.833 21 -43.5 36s-18.167 32.5 -22.5 52.5s-6.5 40.667 -6.5 62c0 34.667 3.5 72.167 10.5 112.5s19.167 77.5 36.5 111.5s40.333 62.333 69 85s65 34 109 34zM250.998 427.001
c-34.667 0 -62.1699 -13.667 -82.5029 -41s-35.166 -64.666 -44.499 -111.999c7.33301 -0.666992 15 -1.16699 23 -1.5s15.667 -0.5 23 -0.5c56.667 0 96.834 9.16699 120.501 27.5s35.5 41.166 35.5 68.499c0 17.333 -6.66699 31.5 -20 42.5s-31.666 16.5 -54.999 16.5z
M299.995 656.001l-151 -104l-32 33l168 146h50l106 -144l-43 -34z" />
    <glyph glyph-name="edieresis" unicode="&#xeb;" horiz-adv-x="414" 
d="M258 501c46 0 81.998 -10.832 107.998 -32.499s39 -51.5 39 -89.5c0 -26.667 -4.83301 -50.834 -14.5 -72.501s-24.5 -40.334 -44.5 -56.001s-45.333 -27.667 -76 -36s-67 -12.5 -109 -12.5c-7.33301 0 -15.5 0.166992 -24.5 0.5s-17.5 0.833008 -25.5 1.5
c-2 -14 -3 -28 -3 -42c0 -12 1.16699 -23.667 3.5 -35s6.16602 -21.166 11.499 -29.499s12.833 -15 22.5 -20s21.834 -7.5 36.501 -7.5c8.66699 0 18 1.5 28 4.5s19.833 7 29.5 12s18.667 11 27 18s15.166 14.5 20.499 22.5l66 -36c-19.333 -28.667 -43.666 -52 -72.999 -70
s-64.666 -27 -105.999 -27c-27.333 0 -50.166 4.5 -68.499 13.5s-32.833 21 -43.5 36s-18.167 32.5 -22.5 52.5s-6.5 40.667 -6.5 62c0 34.667 3.5 72.167 10.5 112.5s19.167 77.5 36.5 111.5s40.333 62.333 69 85s65 34 109 34zM250.998 427.001
c-34.667 0 -62.1699 -13.667 -82.5029 -41s-35.166 -64.666 -44.499 -111.999c7.33301 -0.666992 15 -1.16699 23 -1.5s15.667 -0.5 23 -0.5c56.667 0 96.834 9.16699 120.501 27.5s35.5 41.166 35.5 68.499c0 17.333 -6.66699 31.5 -20 42.5s-31.666 16.5 -54.999 16.5z
M328.995 593.001l17 84h77l-16 -84h-78zM163.995 593.001l17 84h77l-16 -84h-78z" />
    <glyph glyph-name="igrave" unicode="&#xec;" horiz-adv-x="195" 
d="M37 0l96 495h80l-96 -495h-80zM165 550l-96 171l67 28l72 -180z" />
    <glyph glyph-name="iacute" unicode="&#xed;" horiz-adv-x="195" 
d="M17 0l96 495h80l-96 -495h-80zM134 572l104 173l71 -25l-130 -167z" />
    <glyph glyph-name="icircumflex" unicode="&#xee;" horiz-adv-x="256" 
d="M52 0l96 495h80l-96 -495h-80zM224 656l-151 -104l-32 33l168 146h50l106 -144l-43 -34z" />
    <glyph glyph-name="idieresis" unicode="&#xef;" horiz-adv-x="230" 
d="M38 0l96 495h80l-96 -495h-80zM233 593l17 84h77l-16 -84h-78zM68 593l17 84h77l-16 -84h-78z" />
    <glyph glyph-name="eth" unicode="&#xf0;" horiz-adv-x="441" 
d="M243 478c10 0 20.3301 -1.33691 30.9971 -4.00391s21 -6.5 31 -11.5s19.167 -11 27.5 -18s14.833 -15.167 19.5 -24.5h3c2.66699 12 4.33398 23.5 5.00098 34.5s1 22.167 1 33.5c0 14 -0.833008 27.5 -2.5 40.5s-4.5 25.167 -8.5 36.5l-70 -45l-20 32l74 48
c-12 18.667 -27.5 32.834 -46.5 42.501s-40.5 15.834 -64.5 18.501c4 11.333 7.66699 22.333 11 33s7 21.667 11 33c22 -2 41.333 -5.66699 58 -11s31.334 -11.833 44.001 -19.5s23.5 -16 32.5 -25s16.5 -18.167 22.5 -27.5l83 53l20 -33l-86 -55
c10.667 -27.333 16 -62 16 -104c0 -34 -2.83301 -77.167 -8.5 -129.5s-16.167 -108.5 -31.5 -168.5c-8 -32 -18 -61.167 -30 -87.5s-26.5 -48.833 -43.5 -67.5s-37 -33 -60 -43s-50.167 -15 -81.5 -15c-26 0 -48.167 3.83301 -66.5 11.5s-33.333 17.834 -45 30.501
s-20.167 27.334 -25.5 44.001s-8 34 -8 52c0 19.333 1 39.333 3 60s4.66699 40 8 58c5.33301 34.667 14 66.667 26 96s25 53 39 71c16.667 21.333 36.334 36.833 59.001 46.5s47 14.5 73 14.5zM246.997 405.996c-31.333 0 -56.333 -11.001 -75 -33.001
c-7.33301 -8.66699 -14.666 -21.334 -21.999 -38.001s-13.833 -35.167 -19.5 -55.5s-10.334 -41.666 -14.001 -63.999s-5.5 -43.166 -5.5 -62.499c0 -27.333 6.33301 -48.5 19 -63.5s33 -22.5 61 -22.5c18.667 0 34.667 3.83301 48 11.5s25 18.5 35 32.5
c6 8.66699 12 21 18 37s11.5 33.667 16.5 53s9.16699 39.833 12.5 61.5s5 42.167 5 61.5c0 26.667 -7.5 47 -22.5 61s-33.833 21 -56.5 21z" />
    <glyph glyph-name="ntilde" unicode="&#xf1;" horiz-adv-x="440" 
d="M268 0l22.498 112.999l20.5 104.5l15 79c4 21 6 32.833 6 35.5c2 12 2.5 23.333 1.5 34s-4.16699 20.167 -9.5 28.5s-13.166 14.833 -23.499 19.5s-23.833 7 -40.5 7c-28.667 0 -52.5 -10 -71.5 -30s-31.5 -45 -37.5 -75l-62 -316h-79l96 495h80l-11 -55h3
c18.667 21.333 38.834 36.666 60.501 45.999s43.5 14 65.5 14c18.667 0 35.5 -3.16699 50.5 -9.5s27.667 -15.166 38 -26.499s17.833 -25.166 22.5 -41.499s5.66699 -34.833 3 -55.5c0 -3.33301 -2 -16.333 -6 -39s-9.33301 -51.167 -16 -85.5l-22.5 -115l-24.5 -127.5h-81z
M234.998 688.999c10.667 0 21.168 -2.16699 31.501 -6.5s20.5 -9 30.5 -14l29 -14c9.33301 -4.33301 18.333 -6.5 27 -6.5c9.33301 0 18.666 3 27.999 9s20 16.667 32 32l43 -28c-16 -30.667 -33.667 -52 -53 -64s-37.666 -18 -54.999 -18c-11.333 0 -22.166 2 -32.499 6
s-20.5 8.5 -30.5 13.5l-29 14c-9.33301 4.33301 -18.333 6.5 -27 6.5c-10 0 -19.167 -3.5 -27.5 -10.5s-18.833 -17.167 -31.5 -30.5l-45 30c15.333 26 32.666 46 51.999 60s38.666 21 57.999 21z" />
    <glyph glyph-name="ograve" unicode="&#xf2;" horiz-adv-x="429" 
d="M258 500c26 0 48.5 -4 67.5 -12s34.667 -18.833 47 -32.5s21.5 -29.667 27.5 -48s9 -37.833 9 -58.5c0 -20 -1.83301 -41.667 -5.5 -65s-7.5 -45 -11.5 -65c-7.33301 -36 -16.333 -67.833 -27 -95.5s-24 -51.167 -40 -70.5s-35.5 -34 -58.5 -44s-50.5 -15 -82.5 -15
c-27.333 0 -50.333 4 -69 12s-33.834 18.833 -45.501 32.5s-20.167 29.167 -25.5 46.5s-8 35.333 -8 54c0 26 1.66699 51 5 75s7.33301 46.667 12 68c6.66699 31.333 15.334 60.333 26.001 87s23 48.667 37 66c36 43.333 83.333 65 142 65zM252 428
c-28 0 -51.001 -10.0029 -69.001 -30.0029c-10.667 -11.333 -20.334 -26.666 -29.001 -45.999s-16.334 -41.333 -23.001 -66c-5.33301 -19.333 -9.5 -40.166 -12.5 -62.499s-5.16699 -42.166 -6.5 -59.499c-0.666992 -12 -0.166992 -23.833 1.5 -35.5
s5.33398 -22 11.001 -31s13.834 -16.333 24.501 -22s24.667 -8.5 42 -8.5c28 0 49 7.16699 63 21.5s25.667 33.166 35 56.499c6 14.667 11.5 30.834 16.5 48.501s9.33301 35.5 13 53.5s6.5 35.333 8.5 52s3 31.667 3 45c0 28 -7.16699 49 -21.5 63s-33.166 21 -56.499 21z
M279.999 549.997l-96 171l67 28l72 -180z" />
    <glyph glyph-name="oacute" unicode="&#xf3;" horiz-adv-x="429" 
d="M258 500c26 0 48.5 -4 67.5 -12s34.667 -18.833 47 -32.5s21.5 -29.667 27.5 -48s9 -37.833 9 -58.5c0 -20 -1.83301 -41.667 -5.5 -65s-7.5 -45 -11.5 -65c-7.33301 -36 -16.333 -67.833 -27 -95.5s-24 -51.167 -40 -70.5s-35.5 -34 -58.5 -44s-50.5 -15 -82.5 -15
c-27.333 0 -50.333 4 -69 12s-33.834 18.833 -45.501 32.5s-20.167 29.167 -25.5 46.5s-8 35.333 -8 54c0 26 1.66699 51 5 75s7.33301 46.667 12 68c6.66699 31.333 15.334 60.333 26.001 87s23 48.667 37 66c36 43.333 83.333 65 142 65zM252 428
c-28 0 -51.001 -10.0029 -69.001 -30.0029c-10.667 -11.333 -20.334 -26.666 -29.001 -45.999s-16.334 -41.333 -23.001 -66c-5.33301 -19.333 -9.5 -40.166 -12.5 -62.499s-5.16699 -42.166 -6.5 -59.499c-0.666992 -12 -0.166992 -23.833 1.5 -35.5
s5.33398 -22 11.001 -31s13.834 -16.333 24.501 -22s24.667 -8.5 42 -8.5c28 0 49 7.16699 63 21.5s25.667 33.166 35 56.499c6 14.667 11.5 30.834 16.5 48.501s9.33301 35.5 13 53.5s6.5 35.333 8.5 52s3 31.667 3 45c0 28 -7.16699 49 -21.5 63s-33.166 21 -56.499 21z
M254.999 571.997l104 173l71 -25l-130 -167z" />
    <glyph glyph-name="ocircumflex" unicode="&#xf4;" horiz-adv-x="429" 
d="M258 500c26 0 48.5 -4 67.5 -12s34.667 -18.833 47 -32.5s21.5 -29.667 27.5 -48s9 -37.833 9 -58.5c0 -20 -1.83301 -41.667 -5.5 -65s-7.5 -45 -11.5 -65c-7.33301 -36 -16.333 -67.833 -27 -95.5s-24 -51.167 -40 -70.5s-35.5 -34 -58.5 -44s-50.5 -15 -82.5 -15
c-27.333 0 -50.333 4 -69 12s-33.834 18.833 -45.501 32.5s-20.167 29.167 -25.5 46.5s-8 35.333 -8 54c0 26 1.66699 51 5 75s7.33301 46.667 12 68c6.66699 31.333 15.334 60.333 26.001 87s23 48.667 37 66c36 43.333 83.333 65 142 65zM252 428
c-28 0 -51.001 -10.0029 -69.001 -30.0029c-10.667 -11.333 -20.334 -26.666 -29.001 -45.999s-16.334 -41.333 -23.001 -66c-5.33301 -19.333 -9.5 -40.166 -12.5 -62.499s-5.16699 -42.166 -6.5 -59.499c-0.666992 -12 -0.166992 -23.833 1.5 -35.5
s5.33398 -22 11.001 -31s13.834 -16.333 24.501 -22s24.667 -8.5 42 -8.5c28 0 49 7.16699 63 21.5s25.667 33.166 35 56.499c6 14.667 11.5 30.834 16.5 48.501s9.33301 35.5 13 53.5s6.5 35.333 8.5 52s3 31.667 3 45c0 28 -7.16699 49 -21.5 63s-33.166 21 -56.499 21z
M309.999 655.997l-151 -104l-32 33l168 146h50l106 -144l-43 -34z" />
    <glyph glyph-name="otilde" unicode="&#xf5;" horiz-adv-x="429" 
d="M258 500c26 0 48.5 -4 67.5 -12s34.667 -18.833 47 -32.5s21.5 -29.667 27.5 -48s9 -37.833 9 -58.5c0 -20 -1.83301 -41.667 -5.5 -65s-7.5 -45 -11.5 -65c-7.33301 -36 -16.333 -67.833 -27 -95.5s-24 -51.167 -40 -70.5s-35.5 -34 -58.5 -44s-50.5 -15 -82.5 -15
c-27.333 0 -50.333 4 -69 12s-33.834 18.833 -45.501 32.5s-20.167 29.167 -25.5 46.5s-8 35.333 -8 54c0 26 1.66699 51 5 75s7.33301 46.667 12 68c6.66699 31.333 15.334 60.333 26.001 87s23 48.667 37 66c36 43.333 83.333 65 142 65zM252 428
c-28 0 -51.001 -10.0029 -69.001 -30.0029c-10.667 -11.333 -20.334 -26.666 -29.001 -45.999s-16.334 -41.333 -23.001 -66c-5.33301 -19.333 -9.5 -40.166 -12.5 -62.499s-5.16699 -42.166 -6.5 -59.499c-0.666992 -12 -0.166992 -23.833 1.5 -35.5
s5.33398 -22 11.001 -31s13.834 -16.333 24.501 -22s24.667 -8.5 42 -8.5c28 0 49 7.16699 63 21.5s25.667 33.166 35 56.499c6 14.667 11.5 30.834 16.5 48.501s9.33301 35.5 13 53.5s6.5 35.333 8.5 52s3 31.667 3 45c0 28 -7.16699 49 -21.5 63s-33.166 21 -56.499 21z
M226.999 688.997c10.667 0 21.168 -2.16699 31.501 -6.5s20.5 -9 30.5 -14l29 -14c9.33301 -4.33301 18.333 -6.5 27 -6.5c9.33301 0 18.666 3 27.999 9s20 16.667 32 32l43 -28c-16 -30.667 -33.667 -52 -53 -64s-37.666 -18 -54.999 -18c-11.333 0 -22.166 2 -32.499 6
s-20.5 8.5 -30.5 13.5l-29 14c-9.33301 4.33301 -18.333 6.5 -27 6.5c-10 0 -19.167 -3.5 -27.5 -10.5s-18.833 -17.167 -31.5 -30.5l-45 30c15.333 26 32.666 46 51.999 60s38.666 21 57.999 21z" />
    <glyph glyph-name="odieresis" unicode="&#xf6;" horiz-adv-x="429" 
d="M258 500c26 0 48.5 -4 67.5 -12s34.667 -18.833 47 -32.5s21.5 -29.667 27.5 -48s9 -37.833 9 -58.5c0 -20 -1.83301 -41.667 -5.5 -65s-7.5 -45 -11.5 -65c-7.33301 -36 -16.333 -67.833 -27 -95.5s-24 -51.167 -40 -70.5s-35.5 -34 -58.5 -44s-50.5 -15 -82.5 -15
c-27.333 0 -50.333 4 -69 12s-33.834 18.833 -45.501 32.5s-20.167 29.167 -25.5 46.5s-8 35.333 -8 54c0 26 1.66699 51 5 75s7.33301 46.667 12 68c6.66699 31.333 15.334 60.333 26.001 87s23 48.667 37 66c36 43.333 83.333 65 142 65zM252 428
c-28 0 -51.001 -10.0029 -69.001 -30.0029c-10.667 -11.333 -20.334 -26.666 -29.001 -45.999s-16.334 -41.333 -23.001 -66c-5.33301 -19.333 -9.5 -40.166 -12.5 -62.499s-5.16699 -42.166 -6.5 -59.499c-0.666992 -12 -0.166992 -23.833 1.5 -35.5
s5.33398 -22 11.001 -31s13.834 -16.333 24.501 -22s24.667 -8.5 42 -8.5c28 0 49 7.16699 63 21.5s25.667 33.166 35 56.499c6 14.667 11.5 30.834 16.5 48.501s9.33301 35.5 13 53.5s6.5 35.333 8.5 52s3 31.667 3 45c0 28 -7.16699 49 -21.5 63s-33.166 21 -56.499 21z
M329.999 592.997l17 84h77l-16 -84h-78zM164.999 592.997l17 84h77l-16 -84h-78z" />
    <glyph glyph-name="divide" unicode="&#xf7;" horiz-adv-x="440" 
d="M283 518c13.333 0 24.166 -4.16895 32.499 -12.502s12.5 -19.166 12.5 -32.499c0 -17.333 -7 -32.5 -21 -45.5s-29.333 -19.5 -46 -19.5c-13.333 0 -24.166 4.33301 -32.499 13s-12.5 19.334 -12.5 32.001c0 17.333 6.83301 32.5 20.5 45.5s29.167 19.5 46.5 19.5z
M29 262.998l13 62h406l-12 -62h-407zM217 178.998c13.333 0 24.166 -4.16699 32.499 -12.5s12.5 -18.833 12.5 -31.5c0 -8.66699 -2 -17 -6 -25s-9 -15 -15 -21s-13 -10.667 -21 -14s-16 -5 -24 -5c-13.333 0 -24.166 4.16699 -32.499 12.5s-12.5 18.833 -12.5 31.5
c0 8.66699 1.83301 17 5.5 25s8.5 15 14.5 21s13 10.667 21 14s16.333 5 25 5z" />
    <glyph glyph-name="oslash" unicode="&#xf8;" horiz-adv-x="429" 
d="M258 500c23.333 0 43.498 -3 60.498 -9s31.833 -14.667 44.5 -26l35 48l34 -23l-43 -58c7.33301 -12 12.5 -25 15.5 -39s4.5 -28.667 4.5 -44c0 -20 -1.83301 -41.667 -5.5 -65s-7.5 -45 -11.5 -65c-7.33301 -36 -16.333 -67.833 -27 -95.5s-24 -51.167 -40 -70.5
s-35.5 -34 -58.5 -44s-50.5 -15 -82.5 -15c-22 0 -41.167 2.5 -57.5 7.5s-30.166 12.167 -41.499 21.5l-32 -43l-32 23l37 50c-8 12 -13.667 25.5 -17 40.5s-5 30.167 -5 45.5c0 26 1.66699 51 5 75s7.33301 46.667 12 68c6.66699 31.333 15.334 60.333 26.001 87
s23 48.667 37 66c36 43.333 83.333 65 142 65zM251.998 428c-28 0 -50.998 -10.0029 -68.998 -30.0029c-10.667 -11.333 -20.334 -26.666 -29.001 -45.999s-16.334 -41.333 -23.001 -66c-5.33301 -19.333 -9.5 -40.166 -12.5 -62.499s-5.16699 -42.166 -6.5 -59.499
c-1.33301 -14 -1 -26 1 -36l201 272c-14 18.667 -34.667 28 -62 28zM330 351.997l-198 -265c12 -13.333 31.667 -20 59 -20c28 0 49 7.16699 63 21.5s25.667 33.166 35 56.499c6 14.667 11.5 30.834 16.5 48.501s9.33301 35.5 13 53.5s6.5 35.333 8.5 52s3 31.667 3 45v8z
" />
    <glyph glyph-name="ugrave" unicode="&#xf9;" horiz-adv-x="444" 
d="M270 0l11 53.001h-3c-18.667 -21.333 -38.834 -36.5 -60.501 -45.5s-43.167 -13.5 -64.5 -13.5c-41.333 0 -72.166 12 -92.499 36s-27.833 56.333 -22.5 97c0 3.33301 2 16.333 6 39s9.33301 51.167 16 85.5l22.5 115l24.5 128.5h80l-22 -113.5l-20 -105l-15 -79
c-4 -21 -6 -32.833 -6 -35.5c-2 -12 -2.66699 -23.333 -2 -34s3.16699 -20.167 7.5 -28.5s11.333 -15 21 -20s23.167 -7.5 40.5 -7.5c14 0 27.333 3.33301 40 10s24.167 15.5 34.5 26.5s19 23.667 26 38s12.167 29.166 15.5 44.499l60 304h79l-96 -495h-80zM276 550.001
l-96 171l67 28l72 -180z" />
    <glyph glyph-name="uacute" unicode="&#xfa;" horiz-adv-x="444" 
d="M270 0l11 53.001h-3c-18.667 -21.333 -38.834 -36.5 -60.501 -45.5s-43.167 -13.5 -64.5 -13.5c-41.333 0 -72.166 12 -92.499 36s-27.833 56.333 -22.5 97c0 3.33301 2 16.333 6 39s9.33301 51.167 16 85.5l22.5 115l24.5 128.5h80l-22 -113.5l-20 -105l-15 -79
c-4 -21 -6 -32.833 -6 -35.5c-2 -12 -2.66699 -23.333 -2 -34s3.16699 -20.167 7.5 -28.5s11.333 -15 21 -20s23.167 -7.5 40.5 -7.5c14 0 27.333 3.33301 40 10s24.167 15.5 34.5 26.5s19 23.667 26 38s12.167 29.166 15.5 44.499l60 304h79l-96 -495h-80zM246 572.001
l104 173l71 -25l-130 -167z" />
    <glyph glyph-name="ucircumflex" unicode="&#xfb;" horiz-adv-x="444" 
d="M270 0l11 53.001h-3c-18.667 -21.333 -38.834 -36.5 -60.501 -45.5s-43.167 -13.5 -64.5 -13.5c-41.333 0 -72.166 12 -92.499 36s-27.833 56.333 -22.5 97c0 3.33301 2 16.333 6 39s9.33301 51.167 16 85.5l22.5 115l24.5 128.5h80l-22 -113.5l-20 -105l-15 -79
c-4 -21 -6 -32.833 -6 -35.5c-2 -12 -2.66699 -23.333 -2 -34s3.16699 -20.167 7.5 -28.5s11.333 -15 21 -20s23.167 -7.5 40.5 -7.5c14 0 27.333 3.33301 40 10s24.167 15.5 34.5 26.5s19 23.667 26 38s12.167 29.166 15.5 44.499l60 304h79l-96 -495h-80zM309 656.001
l-151 -104l-32 33l168 146h50l106 -144l-43 -34z" />
    <glyph glyph-name="udieresis" unicode="&#xfc;" horiz-adv-x="444" 
d="M270 0l11 53.001h-3c-18.667 -21.333 -38.834 -36.5 -60.501 -45.5s-43.167 -13.5 -64.5 -13.5c-41.333 0 -72.166 12 -92.499 36s-27.833 56.333 -22.5 97c0 3.33301 2 16.333 6 39s9.33301 51.167 16 85.5l22.5 115l24.5 128.5h80l-22 -113.5l-20 -105l-15 -79
c-4 -21 -6 -32.833 -6 -35.5c-2 -12 -2.66699 -23.333 -2 -34s3.16699 -20.167 7.5 -28.5s11.333 -15 21 -20s23.167 -7.5 40.5 -7.5c14 0 27.333 3.33301 40 10s24.167 15.5 34.5 26.5s19 23.667 26 38s12.167 29.166 15.5 44.499l60 304h79l-96 -495h-80zM337 593.001
l17 84h77l-16 -84h-78zM172 593.001l17 84h77l-16 -84h-78z" />
    <glyph glyph-name="yacute" unicode="&#xfd;" horiz-adv-x="375" 
d="M408 495l-57.502 -164.001c-18.333 -50 -36.833 -97.167 -55.5 -141.5s-37.667 -86.333 -57 -126s-40.333 -78.167 -63 -115.5c-30 -48.667 -64.5 -86 -103.5 -112s-83.5 -38.667 -133.5 -38l-3 71c34.667 4.66699 65.834 15.834 93.501 33.501s51.5 43.167 71.5 76.5
l-56 516h83l18 -222c2.66699 -28.667 4.83398 -61.5 6.50098 -98.5s1.83398 -71.833 0.500977 -104.5h3c16 29.333 31.667 61.5 47 96.5s30.166 71 44.499 108l41.5 112l37 108.5h83zM201.998 571.999l104 173l71 -25l-130 -167z" />
    <glyph glyph-name="thorn" unicode="&#xfe;" horiz-adv-x="433" 
d="M-31 -197l24.999 129.497l29.5 152.5l32 164l32 164l30 152.5l25.5 130.5h79l-48 -247c0.666992 0 1 -0.166992 1 -0.5s0.333008 -0.5 1 -0.5c16.667 16.667 34.5 29.667 53.5 39s41.833 14 68.5 14c34.667 0 62.334 -10.667 83.001 -32s31 -53.666 31 -96.999
c0 -22 -1.33301 -45.833 -4 -71.5s-6 -49.167 -10 -70.5c-6 -32.667 -13.667 -63.167 -23 -91.5s-21.666 -53.166 -36.999 -74.499s-34.333 -38.166 -57 -50.499s-50.334 -18.5 -83.001 -18.5c-20 0 -39 4.5 -57 13.5s-32.667 22.167 -44 39.5
c-0.666992 0 -1 -0.166992 -1 -0.5s-0.333008 -0.5 -1 -0.5l-23 -122l-24 -122h-79zM255.999 421.997c-25.333 0 -46.167 -8.5 -62.5 -25.5s-27.833 -35.5 -34.5 -55.5c-8 -25.333 -15 -51 -21 -77s-10.333 -51 -13 -75c-0.666992 -6 -1.16699 -12.167 -1.5 -18.5
s-0.5 -12.5 -0.5 -18.5c0 -23.333 5.83301 -42.166 17.5 -56.499s28.834 -21.5 51.501 -21.5c16 0 31 3.16699 45 9.5s26.333 17.166 37 32.499c9.33301 13.333 17.666 32.333 24.999 57s13.666 50.667 18.999 78c3.33301 15.333 5.66602 29.833 6.99902 43.5
s2.33301 26.167 3 37.5c0 12 -0.833008 23.5 -2.5 34.5s-5.16699 20.667 -10.5 29s-12.666 14.833 -21.999 19.5s-21.666 7 -36.999 7z" />
    <glyph glyph-name="ydieresis" unicode="&#xff;" horiz-adv-x="375" 
d="M408 495l-57.502 -164.001c-18.333 -50 -36.833 -97.167 -55.5 -141.5s-37.667 -86.333 -57 -126s-40.333 -78.167 -63 -115.5c-30 -48.667 -64.5 -86 -103.5 -112s-83.5 -38.667 -133.5 -38l-3 71c34.667 4.66699 65.834 15.834 93.501 33.501s51.5 43.167 71.5 76.5
l-56 516h83l18 -222c2.66699 -28.667 4.83398 -61.5 6.50098 -98.5s1.83398 -71.833 0.500977 -104.5h3c16 29.333 31.667 61.5 47 96.5s30.166 71 44.499 108l41.5 112l37 108.5h83zM274.998 592.999l17 84h77l-16 -84h-78zM109.998 592.999l17 84h77l-16 -84h-78z" />
    <glyph glyph-name="Amacron" unicode="&#x100;" horiz-adv-x="491" 
d="M360 0l-11 158h-221l-73 -158h-87l335 696h75l65 -696h-83zM330 413l-11 159h-3l-69 -157l-86 -182h183zM226 760l14 71h253l-14 -71h-253z" />
    <glyph glyph-name="amacron" unicode="&#x101;" horiz-adv-x="447" 
d="M440 495l-96 -494.999h-79l9 46c-0.666992 0 -1.16699 0.166992 -1.5 0.5s-0.833008 0.5 -1.5 0.5c-16.667 -18.667 -33.167 -32.167 -49.5 -40.5s-38.166 -12.5 -65.499 -12.5c-40.667 0 -70.834 13.333 -90.501 40s-29.5 62.667 -29.5 108c0 18 1.33301 37.167 4 57.5
s5.66699 39.166 9 56.499c6.66699 33.333 15 64.833 25 94.5s22.667 55.5 38 77.5s34 39.5 56 52.5s48 19.5 78 19.5c22 0 42.333 -4.5 61 -13.5s33 -22.167 43 -39.5c0.666992 0 1 0.166992 1 0.5s0.333008 0.5 1 0.5l10 47h78zM190 73.001
c23.333 0 42.834 7.83008 58.501 23.4971s27.167 32.834 34.5 51.501c6 15.333 11.667 31.833 17 49.5s9.83301 35 13.5 52s6.66699 33.5 9 49.5s3.5 30.333 3.5 43c0 24.667 -5.83301 44 -17.5 58s-29.5 21 -53.5 21c-16 0 -30.833 -3.5 -44.5 -10.5
s-25.834 -18.833 -36.501 -35.5c-8 -12 -15.5 -29 -22.5 -51s-13.167 -45 -18.5 -69c-4 -19.333 -7.33301 -37.166 -10 -53.499s-4 -30.5 -4 -42.5c0 -11.333 1 -22.166 3 -32.499s5.66699 -19.5 11 -27.5s12.5 -14.333 21.5 -19s20.833 -7 35.5 -7zM164.001 593.998l14 71
h254l-15 -71h-253z" />
    <glyph glyph-name="Abreve" unicode="&#x102;" horiz-adv-x="491" 
d="M360 0l-11 158h-221l-73 -158h-87l335 696h75l65 -696h-83zM330 413l-11 159h-3l-69 -157l-86 -182h183zM301 866c-2.66699 -15.333 0.166992 -29.666 8.5 -42.999s23.5 -20 45.5 -20c13.333 0 24.833 2 34.5 6s18 9.16699 25 15.5s12.333 13.166 16 20.499
s6.16699 14.333 7.5 21h69c-2.66699 -14.667 -7.66699 -29.5 -15 -44.5s-17.5 -28.5 -30.5 -40.5s-29 -21.667 -48 -29s-41.167 -11 -66.5 -11s-46 4.16699 -62 12.5s-28.333 18.666 -37 30.999s-14 25.833 -16 40.5s-2 28.334 0 41.001h69z" />
    <glyph glyph-name="abreve" unicode="&#x103;" horiz-adv-x="447" 
d="M440 495l-96 -494.999h-79l9 46c-0.666992 0 -1.16699 0.166992 -1.5 0.5s-0.833008 0.5 -1.5 0.5c-16.667 -18.667 -33.167 -32.167 -49.5 -40.5s-38.166 -12.5 -65.499 -12.5c-40.667 0 -70.834 13.333 -90.501 40s-29.5 62.667 -29.5 108c0 18 1.33301 37.167 4 57.5
s5.66699 39.166 9 56.499c6.66699 33.333 15 64.833 25 94.5s22.667 55.5 38 77.5s34 39.5 56 52.5s48 19.5 78 19.5c22 0 42.333 -4.5 61 -13.5s33 -22.167 43 -39.5c0.666992 0 1 0.166992 1 0.5s0.333008 0.5 1 0.5l10 47h78zM190 73.001
c23.333 0 42.834 7.83008 58.501 23.4971s27.167 32.834 34.5 51.501c6 15.333 11.667 31.833 17 49.5s9.83301 35 13.5 52s6.66699 33.5 9 49.5s3.5 30.333 3.5 43c0 24.667 -5.83301 44 -17.5 58s-29.5 21 -53.5 21c-16 0 -30.833 -3.5 -44.5 -10.5
s-25.834 -18.833 -36.501 -35.5c-8 -12 -15.5 -29 -22.5 -51s-13.167 -45 -18.5 -69c-4 -19.333 -7.33301 -37.166 -10 -53.499s-4 -30.5 -4 -42.5c0 -11.333 1 -22.166 3 -32.499s5.66699 -19.5 11 -27.5s12.5 -14.333 21.5 -19s20.833 -7 35.5 -7zM242.001 698.998
c-0.666992 -6.66699 -0.167969 -13.835 1.49902 -21.502s4.83398 -14.834 9.50098 -21.501s10.834 -12.167 18.501 -16.5s17.167 -6.5 28.5 -6.5s21.666 2 30.999 6s17.5 9.16699 24.5 15.5s12.833 13.5 17.5 21.5s7.66699 15.667 9 23h73
c-4 -15.333 -10 -30.666 -18 -45.999s-18.5 -29.166 -31.5 -41.499s-28.5 -22.333 -46.5 -30s-39 -11.5 -63 -11.5c-24.667 0 -45.167 3.5 -61.5 10.5s-29.333 16.5 -39 28.5s-16 25.833 -19 41.5s-3.5 31.834 -1.5 48.501h67z" />
    <glyph glyph-name="Aogonek" unicode="&#x104;" horiz-adv-x="491" 
d="M380 -180c-23.333 0 -41.667 6.83203 -55 20.499s-20 30.5 -20 50.5c0 16 4 32.5 12 49.5s22.333 37.167 43 60.5l-11 157h-221l-73 -158h-87l335 696h75l65 -696h-28c-30.667 -35.333 -46 -65.666 -46 -90.999c0 -21.333 12.333 -32 37 -32c14 0 32.667 6 56 18l9 -50
c-13.333 -7.33301 -28 -13.333 -44 -18s-31.667 -7 -47 -7zM329.999 412.999l-11 159h-3l-69 -157l-86 -182h183z" />
    <glyph glyph-name="aogonek" unicode="&#x105;" horiz-adv-x="447" 
d="M285 -180c-23.333 0 -41.667 6.83301 -55 20.5s-20 30.5 -20 50.5c0 16 4 32.5 12 49.5s22.333 37.167 43 60.5l9 45c-0.666992 0 -1.16699 0.166992 -1.5 0.5s-0.833008 0.5 -1.5 0.5c-16.667 -18.667 -33.167 -32.167 -49.5 -40.5s-38.166 -12.5 -65.499 -12.5
c-40.667 0 -70.834 13.333 -90.501 40s-29.5 62.667 -29.5 108c0 18 1.33301 37.167 4 57.5s5.66699 39.166 9 56.499c6.66699 33.333 15 64.833 25 94.5s22.667 55.5 38 77.5s34 39.5 56 52.5s48 19.5 78 19.5c22 0 42.333 -4.5 61 -13.5s33 -22.167 43 -39.5
c0.666992 0 1 0.166992 1 0.5s0.333008 0.5 1 0.5l10 47h78l-96 -495h-24c-30.667 -35.333 -46 -65.666 -46 -90.999c0 -21.333 12.333 -32 37 -32c14 0 32.667 6 56 18l9 -50c-13.333 -7.33301 -28 -13.333 -44 -18s-31.667 -7 -47 -7zM189.999 73
c23.333 0 42.834 7.83008 58.501 23.4971s27.167 32.834 34.5 51.501c6 15.333 11.667 31.833 17 49.5s9.83301 35 13.5 52s6.66699 33.5 9 49.5s3.5 30.333 3.5 43c0 24.667 -5.83301 44 -17.5 58s-29.5 21 -53.5 21c-16 0 -30.833 -3.5 -44.5 -10.5
s-25.834 -18.833 -36.501 -35.5c-8 -12 -15.5 -29 -22.5 -51s-13.167 -45 -18.5 -69c-4 -19.333 -7.33301 -37.166 -10 -53.499s-4 -30.5 -4 -42.5c0 -11.333 1 -22.166 3 -32.499s5.66699 -19.5 11 -27.5s12.5 -14.333 21.5 -19s20.833 -7 35.5 -7z" />
    <glyph glyph-name="Cacute" unicode="&#x106;" horiz-adv-x="469" 
d="M331 701c57.333 0 100.335 -14 129.002 -42s44.334 -65 47.001 -111l-84 -25c0 30 -8 54 -24 72s-39 27 -69 27c-22 0 -40.5 -3.16699 -55.5 -9.5s-27.667 -14.833 -38 -25.5s-18.833 -22.667 -25.5 -36s-12.334 -27 -17.001 -41c-11.333 -38 -20.5 -77.5 -27.5 -118.5
s-14.5 -81.5 -22.5 -121.5c-3.33301 -16 -6.5 -32.667 -9.5 -50s-4.5 -33.333 -4.5 -48s1.5 -28 4.5 -40s8.16699 -22.5 15.5 -31.5s17 -16 29 -21s27.333 -7.5 46 -7.5c31.333 0 58.666 8.83301 81.999 26.5s40.666 43.5 51.999 77.5l80 -31
c-17.333 -48.667 -44.333 -86 -81 -112s-82 -39 -136 -39c-60 0 -104.333 15.5 -133 46.5s-43 70.833 -43 119.5c0 12.667 1.66699 30.5 5 53.5s7 45.167 11 66.5l17 85l17 85c6 31.333 14 62 24 92s23.833 56.833 41.5 80.5s40.167 42.667 67.5 57s61.333 21.5 102 21.5z
M299.002 766l84 59l84 59l21.5 -30c7 -10 14.167 -19.667 21.5 -29l-93 -49l-92 -49z" />
    <glyph glyph-name="cacute" unicode="&#x107;" horiz-adv-x="381" 
d="M178 -6c-30.667 0 -55.665 4.5 -74.998 13.5s-34.5 20.833 -45.5 35.5s-18.5 31.167 -22.5 49.5s-6 36.833 -6 55.5c0 19.333 1.33301 38.666 4 57.999s5.66699 38.666 9 57.999c6 31.333 14.5 61.333 25.5 90s25.5 53.834 43.5 75.501s39.667 39 65 52s55 19.5 89 19.5
c35.333 0 65.666 -9 90.999 -27s40.666 -44 45.999 -78l-74 -36c-3.33301 22 -11.333 38.333 -24 49s-28.667 16 -48 16c-20.667 0 -38.5 -4.66699 -53.5 -14s-27.833 -21.833 -38.5 -37.5s-19.5 -33.667 -26.5 -54s-12.5 -41.166 -16.5 -62.499
c-3.33301 -15.333 -6 -30.833 -8 -46.5s-3 -30.5 -3 -44.5c0 -33.333 6 -57.666 18 -72.999s33 -23 63 -23c19.333 0 37.5 5.66699 54.5 17s29.833 26.666 38.5 45.999l68 -38c-16.667 -28.667 -39.667 -52.667 -69 -72s-64.333 -29 -105 -29zM225.002 572l104 173l71 -25
l-130 -167z" />
    <glyph glyph-name="Ccircumflex" unicode="&#x108;" horiz-adv-x="469" 
d="M331 701c57.333 0 100.335 -14 129.002 -42s44.334 -65 47.001 -111l-84 -25c0 30 -8 54 -24 72s-39 27 -69 27c-22 0 -40.5 -3.16699 -55.5 -9.5s-27.667 -14.833 -38 -25.5s-18.833 -22.667 -25.5 -36s-12.334 -27 -17.001 -41c-11.333 -38 -20.5 -77.5 -27.5 -118.5
s-14.5 -81.5 -22.5 -121.5c-3.33301 -16 -6.5 -32.667 -9.5 -50s-4.5 -33.333 -4.5 -48s1.5 -28 4.5 -40s8.16699 -22.5 15.5 -31.5s17 -16 29 -21s27.333 -7.5 46 -7.5c31.333 0 58.666 8.83301 81.999 26.5s40.666 43.5 51.999 77.5l80 -31
c-17.333 -48.667 -44.333 -86 -81 -112s-82 -39 -136 -39c-60 0 -104.333 15.5 -133 46.5s-43 70.833 -43 119.5c0 12.667 1.66699 30.5 5 53.5s7 45.167 11 66.5l17 85l17 85c6 31.333 14 62 24 92s23.833 56.833 41.5 80.5s40.167 42.667 67.5 57s61.333 21.5 102 21.5z
M365.002 815l-152 -82l-27 33l165 125h50l109 -123l-35 -33z" />
    <glyph glyph-name="ccircumflex" unicode="&#x109;" horiz-adv-x="381" 
d="M178 -6c-30.667 0 -55.665 4.5 -74.998 13.5s-34.5 20.833 -45.5 35.5s-18.5 31.167 -22.5 49.5s-6 36.833 -6 55.5c0 19.333 1.33301 38.666 4 57.999s5.66699 38.666 9 57.999c6 31.333 14.5 61.333 25.5 90s25.5 53.834 43.5 75.501s39.667 39 65 52s55 19.5 89 19.5
c35.333 0 65.666 -9 90.999 -27s40.666 -44 45.999 -78l-74 -36c-3.33301 22 -11.333 38.333 -24 49s-28.667 16 -48 16c-20.667 0 -38.5 -4.66699 -53.5 -14s-27.833 -21.833 -38.5 -37.5s-19.5 -33.667 -26.5 -54s-12.5 -41.166 -16.5 -62.499
c-3.33301 -15.333 -6 -30.833 -8 -46.5s-3 -30.5 -3 -44.5c0 -33.333 6 -57.666 18 -72.999s33 -23 63 -23c19.333 0 37.5 5.66699 54.5 17s29.833 26.666 38.5 45.999l68 -38c-16.667 -28.667 -39.667 -52.667 -69 -72s-64.333 -29 -105 -29zM299.002 656l-151 -104l-32 33
l168 146h50l106 -144l-43 -34z" />
    <glyph glyph-name="Cdotaccent" unicode="&#x10a;" horiz-adv-x="469" 
d="M331 701c57.333 0 100.335 -14 129.002 -42s44.334 -65 47.001 -111l-84 -25c0 30 -8 54 -24 72s-39 27 -69 27c-22 0 -40.5 -3.16699 -55.5 -9.5s-27.667 -14.833 -38 -25.5s-18.833 -22.667 -25.5 -36s-12.334 -27 -17.001 -41c-11.333 -38 -20.5 -77.5 -27.5 -118.5
s-14.5 -81.5 -22.5 -121.5c-3.33301 -16 -6.5 -32.667 -9.5 -50s-4.5 -33.333 -4.5 -48s1.5 -28 4.5 -40s8.16699 -22.5 15.5 -31.5s17 -16 29 -21s27.333 -7.5 46 -7.5c31.333 0 58.666 8.83301 81.999 26.5s40.666 43.5 51.999 77.5l80 -31
c-17.333 -48.667 -44.333 -86 -81 -112s-82 -39 -136 -39c-60 0 -104.333 15.5 -133 46.5s-43 70.833 -43 119.5c0 12.667 1.66699 30.5 5 53.5s7 45.167 11 66.5l17 85l17 85c6 31.333 14 62 24 92s23.833 56.833 41.5 80.5s40.167 42.667 67.5 57s61.333 21.5 102 21.5z
M320.002 747l16 84h78l-16 -84h-78z" />
    <glyph glyph-name="cdotaccent" unicode="&#x10b;" horiz-adv-x="381" 
d="M178 -6c-30.667 0 -55.665 4.5 -74.998 13.5s-34.5 20.833 -45.5 35.5s-18.5 31.167 -22.5 49.5s-6 36.833 -6 55.5c0 19.333 1.33301 38.666 4 57.999s5.66699 38.666 9 57.999c6 31.333 14.5 61.333 25.5 90s25.5 53.834 43.5 75.501s39.667 39 65 52s55 19.5 89 19.5
c35.333 0 65.666 -9 90.999 -27s40.666 -44 45.999 -78l-74 -36c-3.33301 22 -11.333 38.333 -24 49s-28.667 16 -48 16c-20.667 0 -38.5 -4.66699 -53.5 -14s-27.833 -21.833 -38.5 -37.5s-19.5 -33.667 -26.5 -54s-12.5 -41.166 -16.5 -62.499
c-3.33301 -15.333 -6 -30.833 -8 -46.5s-3 -30.5 -3 -44.5c0 -33.333 6 -57.666 18 -72.999s33 -23 63 -23c19.333 0 37.5 5.66699 54.5 17s29.833 26.666 38.5 45.999l68 -38c-16.667 -28.667 -39.667 -52.667 -69 -72s-64.333 -29 -105 -29zM231.002 587l16 84h78l-16 -84
h-78z" />
    <glyph glyph-name="Ccaron" unicode="&#x10c;" horiz-adv-x="469" 
d="M331 701c57.333 0 100.335 -14 129.002 -42s44.334 -65 47.001 -111l-84 -25c0 30 -8 54 -24 72s-39 27 -69 27c-22 0 -40.5 -3.16699 -55.5 -9.5s-27.667 -14.833 -38 -25.5s-18.833 -22.667 -25.5 -36s-12.334 -27 -17.001 -41c-11.333 -38 -20.5 -77.5 -27.5 -118.5
s-14.5 -81.5 -22.5 -121.5c-3.33301 -16 -6.5 -32.667 -9.5 -50s-4.5 -33.333 -4.5 -48s1.5 -28 4.5 -40s8.16699 -22.5 15.5 -31.5s17 -16 29 -21s27.333 -7.5 46 -7.5c31.333 0 58.666 8.83301 81.999 26.5s40.666 43.5 51.999 77.5l80 -31
c-17.333 -48.667 -44.333 -86 -81 -112s-82 -39 -136 -39c-60 0 -104.333 15.5 -133 46.5s-43 70.833 -43 119.5c0 12.667 1.66699 30.5 5 53.5s7 45.167 11 66.5l17 85l17 85c6 31.333 14 62 24 92s23.833 56.833 41.5 80.5s40.167 42.667 67.5 57s61.333 21.5 102 21.5z
M355.002 811l152 81l25 -34l-161 -124h-50l-113 124l38 32z" />
    <glyph glyph-name="ccaron" unicode="&#x10d;" horiz-adv-x="381" 
d="M178 -6c-30.667 0 -55.665 4.5 -74.998 13.5s-34.5 20.833 -45.5 35.5s-18.5 31.167 -22.5 49.5s-6 36.833 -6 55.5c0 19.333 1.33301 38.666 4 57.999s5.66699 38.666 9 57.999c6 31.333 14.5 61.333 25.5 90s25.5 53.834 43.5 75.501s39.667 39 65 52s55 19.5 89 19.5
c35.333 0 65.666 -9 90.999 -27s40.666 -44 45.999 -78l-74 -36c-3.33301 22 -11.333 38.333 -24 49s-28.667 16 -48 16c-20.667 0 -38.5 -4.66699 -53.5 -14s-27.833 -21.833 -38.5 -37.5s-19.5 -33.667 -26.5 -54s-12.5 -41.166 -16.5 -62.499
c-3.33301 -15.333 -6 -30.833 -8 -46.5s-3 -30.5 -3 -44.5c0 -33.333 6 -57.666 18 -72.999s33 -23 63 -23c19.333 0 37.5 5.66699 54.5 17s29.833 26.666 38.5 45.999l68 -38c-16.667 -28.667 -39.667 -52.667 -69 -72s-64.333 -29 -105 -29zM433.002 732l30 -35l-161 -144
h-50l-111 146l42 33l104 -102z" />
    <glyph glyph-name="Dcaron" unicode="&#x10e;" horiz-adv-x="515" 
d="M341 696c54 0 97.166 -12.333 129.499 -37s48.5 -63.334 48.5 -116.001c0 -20.667 -2.33301 -49 -7 -85s-10.667 -74 -18 -114c-4 -24 -8.5 -48 -13.5 -72s-10.167 -46.5 -15.5 -67.5s-10.666 -39.667 -15.999 -56s-10.333 -29.166 -15 -38.499
c-24.667 -44 -54 -73.333 -88 -88s-72 -22 -114 -22h-209l135 696h183zM419.999 398c2 10 3.99902 21.001 5.99902 33.001s3.83301 23.5 5.5 34.5l4.5 30.5c1.33301 9.33301 2 16.333 2 21c2 31.333 -5.33301 56.166 -22 74.499s-45.667 27.5 -87 27.5h-103l-52.5 -271.5
l-53.5 -271.5h103c28 0 51.333 3.5 70 10.5s34.334 17 47.001 30s22.5 28.833 29.5 47.5s12.833 39.667 17.5 63zM340.998 811.001l152 81l25 -34l-161 -124h-50l-113 124l38 32z" />
    <glyph glyph-name="dcaron" unicode="&#x10f;" horiz-adv-x="509" 
d="M145 -6c-21.333 0 -39.165 3.33301 -53.498 10s-26 16 -35 28s-15.5 26.5 -19.5 43.5s-6 35.833 -6 56.5c0 23.333 1.66699 47.333 5 72s6.66602 45.667 9.99902 63c6 32.667 14.167 63.167 24.5 91.5s23.333 53 39 74s34.334 37.5 56.001 49.5s46.5 18 74.5 18
c22.667 0 43 -4.66699 61 -14s32.667 -22.333 44 -39h2l55 279h79l-70.5 -363l-71.5 -363h-79l4 22.5l4 23.5c-0.666992 0 -1 0.166992 -1 0.5s-0.333008 0.5 -1 0.5c-16.667 -16.667 -34.334 -29.667 -53.001 -39s-41.334 -14 -68.001 -14zM187.001 73
c12.667 0 24.166 2.33496 34.499 7.00195s19.5 10.667 27.5 18s14.833 15.5 20.5 24.5s10.167 18.167 13.5 27.5c6 16 11 32.667 15 50s7.66699 34.666 11 51.999c3.33301 15.333 6.16602 30.333 8.49902 45s3.5 28.667 3.5 42c0 23.333 -5.5 42.666 -16.5 57.999
s-29.167 23 -54.5 23c-21.333 0 -39 -4.83301 -53 -14.5s-25.667 -22.334 -35 -38.001s-16.666 -33.5 -21.999 -53.5s-10 -40.333 -14 -61c-3.33301 -18 -6 -35.5 -8 -52.5s-3 -32.5 -3 -46.5c0 -23.333 4.83301 -42.666 14.5 -57.999s28.834 -23 57.501 -23zM538 532.002
h-47l48 88h-28l21 105h94l-20 -103z" />
    <glyph glyph-name="Dcroat" unicode="&#x110;" horiz-adv-x="515" 
d="M35 391h63.999l59 305h183c54 0 97.167 -12.333 129.5 -37s48.5 -63.334 48.5 -116.001c0 -20.667 -2.33301 -49 -7 -85s-10.667 -74 -18 -114c-4 -24 -8.5 -48 -13.5 -72s-10.167 -46.5 -15.5 -67.5s-10.666 -39.667 -15.999 -56s-10.333 -29.166 -15 -38.499
c-24.667 -44 -54 -73.333 -88 -88s-72 -22 -114 -22h-209l64 329h-64zM419.999 398c2 10 3.99902 21.001 5.99902 33.001s3.83301 23.5 5.5 34.5l4.5 30.5c1.33301 9.33301 2 16.333 2 21c2 31.333 -5.33301 56.166 -22 74.499s-45.667 27.5 -87 27.5h-103l-44 -228h82
l-13 -62h-81l-50 -253h103c28 0 51.333 3.5 70 10.5s34.334 17 47.001 30s22.5 28.833 29.5 47.5s12.833 39.667 17.5 63z" />
    <glyph glyph-name="dcroat" unicode="&#x111;" horiz-adv-x="428" 
d="M247 632h136.001l19 94h79l-18 -94h52l-11 -58h-53l-55.5 -287.5l-56.5 -286.5h-79l4 22.5l4 23.5c-0.666992 0 -1 0.166992 -1 0.5s-0.333008 0.5 -1 0.5c-16.667 -16.667 -34.334 -29.667 -53.001 -39s-41.334 -14 -68.001 -14c-21.333 0 -39.166 3.33301 -53.499 10
s-26 16 -35 28s-15.5 26.5 -19.5 43.5s-6 35.833 -6 56.5c0 23.333 1.66699 47.333 5 72s6.66602 45.667 9.99902 63c6 32.667 14.167 63.167 24.5 91.5s23.333 53 39 74s34.334 37.5 56.001 49.5s46.5 18 74.5 18c22.667 0 43 -4.66699 61 -14s32.667 -22.333 44 -39h2
l12 63.5c4 21 8.33301 42.167 13 63.5h-137zM187.001 73c12.667 0 24.166 2.33496 34.499 7.00195s19.5 10.667 27.5 18s14.833 15.5 20.5 24.5s10.167 18.167 13.5 27.5c6 16 11 32.667 15 50s7.66699 34.666 11 51.999c3.33301 15.333 6.16602 30.333 8.49902 45
s3.5 28.667 3.5 42c0 23.333 -5.5 42.666 -16.5 57.999s-29.167 23 -54.5 23c-21.333 0 -39 -4.83301 -53 -14.5s-25.667 -22.334 -35 -38.001s-16.666 -33.5 -21.999 -53.5s-10 -40.333 -14 -61c-3.33301 -18 -6 -35.5 -8 -52.5s-3 -32.5 -3 -46.5
c0 -23.333 4.83301 -42.666 14.5 -57.999s28.834 -23 57.501 -23z" />
    <glyph glyph-name="Emacron" unicode="&#x112;" horiz-adv-x="449" 
d="M24 0l135 696h365l-16 -77h-282l-44 -229h242l-14 -75h-242l-47 -238h282l-14 -77h-365zM223 760l14 71h253l-14 -71h-253z" />
    <glyph glyph-name="emacron" unicode="&#x113;" horiz-adv-x="414" 
d="M258 501c46 0 81.998 -10.832 107.998 -32.499s39 -51.5 39 -89.5c0 -26.667 -4.83301 -50.834 -14.5 -72.501s-24.5 -40.334 -44.5 -56.001s-45.333 -27.667 -76 -36s-67 -12.5 -109 -12.5c-7.33301 0 -15.5 0.166992 -24.5 0.5s-17.5 0.833008 -25.5 1.5
c-2 -14 -3 -28 -3 -42c0 -12 1.16699 -23.667 3.5 -35s6.16602 -21.166 11.499 -29.499s12.833 -15 22.5 -20s21.834 -7.5 36.501 -7.5c8.66699 0 18 1.5 28 4.5s19.833 7 29.5 12s18.667 11 27 18s15.166 14.5 20.499 22.5l66 -36c-19.333 -28.667 -43.666 -52 -72.999 -70
s-64.666 -27 -105.999 -27c-27.333 0 -50.166 4.5 -68.499 13.5s-32.833 21 -43.5 36s-18.167 32.5 -22.5 52.5s-6.5 40.667 -6.5 62c0 34.667 3.5 72.167 10.5 112.5s19.167 77.5 36.5 111.5s40.333 62.333 69 85s65 34 109 34zM250.998 427.001
c-34.667 0 -62.1699 -13.667 -82.5029 -41s-35.166 -64.666 -44.499 -111.999c7.33301 -0.666992 15 -1.16699 23 -1.5s15.667 -0.5 23 -0.5c56.667 0 96.834 9.16699 120.501 27.5s35.5 41.166 35.5 68.499c0 17.333 -6.66699 31.5 -20 42.5s-31.666 16.5 -54.999 16.5z
M149.995 594.001l14 71h254l-15 -71h-253z" />
    <glyph glyph-name="Ebreve" unicode="&#x114;" horiz-adv-x="449" 
d="M24 0l135 696h365l-16 -77h-282l-44 -229h242l-14 -75h-242l-47 -238h282l-14 -77h-365zM298 866c-2.66699 -15.333 0.166992 -29.666 8.5 -42.999s23.5 -20 45.5 -20c13.333 0 24.833 2 34.5 6s18 9.16699 25 15.5s12.333 13.166 16 20.499s6.16699 14.333 7.5 21h69
c-2.66699 -14.667 -7.66699 -29.5 -15 -44.5s-17.5 -28.5 -30.5 -40.5s-29 -21.667 -48 -29s-41.167 -11 -66.5 -11s-46 4.16699 -62 12.5s-28.333 18.666 -37 30.999s-14 25.833 -16 40.5s-2 28.334 0 41.001h69z" />
    <glyph glyph-name="ebreve" unicode="&#x115;" horiz-adv-x="414" 
d="M258 501c46 0 81.998 -10.832 107.998 -32.499s39 -51.5 39 -89.5c0 -26.667 -4.83301 -50.834 -14.5 -72.501s-24.5 -40.334 -44.5 -56.001s-45.333 -27.667 -76 -36s-67 -12.5 -109 -12.5c-7.33301 0 -15.5 0.166992 -24.5 0.5s-17.5 0.833008 -25.5 1.5
c-2 -14 -3 -28 -3 -42c0 -12 1.16699 -23.667 3.5 -35s6.16602 -21.166 11.499 -29.499s12.833 -15 22.5 -20s21.834 -7.5 36.501 -7.5c8.66699 0 18 1.5 28 4.5s19.833 7 29.5 12s18.667 11 27 18s15.166 14.5 20.499 22.5l66 -36c-19.333 -28.667 -43.666 -52 -72.999 -70
s-64.666 -27 -105.999 -27c-27.333 0 -50.166 4.5 -68.499 13.5s-32.833 21 -43.5 36s-18.167 32.5 -22.5 52.5s-6.5 40.667 -6.5 62c0 34.667 3.5 72.167 10.5 112.5s19.167 77.5 36.5 111.5s40.333 62.333 69 85s65 34 109 34zM250.998 427.001
c-34.667 0 -62.1699 -13.667 -82.5029 -41s-35.166 -64.666 -44.499 -111.999c7.33301 -0.666992 15 -1.16699 23 -1.5s15.667 -0.5 23 -0.5c56.667 0 96.834 9.16699 120.501 27.5s35.5 41.166 35.5 68.499c0 17.333 -6.66699 31.5 -20 42.5s-31.666 16.5 -54.999 16.5z
M223.995 699.001c-0.666992 -6.66699 -0.167969 -13.835 1.49902 -21.502s4.83398 -14.834 9.50098 -21.501s10.834 -12.167 18.501 -16.5s17.167 -6.5 28.5 -6.5s21.666 2 30.999 6s17.5 9.16699 24.5 15.5s12.833 13.5 17.5 21.5s7.66699 15.667 9 23h73
c-4 -15.333 -10 -30.666 -18 -45.999s-18.5 -29.166 -31.5 -41.499s-28.5 -22.333 -46.5 -30s-39 -11.5 -63 -11.5c-24.667 0 -45.167 3.5 -61.5 10.5s-29.333 16.5 -39 28.5s-16 25.833 -19 41.5s-3.5 31.834 -1.5 48.501h67z" />
    <glyph glyph-name="Edotaccent" unicode="&#x116;" horiz-adv-x="449" 
d="M24 0l135 696h365l-16 -77h-282l-44 -229h242l-14 -75h-242l-47 -238h282l-14 -77h-365zM306 754l16 84h78l-16 -84h-78z" />
    <glyph glyph-name="edotaccent" unicode="&#x117;" horiz-adv-x="414" 
d="M258 501c46 0 81.998 -10.832 107.998 -32.499s39 -51.5 39 -89.5c0 -26.667 -4.83301 -50.834 -14.5 -72.501s-24.5 -40.334 -44.5 -56.001s-45.333 -27.667 -76 -36s-67 -12.5 -109 -12.5c-7.33301 0 -15.5 0.166992 -24.5 0.5s-17.5 0.833008 -25.5 1.5
c-2 -14 -3 -28 -3 -42c0 -12 1.16699 -23.667 3.5 -35s6.16602 -21.166 11.499 -29.499s12.833 -15 22.5 -20s21.834 -7.5 36.501 -7.5c8.66699 0 18 1.5 28 4.5s19.833 7 29.5 12s18.667 11 27 18s15.166 14.5 20.499 22.5l66 -36c-19.333 -28.667 -43.666 -52 -72.999 -70
s-64.666 -27 -105.999 -27c-27.333 0 -50.166 4.5 -68.499 13.5s-32.833 21 -43.5 36s-18.167 32.5 -22.5 52.5s-6.5 40.667 -6.5 62c0 34.667 3.5 72.167 10.5 112.5s19.167 77.5 36.5 111.5s40.333 62.333 69 85s65 34 109 34zM250.998 427.001
c-34.667 0 -62.1699 -13.667 -82.5029 -41s-35.166 -64.666 -44.499 -111.999c7.33301 -0.666992 15 -1.16699 23 -1.5s15.667 -0.5 23 -0.5c56.667 0 96.834 9.16699 120.501 27.5s35.5 41.166 35.5 68.499c0 17.333 -6.66699 31.5 -20 42.5s-31.666 16.5 -54.999 16.5z
M218.995 587.001l16 84h78l-16 -84h-78z" />
    <glyph glyph-name="Eogonek" unicode="&#x118;" horiz-adv-x="449" 
d="M353 -180c-23.333 0 -41.667 6.83203 -55 20.499s-20 30.5 -20 50.5c0 16 4 32.333 12 49s22 36.667 42 60h-308l135 696h365l-16 -77h-282l-44 -229h242l-14 -75h-242l-47 -238h282l-14 -77h-1c-30.667 -35.333 -46 -65.666 -46 -90.999c0 -21.333 12.333 -32 37 -32
c14 0 32.667 6 56 18l9 -50c-13.333 -7.33301 -28 -13.333 -44 -18s-31.667 -7 -47 -7z" />
    <glyph glyph-name="eogonek" unicode="&#x119;" horiz-adv-x="414" 
d="M255 -153c-23.333 0 -41.666 6.83203 -54.999 20.499s-20 30.5 -20 50.5c0 12 2.16699 24.333 6.5 37s12.166 26.667 23.499 42c-12 -2 -24 -3 -36 -3c-27.333 0 -50.166 4.5 -68.499 13.5s-32.833 21 -43.5 36s-18.167 32.5 -22.5 52.5s-6.5 40.667 -6.5 62
c0 34.667 3.5 72.167 10.5 112.5s19.167 77.5 36.5 111.5s40.333 62.333 69 85s65 34 109 34c46 0 82 -10.833 108 -32.5s39 -51.5 39 -89.5c0 -26.667 -4.83301 -50.834 -14.5 -72.501s-24.5 -40.334 -44.5 -56.001s-45.333 -27.667 -76 -36s-67 -12.5 -109 -12.5
c-7.33301 0 -15.5 0.166992 -24.5 0.5s-17.5 0.833008 -25.5 1.5c-2 -14 -3 -28 -3 -42c0 -12 1.16699 -23.667 3.5 -35s6.16602 -21.166 11.499 -29.499s12.833 -15 22.5 -20s21.834 -7.5 36.501 -7.5c8.66699 0 18 1.5 28 4.5s19.833 7 29.5 12s18.667 11 27 18
s15.166 14.5 20.499 22.5l66 -36c-18 -27.333 -39 -48.666 -63 -63.999c-30.667 -35.333 -46 -65.666 -46 -90.999c0 -21.333 12.333 -32 37 -32c14 0 32.667 6 56 18l9 -50c-13.333 -7.33301 -28 -13.333 -44 -18s-31.667 -7 -47 -7zM251 426.999
c-34.667 0 -62.1699 -13.667 -82.5029 -41s-35.166 -64.666 -44.499 -111.999c7.33301 -0.666992 15 -1.16699 23 -1.5s15.667 -0.5 23 -0.5c56.667 0 96.834 9.16699 120.501 27.5s35.5 41.166 35.5 68.499c0 17.333 -6.66699 31.5 -20 42.5s-31.666 16.5 -54.999 16.5z
" />
    <glyph glyph-name="Ecaron" unicode="&#x11a;" horiz-adv-x="449" 
d="M24 0l135 696h365l-16 -77h-282l-44 -229h242l-14 -75h-242l-47 -238h282l-14 -77h-365zM335 811l152 81l25 -34l-161 -124h-50l-113 124l38 32z" />
    <glyph glyph-name="ecaron" unicode="&#x11b;" horiz-adv-x="414" 
d="M258 501c46 0 81.998 -10.832 107.998 -32.499s39 -51.5 39 -89.5c0 -26.667 -4.83301 -50.834 -14.5 -72.501s-24.5 -40.334 -44.5 -56.001s-45.333 -27.667 -76 -36s-67 -12.5 -109 -12.5c-7.33301 0 -15.5 0.166992 -24.5 0.5s-17.5 0.833008 -25.5 1.5
c-2 -14 -3 -28 -3 -42c0 -12 1.16699 -23.667 3.5 -35s6.16602 -21.166 11.499 -29.499s12.833 -15 22.5 -20s21.834 -7.5 36.501 -7.5c8.66699 0 18 1.5 28 4.5s19.833 7 29.5 12s18.667 11 27 18s15.166 14.5 20.499 22.5l66 -36c-19.333 -28.667 -43.666 -52 -72.999 -70
s-64.666 -27 -105.999 -27c-27.333 0 -50.166 4.5 -68.499 13.5s-32.833 21 -43.5 36s-18.167 32.5 -22.5 52.5s-6.5 40.667 -6.5 62c0 34.667 3.5 72.167 10.5 112.5s19.167 77.5 36.5 111.5s40.333 62.333 69 85s65 34 109 34zM250.998 427.001
c-34.667 0 -62.1699 -13.667 -82.5029 -41s-35.166 -64.666 -44.499 -111.999c7.33301 -0.666992 15 -1.16699 23 -1.5s15.667 -0.5 23 -0.5c56.667 0 96.834 9.16699 120.501 27.5s35.5 41.166 35.5 68.499c0 17.333 -6.66699 31.5 -20 42.5s-31.666 16.5 -54.999 16.5z
M421.995 732.001l30 -35l-161 -144h-50l-111 146l42 33l104 -102z" />
    <glyph glyph-name="Gcircumflex" unicode="&#x11c;" horiz-adv-x="500" 
d="M323 701c57.333 0 100.332 -14 128.999 -42s44.334 -65 47.001 -111l-84 -25c0 30 -8 54 -24 72s-39 27 -69 27c-22 0 -40.5 -3.16699 -55.5 -9.5s-27.667 -14.833 -38 -25.5s-18.833 -22.667 -25.5 -36s-12.334 -27 -17.001 -41c-11.333 -38 -20.5 -77.5 -27.5 -118.5
s-14.5 -81.5 -22.5 -121.5c-3.33301 -16 -6.5 -32.667 -9.5 -50s-4.5 -33.333 -4.5 -48s1.5 -28.167 4.5 -40.5s8.16699 -23 15.5 -32s17.5 -16 30.5 -21s29.167 -7.5 48.5 -7.5c26.667 0 49 5.16699 67 15.5s32.833 23.833 44.5 40.5s20.834 35.667 27.501 57s12 43 16 65
l10 51h-112l14 74h197l-27 -135c-7.33301 -34.667 -16.666 -67 -27.999 -97s-26.333 -56 -45 -78s-41.834 -39.167 -69.501 -51.5s-61.5 -18.5 -101.5 -18.5c-60 0 -104.333 15.5 -133 46.5s-43 70.833 -43 119.5c0 12.667 1.66699 30.5 5 53.5s7 45.167 11 66.5l17 85
l17 85c6 31.333 14 62 24 92s23.833 56.833 41.5 80.5s40.167 42.667 67.5 57s61.333 21.5 102 21.5zM351.999 815l-152 -82l-27 33l165 125h50l109 -123l-35 -33z" />
    <glyph glyph-name="gcircumflex" unicode="&#x11d;" horiz-adv-x="436" 
d="M341 0c-5.33301 -27.333 -12.001 -53.333 -20.001 -78s-19.167 -46.334 -33.5 -65.001s-33.166 -33.334 -56.499 -44.001s-53 -16 -89 -16c-34.667 0 -65.5 7.5 -92.5 22.5s-44.833 35.833 -53.5 62.5l66 45c7.33301 -16.667 17.5 -29.834 30.5 -39.501
s30.167 -14.5 51.5 -14.5c28 0 50 7 66 21s27.667 31.667 35 53c5.33301 16.667 10.166 33.834 14.499 51.501s8.16602 35.5 11.499 53.5h-2c-17.333 -20 -36.666 -34.333 -57.999 -43s-42.666 -13 -63.999 -13c-22 0 -40.333 3.33301 -55 10s-26.5 16 -35.5 28
s-15.333 26.167 -19 42.5s-5.5 34.166 -5.5 53.499c0 18 1.16699 37.833 3.5 59.5s5.83301 44.167 10.5 67.5s10.5 46.5 17.5 69.5s14.833 44.833 23.5 65.5s19 37.834 31 51.501s24.833 24.834 38.5 33.501s28 14.834 43 18.501s29.5 5.5 43.5 5.5
c22 0 42.167 -4.5 60.5 -13.5s32.5 -22.167 42.5 -39.5c0.666992 0 1 0.166992 1 0.5s0.333008 0.5 1 0.5l10 46h79zM253.999 422c-20 0 -36.8311 -4.00098 -50.498 -12.001s-25.334 -19.333 -35.001 -34s-17.834 -32.334 -24.501 -53.001s-12.334 -44 -17.001 -70
c-6 -33.333 -10 -63.333 -12 -90c-1.33301 -25.333 2.83398 -46.333 12.501 -63s29.167 -25 58.5 -25c26 0 47.5 8.66699 64.5 26s29.5 37 37.5 59c8.66699 24.667 15.5 50.334 20.5 77.001s8.83301 52.334 11.5 77.001c0.666992 12 0.833984 24.5 0.500977 37.5
s-2.5 24.667 -6.5 35s-10.833 18.833 -20.5 25.5s-22.834 10 -39.501 10zM297.001 655.999l-151 -104l-32 33l168 146h50l106 -144l-43 -34z" />
    <glyph glyph-name="Gbreve" unicode="&#x11e;" horiz-adv-x="500" 
d="M323 701c57.333 0 100.332 -14 128.999 -42s44.334 -65 47.001 -111l-84 -25c0 30 -8 54 -24 72s-39 27 -69 27c-22 0 -40.5 -3.16699 -55.5 -9.5s-27.667 -14.833 -38 -25.5s-18.833 -22.667 -25.5 -36s-12.334 -27 -17.001 -41c-11.333 -38 -20.5 -77.5 -27.5 -118.5
s-14.5 -81.5 -22.5 -121.5c-3.33301 -16 -6.5 -32.667 -9.5 -50s-4.5 -33.333 -4.5 -48s1.5 -28.167 4.5 -40.5s8.16699 -23 15.5 -32s17.5 -16 30.5 -21s29.167 -7.5 48.5 -7.5c26.667 0 49 5.16699 67 15.5s32.833 23.833 44.5 40.5s20.834 35.667 27.501 57s12 43 16 65
l10 51h-112l14 74h197l-27 -135c-7.33301 -34.667 -16.666 -67 -27.999 -97s-26.333 -56 -45 -78s-41.834 -39.167 -69.501 -51.5s-61.5 -18.5 -101.5 -18.5c-60 0 -104.333 15.5 -133 46.5s-43 70.833 -43 119.5c0 12.667 1.66699 30.5 5 53.5s7 45.167 11 66.5l17 85
l17 85c6 31.333 14 62 24 92s23.833 56.833 41.5 80.5s40.167 42.667 67.5 57s61.333 21.5 102 21.5zM299.999 866c-2.66699 -15.333 0.166992 -29.666 8.5 -42.999s23.5 -20 45.5 -20c13.333 0 24.833 2 34.5 6s18 9.16699 25 15.5s12.333 13.166 16 20.499
s6.16699 14.333 7.5 21h69c-2.66699 -14.667 -7.66699 -29.5 -15 -44.5s-17.5 -28.5 -30.5 -40.5s-29 -21.667 -48 -29s-41.167 -11 -66.5 -11s-46 4.16699 -62 12.5s-28.333 18.666 -37 30.999s-14 25.833 -16 40.5s-2 28.334 0 41.001h69z" />
    <glyph glyph-name="gbreve" unicode="&#x11f;" horiz-adv-x="436" 
d="M341 0c-5.33301 -27.333 -12.001 -53.333 -20.001 -78s-19.167 -46.334 -33.5 -65.001s-33.166 -33.334 -56.499 -44.001s-53 -16 -89 -16c-34.667 0 -65.5 7.5 -92.5 22.5s-44.833 35.833 -53.5 62.5l66 45c7.33301 -16.667 17.5 -29.834 30.5 -39.501
s30.167 -14.5 51.5 -14.5c28 0 50 7 66 21s27.667 31.667 35 53c5.33301 16.667 10.166 33.834 14.499 51.501s8.16602 35.5 11.499 53.5h-2c-17.333 -20 -36.666 -34.333 -57.999 -43s-42.666 -13 -63.999 -13c-22 0 -40.333 3.33301 -55 10s-26.5 16 -35.5 28
s-15.333 26.167 -19 42.5s-5.5 34.166 -5.5 53.499c0 18 1.16699 37.833 3.5 59.5s5.83301 44.167 10.5 67.5s10.5 46.5 17.5 69.5s14.833 44.833 23.5 65.5s19 37.834 31 51.501s24.833 24.834 38.5 33.501s28 14.834 43 18.501s29.5 5.5 43.5 5.5
c22 0 42.167 -4.5 60.5 -13.5s32.5 -22.167 42.5 -39.5c0.666992 0 1 0.166992 1 0.5s0.333008 0.5 1 0.5l10 46h79zM253.999 422c-20 0 -36.8311 -4.00098 -50.498 -12.001s-25.334 -19.333 -35.001 -34s-17.834 -32.334 -24.501 -53.001s-12.334 -44 -17.001 -70
c-6 -33.333 -10 -63.333 -12 -90c-1.33301 -25.333 2.83398 -46.333 12.501 -63s29.167 -25 58.5 -25c26 0 47.5 8.66699 64.5 26s29.5 37 37.5 59c8.66699 24.667 15.5 50.334 20.5 77.001s8.83301 52.334 11.5 77.001c0.666992 12 0.833984 24.5 0.500977 37.5
s-2.5 24.667 -6.5 35s-10.833 18.833 -20.5 25.5s-22.834 10 -39.501 10zM231.001 698.999c-0.666992 -6.66699 -0.167969 -13.835 1.49902 -21.502s4.83398 -14.834 9.50098 -21.501s10.834 -12.167 18.501 -16.5s17.167 -6.5 28.5 -6.5s21.666 2 30.999 6
s17.5 9.16699 24.5 15.5s12.833 13.5 17.5 21.5s7.66699 15.667 9 23h73c-4 -15.333 -10 -30.666 -18 -45.999s-18.5 -29.166 -31.5 -41.499s-28.5 -22.333 -46.5 -30s-39 -11.5 -63 -11.5c-24.667 0 -45.167 3.5 -61.5 10.5s-29.333 16.5 -39 28.5s-16 25.833 -19 41.5
s-3.5 31.834 -1.5 48.501h67z" />
    <glyph glyph-name="Gdotaccent" unicode="&#x120;" horiz-adv-x="500" 
d="M323 701c57.333 0 100.332 -14 128.999 -42s44.334 -65 47.001 -111l-84 -25c0 30 -8 54 -24 72s-39 27 -69 27c-22 0 -40.5 -3.16699 -55.5 -9.5s-27.667 -14.833 -38 -25.5s-18.833 -22.667 -25.5 -36s-12.334 -27 -17.001 -41c-11.333 -38 -20.5 -77.5 -27.5 -118.5
s-14.5 -81.5 -22.5 -121.5c-3.33301 -16 -6.5 -32.667 -9.5 -50s-4.5 -33.333 -4.5 -48s1.5 -28.167 4.5 -40.5s8.16699 -23 15.5 -32s17.5 -16 30.5 -21s29.167 -7.5 48.5 -7.5c26.667 0 49 5.16699 67 15.5s32.833 23.833 44.5 40.5s20.834 35.667 27.501 57s12 43 16 65
l10 51h-112l14 74h197l-27 -135c-7.33301 -34.667 -16.666 -67 -27.999 -97s-26.333 -56 -45 -78s-41.834 -39.167 -69.501 -51.5s-61.5 -18.5 -101.5 -18.5c-60 0 -104.333 15.5 -133 46.5s-43 70.833 -43 119.5c0 12.667 1.66699 30.5 5 53.5s7 45.167 11 66.5l17 85
l17 85c6 31.333 14 62 24 92s23.833 56.833 41.5 80.5s40.167 42.667 67.5 57s61.333 21.5 102 21.5zM304.999 747l16 84h78l-16 -84h-78z" />
    <glyph glyph-name="gdotaccent" unicode="&#x121;" horiz-adv-x="436" 
d="M341 0c-5.33301 -27.333 -12.001 -53.333 -20.001 -78s-19.167 -46.334 -33.5 -65.001s-33.166 -33.334 -56.499 -44.001s-53 -16 -89 -16c-34.667 0 -65.5 7.5 -92.5 22.5s-44.833 35.833 -53.5 62.5l66 45c7.33301 -16.667 17.5 -29.834 30.5 -39.501
s30.167 -14.5 51.5 -14.5c28 0 50 7 66 21s27.667 31.667 35 53c5.33301 16.667 10.166 33.834 14.499 51.501s8.16602 35.5 11.499 53.5h-2c-17.333 -20 -36.666 -34.333 -57.999 -43s-42.666 -13 -63.999 -13c-22 0 -40.333 3.33301 -55 10s-26.5 16 -35.5 28
s-15.333 26.167 -19 42.5s-5.5 34.166 -5.5 53.499c0 18 1.16699 37.833 3.5 59.5s5.83301 44.167 10.5 67.5s10.5 46.5 17.5 69.5s14.833 44.833 23.5 65.5s19 37.834 31 51.501s24.833 24.834 38.5 33.501s28 14.834 43 18.501s29.5 5.5 43.5 5.5
c22 0 42.167 -4.5 60.5 -13.5s32.5 -22.167 42.5 -39.5c0.666992 0 1 0.166992 1 0.5s0.333008 0.5 1 0.5l10 46h79zM253.999 422c-20 0 -36.8311 -4.00098 -50.498 -12.001s-25.334 -19.333 -35.001 -34s-17.834 -32.334 -24.501 -53.001s-12.334 -44 -17.001 -70
c-6 -33.333 -10 -63.333 -12 -90c-1.33301 -25.333 2.83398 -46.333 12.501 -63s29.167 -25 58.5 -25c26 0 47.5 8.66699 64.5 26s29.5 37 37.5 59c8.66699 24.667 15.5 50.334 20.5 77.001s8.83301 52.334 11.5 77.001c0.666992 12 0.833984 24.5 0.500977 37.5
s-2.5 24.667 -6.5 35s-10.833 18.833 -20.5 25.5s-22.834 10 -39.501 10zM240.001 586.999l16 84h78l-16 -84h-78z" />
    <glyph glyph-name="Gcommaaccent" unicode="&#x122;" horiz-adv-x="500" 
d="M323 701c57.333 0 100.332 -14 128.999 -42s44.334 -65 47.001 -111l-84 -25c0 30 -8 54 -24 72s-39 27 -69 27c-22 0 -40.5 -3.16699 -55.5 -9.5s-27.667 -14.833 -38 -25.5s-18.833 -22.667 -25.5 -36s-12.334 -27 -17.001 -41c-11.333 -38 -20.5 -77.5 -27.5 -118.5
s-14.5 -81.5 -22.5 -121.5c-3.33301 -16 -6.5 -32.667 -9.5 -50s-4.5 -33.333 -4.5 -48s1.5 -28.167 4.5 -40.5s8.16699 -23 15.5 -32s17.5 -16 30.5 -21s29.167 -7.5 48.5 -7.5c26.667 0 49 5.16699 67 15.5s32.833 23.833 44.5 40.5s20.834 35.667 27.501 57s12 43 16 65
l10 51h-112l14 74h197l-27 -135c-7.33301 -34.667 -16.666 -67 -27.999 -97s-26.333 -56 -45 -78s-41.834 -39.167 -69.501 -51.5s-61.5 -18.5 -101.5 -18.5c-60 0 -104.333 15.5 -133 46.5s-43 70.833 -43 119.5c0 12.667 1.66699 30.5 5 53.5s7 45.167 11 66.5l17 85
l17 85c6 31.333 14 62 24 92s23.833 56.833 41.5 80.5s40.167 42.667 67.5 57s61.333 21.5 102 21.5zM159.999 -254h-47l48 88h-28l21 105h94l-20 -103z" />
    <glyph glyph-name="gcommaaccent" unicode="&#x123;" horiz-adv-x="436" 
d="M341 0c-5.33301 -27.333 -12.001 -53.333 -20.001 -78s-19.167 -46.334 -33.5 -65.001s-33.166 -33.334 -56.499 -44.001s-53 -16 -89 -16c-34.667 0 -65.5 7.5 -92.5 22.5s-44.833 35.833 -53.5 62.5l66 45c7.33301 -16.667 17.5 -29.834 30.5 -39.501
s30.167 -14.5 51.5 -14.5c28 0 50 7 66 21s27.667 31.667 35 53c5.33301 16.667 10.166 33.834 14.499 51.501s8.16602 35.5 11.499 53.5h-2c-17.333 -20 -36.666 -34.333 -57.999 -43s-42.666 -13 -63.999 -13c-22 0 -40.333 3.33301 -55 10s-26.5 16 -35.5 28
s-15.333 26.167 -19 42.5s-5.5 34.166 -5.5 53.499c0 18 1.16699 37.833 3.5 59.5s5.83301 44.167 10.5 67.5s10.5 46.5 17.5 69.5s14.833 44.833 23.5 65.5s19 37.834 31 51.501s24.833 24.834 38.5 33.501s28 14.834 43 18.501s29.5 5.5 43.5 5.5
c22 0 42.167 -4.5 60.5 -13.5s32.5 -22.167 42.5 -39.5c0.666992 0 1 0.166992 1 0.5s0.333008 0.5 1 0.5l10 46h79zM253.999 422c-20 0 -36.8311 -4.00098 -50.498 -12.001s-25.334 -19.333 -35.001 -34s-17.834 -32.334 -24.501 -53.001s-12.334 -44 -17.001 -70
c-6 -33.333 -10 -63.333 -12 -90c-1.33301 -25.333 2.83398 -46.333 12.501 -63s29.167 -25 58.5 -25c26 0 47.5 8.66699 64.5 26s29.5 37 37.5 59c8.66699 24.667 15.5 50.334 20.5 77.001s8.83301 52.334 11.5 77.001c0.666992 12 0.833984 24.5 0.500977 37.5
s-2.5 24.667 -6.5 35s-10.833 18.833 -20.5 25.5s-22.834 10 -39.501 10zM325.001 756.999h47l-48 -89h28l-21 -104h-94l19 102z" />
    <glyph glyph-name="Hcircumflex" unicode="&#x124;" horiz-adv-x="525" 
d="M339 0l61 317h-232l-61 -317h-83l135 696h83l-60 -306h232l60 306h82l-135 -696h-82zM384 815l-152 -82l-27 33l165 125h50l109 -123l-35 -33z" />
    <glyph glyph-name="hcircumflex" unicode="&#x125;" horiz-adv-x="444" 
d="M271 0l22.501 113l20.5 104.5l15 79c4 21 6 32.833 6 35.5c3.33301 24 0.5 44.667 -8.5 62s-28.5 26 -58.5 26c-28.667 0 -53.334 -9.5 -74.001 -28.5s-34 -44.167 -40 -75.5l-62 -316h-79l140 727h80l-56 -288h3c19.333 21.333 39.833 36.833 61.5 46.5
s43.5 14.5 65.5 14.5c37.333 0 66.833 -12 88.5 -36s29.5 -58.333 23.5 -103c0 -3.33301 -2 -16 -6 -38l-15.5 -83.5l-21.5 -113l-24 -126.5h-81zM208.001 815l-152 -82l-27 33l165 125h50l109 -123l-35 -33z" />
    <glyph glyph-name="Hbar" unicode="&#x126;" horiz-adv-x="525" 
d="M339 0l61 317h-232l-61 -317h-83l104 537h-54l11 58h54l20 101h83l-20 -101h232l20 101h82l-20 -101h51l-11 -58h-51l-104 -537h-82zM414 390l29 147h-232l-29 -147h232z" />
    <glyph glyph-name="hbar" unicode="&#x127;" horiz-adv-x="444" 
d="M271 0l22.501 113l20.5 104.5l15 79c4 21 6 32.833 6 35.5c3.33301 24 0.5 44.667 -8.5 62s-28.5 26 -58.5 26c-28.667 0 -53.334 -9.5 -74.001 -28.5s-34 -44.167 -40 -75.5l-62 -316h-79l112 582h-57l12 58h56l17 87h80l-17 -87h172l-12 -58h-171l-28 -143h3
c19.333 21.333 39.833 36.833 61.5 46.5s43.5 14.5 65.5 14.5c37.333 0 66.833 -12 88.5 -36s29.5 -58.333 23.5 -103c0 -3.33301 -2 -16 -6 -38l-15.5 -83.5l-21.5 -113l-24 -126.5h-81z" />
    <glyph glyph-name="Itilde" unicode="&#x128;" horiz-adv-x="214" 
d="M25 0l136 696h83l-135 -696h-84zM165 854c10.667 0 21.168 -2.16699 31.501 -6.5s20.5 -9 30.5 -14l29 -14c9.33301 -4.33301 18.333 -6.5 27 -6.5c9.33301 0 18.666 3 27.999 9s20 16.667 32 32l43 -28c-16 -30.667 -33.667 -52 -53 -64s-37.666 -18 -54.999 -18
c-11.333 0 -22.166 2 -32.499 6s-20.5 8.5 -30.5 13.5l-29 14c-9.33301 4.33301 -18.333 6.5 -27 6.5c-10 0 -19.167 -3.5 -27.5 -10.5s-18.833 -17.167 -31.5 -30.5l-45 30c15.333 26 32.666 46 51.999 60s38.666 21 57.999 21z" />
    <glyph glyph-name="itilde" unicode="&#x129;" horiz-adv-x="264" 
d="M61 0l96 495h80l-96 -495h-80zM159 689c10.667 0 21.168 -2.16699 31.501 -6.5s20.5 -9 30.5 -14l29 -14c9.33301 -4.33301 18.333 -6.5 27 -6.5c9.33301 0 18.666 3 27.999 9s20 16.667 32 32l43 -28c-16 -30.667 -33.667 -52 -53 -64s-37.666 -18 -54.999 -18
c-11.333 0 -22.166 2 -32.499 6s-20.5 8.5 -30.5 13.5l-29 14c-9.33301 4.33301 -18.333 6.5 -27 6.5c-10 0 -19.167 -3.5 -27.5 -10.5s-18.833 -17.167 -31.5 -30.5l-45 30c15.333 26 32.666 46 51.999 60s38.666 21 57.999 21z" />
    <glyph glyph-name="Imacron" unicode="&#x12a;" horiz-adv-x="214" 
d="M25 0l136 696h83l-135 -696h-84zM83 760l14 71h253l-14 -71h-253z" />
    <glyph glyph-name="imacron" unicode="&#x12b;" horiz-adv-x="242" 
d="M37 0l96 495h80l-96 -495h-80zM69 594l14 71h254l-15 -71h-253z" />
    <glyph glyph-name="Ibreve" unicode="&#x12c;" horiz-adv-x="252" 
d="M35 0l136 696h83l-135 -696h-84zM182 866c-2.66699 -15.333 0.166992 -29.666 8.5 -42.999s23.5 -20 45.5 -20c13.333 0 24.833 2 34.5 6s18 9.16699 25 15.5s12.333 13.166 16 20.499s6.16699 14.333 7.5 21h69c-2.66699 -14.667 -7.66699 -29.5 -15 -44.5
s-17.5 -28.5 -30.5 -40.5s-29 -21.667 -48 -29s-41.167 -11 -66.5 -11s-46 4.16699 -62 12.5s-28.333 18.666 -37 30.999s-14 25.833 -16 40.5s-2 28.334 0 41.001h69z" />
    <glyph glyph-name="ibreve" unicode="&#x12d;" horiz-adv-x="250" 
d="M54 0l96 495h80l-96 -495h-80zM149 705c-0.666992 -6.66699 -0.167969 -13.835 1.49902 -21.502s4.83398 -14.834 9.50098 -21.501s10.834 -12.167 18.501 -16.5s17.167 -6.5 28.5 -6.5s21.666 2 30.999 6s17.5 9.16699 24.5 15.5s12.833 13.5 17.5 21.5
s7.66699 15.667 9 23h73c-4 -15.333 -10 -30.666 -18 -45.999s-18.5 -29.166 -31.5 -41.499s-28.5 -22.333 -46.5 -30s-39 -11.5 -63 -11.5c-24.667 0 -45.167 3.5 -61.5 10.5s-29.333 16.5 -39 28.5s-16 25.833 -19 41.5s-3.5 31.834 -1.5 48.501h67z" />
    <glyph glyph-name="Iogonek" unicode="&#x12e;" horiz-adv-x="214" 
d="M61 -179c-23.333 0 -41.667 6.83203 -55 20.499s-20 30.5 -20 50.5c0 16 4 32.333 12 49s21.667 36.334 41 59.001h-14l136 696h83l-135 -696h-14c-30 -34 -45 -64 -45 -90c0 -21.333 12.333 -32 37 -32c14 0 32.667 6 56 18l9 -50c-13.333 -7.33301 -28 -13.333 -44 -18
s-31.667 -7 -47 -7z" />
    <glyph glyph-name="iogonek" unicode="&#x12f;" horiz-adv-x="195" 
d="M51 -179c-23.333 0 -41.667 6.83203 -55 20.499s-20 30.5 -20 50.5c0 16 4 32.333 12 49s21.667 36.334 41 59.001h-12l96 495h80l-96 -495h-12c-30 -34 -45 -64 -45 -90c0 -21.333 12.333 -32 37 -32c14 0 32.667 6 56 18l9 -50c-13.333 -7.33301 -28 -13.333 -44 -18
s-31.667 -7 -47 -7zM135.999 614.999l16 81h80l-16 -81h-80z" />
    <glyph glyph-name="Idotaccent" unicode="&#x130;" horiz-adv-x="214" 
d="M25 0l136 696h83l-135 -696h-84zM171 747l16 84h78l-16 -84h-78z" />
    <glyph glyph-name="dotlessi" unicode="&#x131;" horiz-adv-x="195" 
d="M17 0l96 495h80l-96 -495h-80z" />
    <glyph glyph-name="IJ" unicode="&#x132;" horiz-adv-x="608" 
d="M25 0l136 696h83l-135 -696h-84zM537 182c-7.33301 -35.333 -17.167 -65 -29.5 -89s-27.5 -43.333 -45.5 -58s-38.333 -25.167 -61 -31.5s-47.334 -9.5 -74.001 -9.5c-32 0 -60.167 6.16699 -84.5 18.5s-43.166 29.833 -56.499 52.5l64 48c8 -12.667 19.333 -23 34 -31
s29.667 -12 45 -12c30.667 0 57 8.33301 79 25s37.667 47 47 91l99 510h83z" />
    <glyph glyph-name="ij" unicode="&#x133;" horiz-adv-x="421" 
d="M136 615l16 81h80l-16 -81h-80zM17 0l96 495h80l-96 -495h-80zM357 615l16 81h81l-16 -81h-81zM305 -66c-3.33301 -18 -8.66699 -35.1699 -16 -51.5029s-17 -30.5 -29 -42.5s-26.333 -21.667 -43 -29s-36 -11 -58 -11h-18.5c-9 0 -14.833 0.333008 -17.5 1l14 75
c2 0 5.83301 -0.166992 11.5 -0.5s9.16699 -0.166016 10.5 0.500977c21.333 0.666992 37 7.83398 47 21.501s17.333 31.834 22 54.501l106 543h81z" />
    <glyph glyph-name="Jcircumflex" unicode="&#x134;" horiz-adv-x="401" 
d="M330 183c-7.33301 -35.333 -17.167 -65 -29.5 -89s-27.5 -43.333 -45.5 -58s-38.333 -25.167 -61 -31.5s-47.334 -9.5 -74.001 -9.5c-32 0 -60.167 6.16699 -84.5 18.5s-43.166 29.833 -56.499 52.5l64 48c8 -12.667 19.333 -23 34 -31s29.667 -12 45 -12
c30.667 0 57 8.33301 79 25s37.667 47 47 91l99 510h83zM409.999 817l-152 -82l-27 33l165 125h50l109 -123l-35 -33z" />
    <glyph glyph-name="jcircumflex" unicode="&#x135;" horiz-adv-x="268" 
d="M126 -71c-3.33301 -18 -8.66602 -35.1699 -15.999 -51.5029s-16.833 -30.5 -28.5 -42.5s-25.834 -21.667 -42.501 -29s-36.334 -11 -59.001 -11h-17.5c-9 0 -15.167 0.333008 -18.5 1l14 75c2.66699 0 6.66699 -0.166992 12 -0.5s9 -0.166016 11 0.500977
c21.333 0.666992 36.833 7.83398 46.5 21.501s16.834 31.834 21.501 54.501l107 548h81zM228 655.997l-151 -104l-32 33l169 146h50l105 -144l-42 -34z" />
    <glyph glyph-name="Kcommaaccent" unicode="&#x136;" horiz-adv-x="510" 
d="M374 0l-49 173l-49 173l-132 -150l-38 -196h-83l136 696h82l-67 -352h2l123 146l177 206h94l-231 -276l122 -420h-87zM197 -237h-47l48 88h-28l21 105h94l-20 -103z" />
    <glyph glyph-name="kcommaaccent" unicode="&#x137;" horiz-adv-x="435" 
d="M304 0l-84 243l-101 -112l-25 -131h-79l141 727h79l-92 -468h3l218 236h94l-177 -194l111 -301h-88zM146 -254h-47l48 88h-28l21 105h94l-20 -103z" />
    <glyph glyph-name="kgreenlandic" unicode="&#x138;" horiz-adv-x="432" 
d="M303 0l-83 242l-101 -111l-25 -131h-79l96 494h79l-47 -230h3l216 231h96l-178 -193l109 -302h-86z" />
    <glyph glyph-name="Lacute" unicode="&#x139;" horiz-adv-x="436" 
d="M177 767l168 117l43 -59l-185 -97zM24 0l135 696h83l-121 -619h274l-14 -77h-357z" />
    <glyph glyph-name="lacute" unicode="&#x13a;" horiz-adv-x="224" 
d="M239 726l-58.001 -297l-58 -297c-1.33301 -4 -2 -7.66699 -2 -11v-10c0 -12 3.33301 -21.5 10 -28.5s17.334 -10.5 32.001 -10.5h16l-15 -75h-13c-33.333 0 -60.833 6.5 -82.5 19.5s-32.5 35.167 -32.5 66.5c0 12.667 1 25 3 37l120 606h80zM167.999 781l84 59l84 59
l42 -59l-92 -49l-93 -49z" />
    <glyph glyph-name="Lcommaaccent" unicode="&#x13b;" horiz-adv-x="436" 
d="M24 0l135 696h83l-121 -619h274l-14 -77h-357zM157 -254h-47l48 88h-28l21 105h94l-20 -103z" />
    <glyph glyph-name="lcommaaccent" unicode="&#x13c;" horiz-adv-x="224" 
d="M239 726l-58.001 -297l-58 -297c-1.33301 -4 -2 -7.66699 -2 -11v-10c0 -12 3.33301 -21.5 10 -28.5s17.334 -10.5 32.001 -10.5h16l-15 -75h-13c-33.333 0 -60.833 6.5 -82.5 19.5s-32.5 35.167 -32.5 66.5c0 12.667 1 25 3 37l120 606h80zM47.999 -254h-47l48 88h-28
l21 105h94l-20 -103z" />
    <glyph glyph-name="Lcaron" unicode="&#x13d;" horiz-adv-x="436" 
d="M24 0l135 696h83l-121 -619h274l-14 -77h-357zM328 503h-47l48 88h-28l21 105h94l-20 -103z" />
    <glyph glyph-name="lcaron" unicode="&#x13e;" horiz-adv-x="294" 
d="M239 726l-58.001 -297l-58 -297c-1.33301 -4 -2 -7.66699 -2 -11v-10c0 -12 3.33301 -21.5 10 -28.5s17.334 -10.5 32.001 -10.5h16l-15 -75h-13c-33.333 0 -60.833 6.5 -82.5 19.5s-32.5 35.167 -32.5 66.5c0 12.667 1 25 3 37l120 606h80zM289.999 534h-47l48 88h-28
l21 105h94l-20 -103z" />
    <glyph glyph-name="Ldot" unicode="&#x13f;" horiz-adv-x="436" 
d="M24 0l135 696h83l-121 -619h274l-14 -77h-357zM299 305l16 84h78l-16 -84h-78z" />
    <glyph glyph-name="ldot" unicode="&#x140;" horiz-adv-x="300" 
d="M239 726l-58.001 -297l-58 -297c-1.33301 -4 -2 -7.66699 -2 -11v-10c0 -12 3.33301 -21.5 10 -28.5s17.334 -10.5 32.001 -10.5h16l-15 -75h-13c-33.333 0 -60.833 6.5 -82.5 19.5s-32.5 35.167 -32.5 66.5c0 12.667 1 25 3 37l120 606h80zM227.999 333l16 84h78
l-16 -84h-78z" />
    <glyph glyph-name="Lslash" unicode="&#x141;" horiz-adv-x="472" 
d="M61 0l45 235l-84 -48l-21 51l119 68l76 390h83l-66 -337l124 71l22 -51l-160 -91l-41 -211h274l-14 -77h-357z" />
    <glyph glyph-name="lslash" unicode="&#x142;" horiz-adv-x="246" 
d="M253 726l-64.001 -323l79 45l21 -51l-114 -66l-38 -199c-1.33301 -4 -2 -7.66699 -2 -11v-10c0 -12 3.33301 -21.5 10 -28.5s17.334 -10.5 32.001 -10.5h16l-15 -75h-13c-33.333 0 -60.833 6.5 -82.5 19.5s-32.5 35.167 -32.5 66.5c0 12.667 1 25 3 37l31 158l-68 -39
l-20 52l102 59l75 376h80z" />
    <glyph glyph-name="Nacute" unicode="&#x143;" horiz-adv-x="555" 
d="M345 767l168 117l42 -59l-185 -97zM375 0l-124 378l-44 139h-3l-99 -517h-83l136 696h80l121 -370l46 -142h3l99 512h82l-135 -696h-79z" />
    <glyph glyph-name="nacute" unicode="&#x144;" horiz-adv-x="440" 
d="M268 0l22.498 112.999l20.5 104.5l15 79c4 21 6 32.833 6 35.5c2 12 2.5 23.333 1.5 34s-4.16699 20.167 -9.5 28.5s-13.166 14.833 -23.499 19.5s-23.833 7 -40.5 7c-28.667 0 -52.5 -10 -71.5 -30s-31.5 -45 -37.5 -75l-62 -316h-79l96 495h80l-11 -55h3
c18.667 21.333 38.834 36.666 60.501 45.999s43.5 14 65.5 14c18.667 0 35.5 -3.16699 50.5 -9.5s27.667 -15.166 38 -26.499s17.833 -25.166 22.5 -41.499s5.66699 -34.833 3 -55.5c0 -3.33301 -2 -16.333 -6 -39s-9.33301 -51.167 -16 -85.5l-22.5 -115l-24.5 -127.5h-81z
M227.998 571.999l104 173l71 -25l-130 -167z" />
    <glyph glyph-name="Ncommaaccent" unicode="&#x145;" horiz-adv-x="555" 
d="M375 0l-124 378l-44 139h-3l-99 -517h-83l136 696h80l121 -370l46 -142h3l99 512h82l-135 -696h-79zM206 -234h-47l48 88h-28l21 105h94l-20 -103z" />
    <glyph glyph-name="ncommaaccent" unicode="&#x146;" horiz-adv-x="440" 
d="M268 0l22.498 112.999l20.5 104.5l15 79c4 21 6 32.833 6 35.5c2 12 2.5 23.333 1.5 34s-4.16699 20.167 -9.5 28.5s-13.166 14.833 -23.499 19.5s-23.833 7 -40.5 7c-28.667 0 -52.5 -10 -71.5 -30s-31.5 -45 -37.5 -75l-62 -316h-79l96 495h80l-11 -55h3
c18.667 21.333 38.834 36.666 60.501 45.999s43.5 14 65.5 14c18.667 0 35.5 -3.16699 50.5 -9.5s27.667 -15.166 38 -26.499s17.833 -25.166 22.5 -41.499s5.66699 -34.833 3 -55.5c0 -3.33301 -2 -16.333 -6 -39s-9.33301 -51.167 -16 -85.5l-22.5 -115l-24.5 -127.5h-81z
M130.998 -254.001h-47l48 88h-28l21 105h94l-20 -103z" />
    <glyph glyph-name="Ncaron" unicode="&#x147;" horiz-adv-x="555" 
d="M375 0l-124 378l-44 139h-3l-99 -517h-83l136 696h80l121 -370l46 -142h3l99 512h82l-135 -696h-79zM388 811l152 81l25 -34l-161 -124h-50l-113 124l38 32z" />
    <glyph glyph-name="ncaron" unicode="&#x148;" horiz-adv-x="440" 
d="M268 0l22.498 112.999l20.5 104.5l15 79c4 21 6 32.833 6 35.5c2 12 2.5 23.333 1.5 34s-4.16699 20.167 -9.5 28.5s-13.166 14.833 -23.499 19.5s-23.833 7 -40.5 7c-28.667 0 -52.5 -10 -71.5 -30s-31.5 -45 -37.5 -75l-62 -316h-79l96 495h80l-11 -55h3
c18.667 21.333 38.834 36.666 60.501 45.999s43.5 14 65.5 14c18.667 0 35.5 -3.16699 50.5 -9.5s27.667 -15.166 38 -26.499s17.833 -25.166 22.5 -41.499s5.66699 -34.833 3 -55.5c0 -3.33301 -2 -16.333 -6 -39s-9.33301 -51.167 -16 -85.5l-22.5 -115l-24.5 -127.5h-81z
M431.998 731.999l30 -35l-161 -144h-50l-111 146l42 33l104 -102z" />
    <glyph glyph-name="napostrophe" unicode="&#x149;" horiz-adv-x="509" 
d="M337 0l22.498 112.999l20.5 104.5l15 79c4 21 6 32.833 6 35.5c2 12 2.5 23.333 1.5 34s-4.16699 20.167 -9.5 28.5s-13.166 14.833 -23.499 19.5s-23.833 7 -40.5 7c-28.667 0 -52.5 -10 -71.5 -30s-31.5 -45 -37.5 -75l-62 -316h-79l96 495h80l-11 -55h3
c18.667 21.333 38.834 36.666 60.501 45.999s43.5 14 65.5 14c18.667 0 35.5 -3.16699 50.5 -9.5s27.667 -15.166 38 -26.499s17.833 -25.166 22.5 -41.499s5.66699 -34.833 3 -55.5c0 -3.33301 -2 -16.333 -6 -39s-9.33301 -51.167 -16 -85.5l-22.5 -115l-24.5 -127.5h-81z
M104.998 472.999h-47l48 88h-28l21 105h94l-20 -103z" />
    <glyph glyph-name="Eng" unicode="&#x14a;" horiz-adv-x="555" 
d="M441 -64c-7.33301 -36.667 -20.3311 -63.333 -38.998 -80s-41.334 -25 -68.001 -25c-11.333 0 -23.5 1.33301 -36.5 4s-25.833 6.66699 -38.5 12l24 58c8 -2 15.333 -3.66699 22 -5s12.667 -2 18 -2c10 0 18.167 3 24.5 9s11.166 16.333 14.499 31l13 68l-124 372
l-43 139h-3l-99 -517h-83l135 696h80l121 -370l46 -142h4l98 512h82z" />
    <glyph glyph-name="eng" unicode="&#x14b;" horiz-adv-x="435" 
d="M175 440l3.00098 0.00195312c18.667 21.333 38.834 36.666 60.501 45.999s43.5 14 65.5 14c24 0 44 -4.33301 60 -13s28.167 -20.334 36.5 -35.001s13.5 -31.5 15.5 -50.5s1.33301 -38.833 -2 -59.5l-79 -405c-7.33301 -37.333 -20.333 -64.333 -39 -81
s-41.334 -25 -68.001 -25c-11.333 0 -23.5 1.33301 -36.5 4s-25.833 7 -38.5 13l24 58l21.5 -5.5c6.33301 -1.66699 12.166 -2.5 17.499 -2.5c20.667 0 33.667 13.667 39 41c2 11.333 5.33301 28 10 50s9.5 46.167 14.5 72.5l16 82l16 79l12.5 62.5
c3.33301 17.333 5.33301 28.333 6 33c2 12.667 3 25.167 3 37.5s-2.33301 23.333 -7 33s-12.167 17.5 -22.5 23.5s-24.833 9 -43.5 9c-17.333 0 -32.333 -3.66699 -45 -11s-23.667 -17 -33 -29s-17 -26 -23 -42s-10.667 -33 -14 -51
c-1.33301 -5.33301 -3.5 -15.5 -6.5 -30.5l-10 -51.5l-12 -62l-12 -62l-10 -51.5c-3 -15 -4.83301 -25.167 -5.5 -30.5h-80l96 494h80z" />
    <glyph glyph-name="Omacron" unicode="&#x14c;" horiz-adv-x="497" 
d="M454 203c-12.667 -67.333 -37.668 -119 -75.001 -155s-86.333 -54 -147 -54c-38 0 -70 6.16699 -96 18.5s-46.333 28.833 -61 49.5s-24 44.5 -28 71.5s-3.33301 55.167 2 84.5l54 276c4.66699 23.333 11.834 47.333 21.501 72s23.334 47 41.001 67s39.667 36.333 66 49
s58.166 19 95.499 19c36 0 66.333 -6.33301 91 -19s44.167 -29 58.5 -49s23.833 -42.5 28.5 -67.5s4.66699 -50.167 0 -75.5zM424.999 490c2 10.667 2.49902 23.5 1.49902 38.5s-5.16699 29.5 -12.5 43.5s-18.833 25.833 -34.5 35.5s-37.167 14.5 -64.5 14.5
c-22.667 0 -41.667 -4.5 -57 -13.5s-28.166 -20 -38.499 -33s-18.166 -27.167 -23.499 -42.5s-9.33301 -29.333 -12 -42l-52 -275c-4 -18.667 -5.33301 -36.667 -4 -54s5.66602 -32.833 12.999 -46.5s18.5 -24.5 33.5 -32.5s34.5 -12 58.5 -12c35.333 0 64.833 11 88.5 33
s39.167 52.333 46.5 91zM232.998 760l14 71h253l-14 -71h-253z" />
    <glyph glyph-name="omacron" unicode="&#x14d;" horiz-adv-x="429" 
d="M258 500c26 0 48.5 -4 67.5 -12s34.667 -18.833 47 -32.5s21.5 -29.667 27.5 -48s9 -37.833 9 -58.5c0 -20 -1.83301 -41.667 -5.5 -65s-7.5 -45 -11.5 -65c-7.33301 -36 -16.333 -67.833 -27 -95.5s-24 -51.167 -40 -70.5s-35.5 -34 -58.5 -44s-50.5 -15 -82.5 -15
c-27.333 0 -50.333 4 -69 12s-33.834 18.833 -45.501 32.5s-20.167 29.167 -25.5 46.5s-8 35.333 -8 54c0 26 1.66699 51 5 75s7.33301 46.667 12 68c6.66699 31.333 15.334 60.333 26.001 87s23 48.667 37 66c36 43.333 83.333 65 142 65zM252 428
c-28 0 -51.001 -10.0029 -69.001 -30.0029c-10.667 -11.333 -20.334 -26.666 -29.001 -45.999s-16.334 -41.333 -23.001 -66c-5.33301 -19.333 -9.5 -40.166 -12.5 -62.499s-5.16699 -42.166 -6.5 -59.499c-0.666992 -12 -0.166992 -23.833 1.5 -35.5
s5.33398 -22 11.001 -31s13.834 -16.333 24.501 -22s24.667 -8.5 42 -8.5c28 0 49 7.16699 63 21.5s25.667 33.166 35 56.499c6 14.667 11.5 30.834 16.5 48.501s9.33301 35.5 13 53.5s6.5 35.333 8.5 52s3 31.667 3 45c0 28 -7.16699 49 -21.5 63s-33.166 21 -56.499 21z
M154.999 593.997l14 71h254l-15 -71h-253z" />
    <glyph glyph-name="Obreve" unicode="&#x14e;" horiz-adv-x="497" 
d="M454 203c-12.667 -67.333 -37.668 -119 -75.001 -155s-86.333 -54 -147 -54c-38 0 -70 6.16699 -96 18.5s-46.333 28.833 -61 49.5s-24 44.5 -28 71.5s-3.33301 55.167 2 84.5l54 276c4.66699 23.333 11.834 47.333 21.501 72s23.334 47 41.001 67s39.667 36.333 66 49
s58.166 19 95.499 19c36 0 66.333 -6.33301 91 -19s44.167 -29 58.5 -49s23.833 -42.5 28.5 -67.5s4.66699 -50.167 0 -75.5zM424.999 490c2 10.667 2.49902 23.5 1.49902 38.5s-5.16699 29.5 -12.5 43.5s-18.833 25.833 -34.5 35.5s-37.167 14.5 -64.5 14.5
c-22.667 0 -41.667 -4.5 -57 -13.5s-28.166 -20 -38.499 -33s-18.166 -27.167 -23.499 -42.5s-9.33301 -29.333 -12 -42l-52 -275c-4 -18.667 -5.33301 -36.667 -4 -54s5.66602 -32.833 12.999 -46.5s18.5 -24.5 33.5 -32.5s34.5 -12 58.5 -12c35.333 0 64.833 11 88.5 33
s39.167 52.333 46.5 91zM304.998 866c-2.66699 -15.333 0.166992 -29.666 8.5 -42.999s23.5 -20 45.5 -20c13.333 0 24.833 2 34.5 6s18 9.16699 25 15.5s12.333 13.166 16 20.499s6.16699 14.333 7.5 21h69c-2.66699 -14.667 -7.66699 -29.5 -15 -44.5
s-17.5 -28.5 -30.5 -40.5s-29 -21.667 -48 -29s-41.167 -11 -66.5 -11s-46 4.16699 -62 12.5s-28.333 18.666 -37 30.999s-14 25.833 -16 40.5s-2 28.334 0 41.001h69z" />
    <glyph glyph-name="obreve" unicode="&#x14f;" horiz-adv-x="429" 
d="M258 500c26 0 48.5 -4 67.5 -12s34.667 -18.833 47 -32.5s21.5 -29.667 27.5 -48s9 -37.833 9 -58.5c0 -20 -1.83301 -41.667 -5.5 -65s-7.5 -45 -11.5 -65c-7.33301 -36 -16.333 -67.833 -27 -95.5s-24 -51.167 -40 -70.5s-35.5 -34 -58.5 -44s-50.5 -15 -82.5 -15
c-27.333 0 -50.333 4 -69 12s-33.834 18.833 -45.501 32.5s-20.167 29.167 -25.5 46.5s-8 35.333 -8 54c0 26 1.66699 51 5 75s7.33301 46.667 12 68c6.66699 31.333 15.334 60.333 26.001 87s23 48.667 37 66c36 43.333 83.333 65 142 65zM252 428
c-28 0 -51.001 -10.0029 -69.001 -30.0029c-10.667 -11.333 -20.334 -26.666 -29.001 -45.999s-16.334 -41.333 -23.001 -66c-5.33301 -19.333 -9.5 -40.166 -12.5 -62.499s-5.16699 -42.166 -6.5 -59.499c-0.666992 -12 -0.166992 -23.833 1.5 -35.5
s5.33398 -22 11.001 -31s13.834 -16.333 24.501 -22s24.667 -8.5 42 -8.5c28 0 49 7.16699 63 21.5s25.667 33.166 35 56.499c6 14.667 11.5 30.834 16.5 48.501s9.33301 35.5 13 53.5s6.5 35.333 8.5 52s3 31.667 3 45c0 28 -7.16699 49 -21.5 63s-33.166 21 -56.499 21z
M234.999 698.997c-0.666992 -6.66699 -0.167969 -13.835 1.49902 -21.502s4.83398 -14.834 9.50098 -21.501s10.834 -12.167 18.501 -16.5s17.167 -6.5 28.5 -6.5s21.666 2 30.999 6s17.5 9.16699 24.5 15.5s12.833 13.5 17.5 21.5s7.66699 15.667 9 23h73
c-4 -15.333 -10 -30.666 -18 -45.999s-18.5 -29.166 -31.5 -41.499s-28.5 -22.333 -46.5 -30s-39 -11.5 -63 -11.5c-24.667 0 -45.167 3.5 -61.5 10.5s-29.333 16.5 -39 28.5s-16 25.833 -19 41.5s-3.5 31.834 -1.5 48.501h67z" />
    <glyph glyph-name="Ohungarumlaut" unicode="&#x150;" horiz-adv-x="497" 
d="M454 203c-12.667 -67.333 -37.668 -119 -75.001 -155s-86.333 -54 -147 -54c-38 0 -70 6.16699 -96 18.5s-46.333 28.833 -61 49.5s-24 44.5 -28 71.5s-3.33301 55.167 2 84.5l54 276c4.66699 23.333 11.834 47.333 21.501 72s23.334 47 41.001 67s39.667 36.333 66 49
s58.166 19 95.499 19c36 0 66.333 -6.33301 91 -19s44.167 -29 58.5 -49s23.833 -42.5 28.5 -67.5s4.66699 -50.167 0 -75.5zM424.999 490c2 10.667 2.49902 23.5 1.49902 38.5s-5.16699 29.5 -12.5 43.5s-18.833 25.833 -34.5 35.5s-37.167 14.5 -64.5 14.5
c-22.667 0 -41.667 -4.5 -57 -13.5s-28.166 -20 -38.499 -33s-18.166 -27.167 -23.499 -42.5s-9.33301 -29.333 -12 -42l-52 -275c-4 -18.667 -5.33301 -36.667 -4 -54s5.66602 -32.833 12.999 -46.5s18.5 -24.5 33.5 -32.5s34.5 -12 58.5 -12c35.333 0 64.833 11 88.5 33
s39.167 52.333 46.5 91zM227.998 767l151 117l48 -59l-170 -97zM383.998 767l163 117l43 -59l-180 -97z" />
    <glyph glyph-name="ohungarumlaut" unicode="&#x151;" horiz-adv-x="429" 
d="M258 500c26 0 48.5 -4 67.5 -12s34.667 -18.833 47 -32.5s21.5 -29.667 27.5 -48s9 -37.833 9 -58.5c0 -20 -1.83301 -41.667 -5.5 -65s-7.5 -45 -11.5 -65c-7.33301 -36 -16.333 -67.833 -27 -95.5s-24 -51.167 -40 -70.5s-35.5 -34 -58.5 -44s-50.5 -15 -82.5 -15
c-27.333 0 -50.333 4 -69 12s-33.834 18.833 -45.501 32.5s-20.167 29.167 -25.5 46.5s-8 35.333 -8 54c0 26 1.66699 51 5 75s7.33301 46.667 12 68c6.66699 31.333 15.334 60.333 26.001 87s23 48.667 37 66c36 43.333 83.333 65 142 65zM252 428
c-28 0 -51.001 -10.0029 -69.001 -30.0029c-10.667 -11.333 -20.334 -26.666 -29.001 -45.999s-16.334 -41.333 -23.001 -66c-5.33301 -19.333 -9.5 -40.166 -12.5 -62.499s-5.16699 -42.166 -6.5 -59.499c-0.666992 -12 -0.166992 -23.833 1.5 -35.5
s5.33398 -22 11.001 -31s13.834 -16.333 24.501 -22s24.667 -8.5 42 -8.5c28 0 49 7.16699 63 21.5s25.667 33.166 35 56.499c6 14.667 11.5 30.834 16.5 48.501s9.33301 35.5 13 53.5s6.5 35.333 8.5 52s3 31.667 3 45c0 28 -7.16699 49 -21.5 63s-33.166 21 -56.499 21z
M296.999 571.997l104 173l71 -25l-130 -167zM181.999 571.997l104 173l71 -25l-131 -167z" />
    <glyph glyph-name="OE" unicode="&#x152;" horiz-adv-x="697" 
d="M285 0c-19.333 -4 -40.3311 -5.99707 -62.998 -5.99707c-33.333 0 -62 5.33301 -86 16s-43 25 -57 43s-23.333 39.167 -28 63.5s-4.66699 50.166 0 77.499l52 297c5.33301 29.333 14.166 56.833 26.499 82.5s27.833 48.167 46.5 67.5s40.667 34.5 66 45.5
s54 16.5 86 16.5c25.333 0 49.666 -2.66699 72.999 -8c62 0 121.667 0.166992 179 0.5s117 0.5 179 0.5l-15 -77h-270l-22 -115l-22 -114h242l-15 -75h-242l-23 -119.5l-24 -119.5h282c-2 -12.667 -4.16699 -25.334 -6.5 -38.001s-4.83301 -25.334 -7.5 -38.001h-351z
M232.002 70.0029c10 0 19.667 0.833008 29 2.5s18 4.5 26 8.5l103 530c-16 10.667 -36.333 16 -61 16s-45.5 -4.16699 -62.5 -12.5s-31.333 -20 -43 -35s-21 -32.667 -28 -53s-12.833 -42.5 -17.5 -66.5l-41 -225c-4 -22.667 -6.33301 -44 -7 -64s2 -37.5 8 -52.5
s16.333 -26.833 31 -35.5s35.667 -13 63 -13z" />
    <glyph glyph-name="oe" unicode="&#x153;" horiz-adv-x="689" 
d="M538 501c46 0 82.001 -10.8311 108.001 -32.498s39 -51.5 39 -89.5c0 -26.667 -4.83301 -50.834 -14.5 -72.501s-24.5 -40.334 -44.5 -56.001s-45.333 -27.667 -76 -36s-67 -12.5 -109 -12.5c-7.33301 0 -15.5 0.166992 -24.5 0.5s-17.5 0.833008 -25.5 1.5
c-2 -16 -3 -31.833 -3 -47.5s2.33301 -30 7 -43s12.167 -23.5 22.5 -31.5s25.166 -12 44.499 -12c8.66699 0 18 1.5 28 4.5s19.833 7 29.5 12s18.667 11 27 18s15.166 14.5 20.499 22.5l66 -36c-19.333 -28.667 -43.666 -52 -72.999 -70s-64.666 -27 -105.999 -27
c-34 0 -60.667 6.33301 -80 19s-33.666 29.667 -42.999 51c-16.667 -22.667 -36.834 -40 -60.501 -52s-53.167 -18 -88.5 -18c-27.333 0 -50.333 4 -69 12s-33.834 18.833 -45.501 32.5s-20.167 29.167 -25.5 46.5s-8 35.333 -8 54c0 26 1.66699 51 5 75
s7.33301 46.667 12 68c6.66699 31.333 15.334 60.333 26.001 87s23 48.667 37 66c36 43.333 83.333 65 142 65c34 0 61.667 -6.33301 83 -19s37.666 -29.667 48.999 -51c17.333 21.333 38.333 38.5 63 51.5s53.667 19.5 87 19.5zM250.001 428.002
c-28 0 -51.001 -10.0029 -69.001 -30.0029c-10.667 -11.333 -20.334 -26.666 -29.001 -45.999s-16.334 -41.333 -23.001 -66c-5.33301 -19.333 -9.5 -40.166 -12.5 -62.499s-5.16699 -42.166 -6.5 -59.499c-0.666992 -12 -0.166992 -23.833 1.5 -35.5
s5.33398 -22 11.001 -31s13.834 -16.333 24.501 -22s24.667 -8.5 42 -8.5c28 0 49 7.16699 63 21.5s25.667 33.166 35 56.499c6 14.667 11.5 30.834 16.5 48.501s9.33301 35.5 13 53.5s6.5 35.333 8.5 52s3 31.667 3 45c0 28 -7.16699 49 -21.5 63s-33.166 21 -56.499 21z
M531 426.999c-34.667 0 -62.1699 -13.667 -82.5029 -41s-35.166 -64.666 -44.499 -111.999c7.33301 -0.666992 15 -1.16699 23 -1.5s15.667 -0.5 23 -0.5c56.667 0 96.834 9.16699 120.501 27.5s35.5 41.166 35.5 68.499c0 17.333 -6.66699 31.5 -20 42.5
s-31.666 16.5 -54.999 16.5z" />
    <glyph glyph-name="Racute" unicode="&#x154;" horiz-adv-x="500" 
d="M284 767l168 117l43 -59l-185 -97zM346 0l-65.001 305.999h-115l-59 -306h-83l135 696h207c52 0 91.5 -14.667 118.5 -44s38.833 -70.333 35.5 -123c-3.33301 -56.667 -18.166 -102.167 -44.499 -136.5s-63.5 -59.166 -111.5 -74.499l72 -318h-90zM436.999 522.999
c2.66699 32.667 -4.83203 57.168 -22.499 73.501s-43.834 24.5 -78.501 24.5h-109l-47 -242h120c38.667 0 70.667 13.167 96 39.5s39 61.166 41 104.499z" />
    <glyph glyph-name="racute" unicode="&#x155;" horiz-adv-x="310" 
d="M327 403c-6.66699 4 -14.498 6.83496 -23.498 8.50195s-16.833 2.5 -23.5 2.5c-30.667 0 -57 -9.66699 -79 -29s-36.667 -48 -44 -86l-59 -299h-80l96 495h81l-14 -67h3c17.333 28 37.666 47.333 60.999 58s48.333 15.667 75 15c8 -0.666992 15.667 -1.83398 23 -3.50098
s12.666 -3.83398 15.999 -6.50098zM184.002 572.002l104 173l71 -25l-130 -167z" />
    <glyph glyph-name="Rcommaaccent" unicode="&#x156;" horiz-adv-x="500" 
d="M346 0l-65.001 305.999h-115l-59 -306h-83l135 696h207c52 0 91.5 -14.667 118.5 -44s38.833 -70.333 35.5 -123c-3.33301 -56.667 -18.166 -102.167 -44.499 -136.5s-63.5 -59.166 -111.5 -74.499l72 -318h-90zM436.999 522.999
c2.66699 32.667 -4.83203 57.168 -22.499 73.501s-43.834 24.5 -78.501 24.5h-109l-47 -242h120c38.667 0 70.667 13.167 96 39.5s39 61.166 41 104.499zM187 -234h-47l48 88h-28l21 105h94l-20 -103z" />
    <glyph glyph-name="rcommaaccent" unicode="&#x157;" horiz-adv-x="310" 
d="M327 403c-6.66699 4 -14.498 6.83496 -23.498 8.50195s-16.833 2.5 -23.5 2.5c-30.667 0 -57 -9.66699 -79 -29s-36.667 -48 -44 -86l-59 -299h-80l96 495h81l-14 -67h3c17.333 28 37.666 47.333 60.999 58s48.333 15.667 75 15c8 -0.666992 15.667 -1.83398 23 -3.50098
s12.666 -3.83398 15.999 -6.50098zM9.00195 -253.998h-47l48 88h-28l21 105h94l-20 -103z" />
    <glyph glyph-name="Rcaron" unicode="&#x158;" horiz-adv-x="500" 
d="M346 0l-65.001 305.999h-115l-59 -306h-83l135 696h207c52 0 91.5 -14.667 118.5 -44s38.833 -70.333 35.5 -123c-3.33301 -56.667 -18.166 -102.167 -44.499 -136.5s-63.5 -59.166 -111.5 -74.499l72 -318h-90zM436.999 522.999
c2.66699 32.667 -4.83203 57.168 -22.499 73.501s-43.834 24.5 -78.501 24.5h-109l-47 -242h120c38.667 0 70.667 13.167 96 39.5s39 61.166 41 104.499zM325 811l152 81l25 -34l-161 -124h-50l-113 124l38 32z" />
    <glyph glyph-name="rcaron" unicode="&#x159;" horiz-adv-x="310" 
d="M327 403c-6.66699 4 -14.498 6.83496 -23.498 8.50195s-16.833 2.5 -23.5 2.5c-30.667 0 -57 -9.66699 -79 -29s-36.667 -48 -44 -86l-59 -299h-80l96 495h81l-14 -67h3c17.333 28 37.666 47.333 60.999 58s48.333 15.667 75 15c8 -0.666992 15.667 -1.83398 23 -3.50098
s12.666 -3.83398 15.999 -6.50098zM373.002 732.002l30 -35l-161 -144h-50l-111 146l42 33l104 -102z" />
    <glyph glyph-name="Sacute" unicode="&#x15a;" horiz-adv-x="472" 
d="M321 702c23.333 0 44.4941 -2.99023 63.4941 -8.99023s35.667 -14.167 50 -24.5s26.333 -22 36 -35s16.834 -26.5 21.501 -40.5l-75 -45c-8.66699 23.333 -22.667 41.333 -42 54s-41.333 19 -66 19c-20 0 -37.667 -3.5 -53 -10.5s-28.166 -16.333 -38.499 -28
s-18.166 -25.334 -23.499 -41.001s-8 -32.167 -8 -49.5c0 -16.667 3.33301 -30.334 10 -41.001s15.834 -19.834 27.501 -27.501s25.667 -14.334 42 -20.001l53.5 -18.5c48 -16.667 81.5 -37.834 100.5 -63.501s28.5 -58.167 28.5 -97.5
c0 -32.667 -5.16699 -63.167 -15.5 -91.5s-25.666 -52.833 -45.999 -73.5s-45.333 -36.834 -75 -48.501s-63.5 -17.5 -101.5 -17.5c-54 0 -97 11.667 -129 35s-53.333 54 -64 92l78 39c9.33301 -23.333 23.5 -43.333 42.5 -60s46.5 -25 82.5 -25
c24 0 44.5 4.16699 61.5 12.5s31 19.166 42 32.499s19.167 28.166 24.5 44.499s8 32.833 8 49.5c0 15.333 -2.16699 28.333 -6.5 39s-10.666 19.667 -18.999 27s-18.666 13.833 -30.999 19.5s-26.5 11.167 -42.5 16.5c-29.333 9.33301 -54 19.166 -74 29.499
s-36.333 22 -49 35s-21.834 27.5 -27.501 43.5s-8.5 34.667 -8.5 56c0 34 5.16699 64.833 15.5 92.5s25.333 51.167 45 70.5s43.167 34.166 70.5 44.499s58 15.5 92 15.5zM268.994 766.01l84 59l84 59l42 -59l-92 -49l-93 -49z" />
    <glyph glyph-name="sacute" unicode="&#x15b;" horiz-adv-x="401" 
d="M248 501c38.667 0 70.834 -8.49902 96.501 -25.499s43.167 -40.5 52.5 -70.5l-70 -37c-6 18.667 -15.833 32.834 -29.5 42.501s-33.167 14.5 -58.5 14.5c-27.333 0 -49.5 -7.5 -66.5 -22.5s-25.5 -33.833 -25.5 -56.5c0 -16 8 -27.833 24 -35.5s38 -15.167 66 -22.5
c18 -4.66699 34.333 -10 49 -16s27.334 -13.667 38.001 -23s19 -20.666 25 -33.999s9 -29 9 -47c0 -28 -4.83301 -52.833 -14.5 -74.5s-23 -39.834 -40 -54.501s-37.167 -25.834 -60.5 -33.501s-49 -11.5 -77 -11.5c-40 0 -74.333 8.83301 -103 26.5
s-47.334 43.5 -56.001 77.5l67 36c8 -20 19.833 -35.833 35.5 -47.5s36.834 -17.5 63.501 -17.5c12.667 0 25.334 1.83301 38.001 5.5s23.667 9.16699 33 16.5s17 16.5 23 27.5s9 23.5 9 37.5c0 11.333 -2.83301 20.333 -8.5 27s-13.334 12.334 -23.001 17.001
s-20.834 8.5 -33.501 11.5s-26.334 6.5 -41.001 10.5c-34 11.333 -59.667 25.166 -77 41.499s-26 40.166 -26 71.499c0 25.333 4.66699 48.333 14 69s22 38.167 38 52.5s35 25.333 57 33s46 11.5 72 11.5zM223 572.001l104 173l71 -25l-130 -167z" />
    <glyph glyph-name="Scircumflex" unicode="&#x15c;" horiz-adv-x="472" 
d="M321 702c23.333 0 44.4941 -2.99023 63.4941 -8.99023s35.667 -14.167 50 -24.5s26.333 -22 36 -35s16.834 -26.5 21.501 -40.5l-75 -45c-8.66699 23.333 -22.667 41.333 -42 54s-41.333 19 -66 19c-20 0 -37.667 -3.5 -53 -10.5s-28.166 -16.333 -38.499 -28
s-18.166 -25.334 -23.499 -41.001s-8 -32.167 -8 -49.5c0 -16.667 3.33301 -30.334 10 -41.001s15.834 -19.834 27.501 -27.501s25.667 -14.334 42 -20.001l53.5 -18.5c48 -16.667 81.5 -37.834 100.5 -63.501s28.5 -58.167 28.5 -97.5
c0 -32.667 -5.16699 -63.167 -15.5 -91.5s-25.666 -52.833 -45.999 -73.5s-45.333 -36.834 -75 -48.501s-63.5 -17.5 -101.5 -17.5c-54 0 -97 11.667 -129 35s-53.333 54 -64 92l78 39c9.33301 -23.333 23.5 -43.333 42.5 -60s46.5 -25 82.5 -25
c24 0 44.5 4.16699 61.5 12.5s31 19.166 42 32.499s19.167 28.166 24.5 44.499s8 32.833 8 49.5c0 15.333 -2.16699 28.333 -6.5 39s-10.666 19.667 -18.999 27s-18.666 13.833 -30.999 19.5s-26.5 11.167 -42.5 16.5c-29.333 9.33301 -54 19.166 -74 29.499
s-36.333 22 -49 35s-21.834 27.5 -27.501 43.5s-8.5 34.667 -8.5 56c0 34 5.16699 64.833 15.5 92.5s25.333 51.167 45 70.5s43.167 34.166 70.5 44.499s58 15.5 92 15.5zM346.994 815.01l-152 -82l-27 33l165 125h50l109 -123l-35 -33z" />
    <glyph glyph-name="scircumflex" unicode="&#x15d;" horiz-adv-x="401" 
d="M248 501c38.667 0 70.834 -8.49902 96.501 -25.499s43.167 -40.5 52.5 -70.5l-70 -37c-6 18.667 -15.833 32.834 -29.5 42.501s-33.167 14.5 -58.5 14.5c-27.333 0 -49.5 -7.5 -66.5 -22.5s-25.5 -33.833 -25.5 -56.5c0 -16 8 -27.833 24 -35.5s38 -15.167 66 -22.5
c18 -4.66699 34.333 -10 49 -16s27.334 -13.667 38.001 -23s19 -20.666 25 -33.999s9 -29 9 -47c0 -28 -4.83301 -52.833 -14.5 -74.5s-23 -39.834 -40 -54.501s-37.167 -25.834 -60.5 -33.501s-49 -11.5 -77 -11.5c-40 0 -74.333 8.83301 -103 26.5
s-47.334 43.5 -56.001 77.5l67 36c8 -20 19.833 -35.833 35.5 -47.5s36.834 -17.5 63.501 -17.5c12.667 0 25.334 1.83301 38.001 5.5s23.667 9.16699 33 16.5s17 16.5 23 27.5s9 23.5 9 37.5c0 11.333 -2.83301 20.333 -8.5 27s-13.334 12.334 -23.001 17.001
s-20.834 8.5 -33.501 11.5s-26.334 6.5 -41.001 10.5c-34 11.333 -59.667 25.166 -77 41.499s-26 40.166 -26 71.499c0 25.333 4.66699 48.333 14 69s22 38.167 38 52.5s35 25.333 57 33s46 11.5 72 11.5zM279 656.001l-151 -104l-32 33l168 146h50l106 -144l-43 -34z" />
    <glyph glyph-name="Scedilla" unicode="&#x15e;" horiz-adv-x="472" 
d="M321 702c23.333 0 44.4922 -2.99512 63.4922 -8.99512s35.667 -14.167 50 -24.5s26.333 -22 36 -35s16.834 -26.5 21.501 -40.5l-75 -45c-8.66699 23.333 -22.667 41.333 -42 54s-41.333 19 -66 19c-20 0 -37.667 -3.5 -53 -10.5s-28.166 -16.333 -38.499 -28
s-18.166 -25.334 -23.499 -41.001s-8 -32.167 -8 -49.5c0 -16.667 3.33301 -30.334 10 -41.001s15.834 -19.834 27.501 -27.501s25.667 -14.334 42 -20.001l53.5 -18.5c48 -16.667 81.5 -37.834 100.5 -63.501s28.5 -58.167 28.5 -97.5c0 -32 -5.16699 -62 -15.5 -90
s-25.333 -52.333 -45 -73s-43.834 -37 -72.501 -49s-61.667 -18.333 -99 -19l-18 -40c14.667 -1.33301 27 -4.16602 37 -8.49902s17.833 -9.66602 23.5 -15.999s9.66699 -13.166 12 -20.499s3.5 -14.666 3.5 -21.999c0 -10 -2 -20.5 -6 -31.5s-10.5 -21 -19.5 -30
s-20.5 -16.5 -34.5 -22.5s-30.667 -9 -50 -9h-14.5c-6.33301 0 -13.666 0.5 -21.999 1.5s-16.833 2.5 -25.5 4.5s-16.667 5 -24 9l20 42c11.333 -6 22.833 -9.83301 34.5 -11.5s21.834 -2.5 30.501 -2.5c13.333 0 25.333 3.5 36 10.5s16 17.167 16 30.5
c0 24.667 -15.333 37 -46 37h-10l-15 15l31 66c-43.333 5.33301 -78.166 19 -104.499 41s-44.166 50 -53.499 84l78 39c9.33301 -23.333 23.5 -43.333 42.5 -60s46.5 -25 82.5 -25c24 0 44.5 4.16699 61.5 12.5s31 19.166 42 32.499s19.167 28.166 24.5 44.499
s8 32.833 8 49.5c0 15.333 -2.16699 28.333 -6.5 39s-10.666 19.667 -18.999 27s-18.666 13.833 -30.999 19.5s-26.5 11.167 -42.5 16.5c-29.333 9.33301 -54 19.166 -74 29.499s-36.333 22 -49 35s-21.834 27.5 -27.501 43.5s-8.5 34.667 -8.5 56
c0 34 5.16699 64.833 15.5 92.5s25.333 51.167 45 70.5s43.167 34.166 70.5 44.499s58 15.5 92 15.5z" />
    <glyph glyph-name="scedilla" unicode="&#x15f;" horiz-adv-x="401" 
d="M248 501c38.667 0 70.8311 -8.50391 96.498 -25.5039s43.167 -40.5 52.5 -70.5l-70 -37c-6 18.667 -15.833 32.834 -29.5 42.501s-33.167 14.5 -58.5 14.5c-27.333 0 -49.5 -7.5 -66.5 -22.5s-25.5 -33.833 -25.5 -56.5c0 -16 8 -27.833 24 -35.5s38 -15.167 66 -22.5
c18 -4.66699 34.333 -10 49 -16s27.334 -13.667 38.001 -23s19 -20.666 25 -33.999s9 -29 9 -47c0 -54 -16.667 -95.667 -50 -125s-76 -45.333 -128 -48l-19 -42c14.667 -1.33301 27 -4.16602 37 -8.49902s17.833 -9.66602 23.5 -15.999s9.66699 -13.166 12 -20.499
s3.5 -14.666 3.5 -21.999c0 -10 -2 -20.5 -6 -31.5s-10.5 -21 -19.5 -30s-20.5 -16.5 -34.5 -22.5s-30.667 -9 -50 -9h-14.5c-6.33301 0 -13.666 0.5 -21.999 1.5s-16.833 2.5 -25.5 4.5s-16.667 5 -24 9l20 42c11.333 -6 22.833 -9.83301 34.5 -11.5
s21.834 -2.5 30.501 -2.5c13.333 0 25.333 3.5 36 10.5s16 17.167 16 30.5c0 24.667 -15.333 37 -46 37h-10l-15 15l32 67c-33.333 3.33301 -61.833 13.666 -85.5 30.999s-39.167 41 -46.5 71l67 36c8 -20 19.833 -35.833 35.5 -47.5s36.834 -17.5 63.501 -17.5
c12.667 0 25.334 1.83301 38.001 5.5s23.667 9.16699 33 16.5s17 16.5 23 27.5s9 23.5 9 37.5c0 11.333 -2.83301 20.333 -8.5 27s-13.334 12.334 -23.001 17.001s-20.834 8.5 -33.501 11.5s-26.334 6.5 -41.001 10.5c-34 11.333 -59.667 25.166 -77 41.499
s-26 40.166 -26 71.499c0 25.333 4.66699 48.333 14 69s22 38.167 38 52.5s35 25.333 57 33s46 11.5 72 11.5z" />
    <glyph glyph-name="Scaron" unicode="&#x160;" horiz-adv-x="472" 
d="M321 702c23.333 0 44.4941 -2.99023 63.4941 -8.99023s35.667 -14.167 50 -24.5s26.333 -22 36 -35s16.834 -26.5 21.501 -40.5l-75 -45c-8.66699 23.333 -22.667 41.333 -42 54s-41.333 19 -66 19c-20 0 -37.667 -3.5 -53 -10.5s-28.166 -16.333 -38.499 -28
s-18.166 -25.334 -23.499 -41.001s-8 -32.167 -8 -49.5c0 -16.667 3.33301 -30.334 10 -41.001s15.834 -19.834 27.501 -27.501s25.667 -14.334 42 -20.001l53.5 -18.5c48 -16.667 81.5 -37.834 100.5 -63.501s28.5 -58.167 28.5 -97.5
c0 -32.667 -5.16699 -63.167 -15.5 -91.5s-25.666 -52.833 -45.999 -73.5s-45.333 -36.834 -75 -48.501s-63.5 -17.5 -101.5 -17.5c-54 0 -97 11.667 -129 35s-53.333 54 -64 92l78 39c9.33301 -23.333 23.5 -43.333 42.5 -60s46.5 -25 82.5 -25
c24 0 44.5 4.16699 61.5 12.5s31 19.166 42 32.499s19.167 28.166 24.5 44.499s8 32.833 8 49.5c0 15.333 -2.16699 28.333 -6.5 39s-10.666 19.667 -18.999 27s-18.666 13.833 -30.999 19.5s-26.5 11.167 -42.5 16.5c-29.333 9.33301 -54 19.166 -74 29.499
s-36.333 22 -49 35s-21.834 27.5 -27.501 43.5s-8.5 34.667 -8.5 56c0 34 5.16699 64.833 15.5 92.5s25.333 51.167 45 70.5s43.167 34.166 70.5 44.499s58 15.5 92 15.5zM344.994 811.01l152 81l25 -34l-161 -124h-50l-113 124l38 32z" />
    <glyph glyph-name="scaron" unicode="&#x161;" horiz-adv-x="401" 
d="M248 501c38.667 0 70.834 -8.49902 96.501 -25.499s43.167 -40.5 52.5 -70.5l-70 -37c-6 18.667 -15.833 32.834 -29.5 42.501s-33.167 14.5 -58.5 14.5c-27.333 0 -49.5 -7.5 -66.5 -22.5s-25.5 -33.833 -25.5 -56.5c0 -16 8 -27.833 24 -35.5s38 -15.167 66 -22.5
c18 -4.66699 34.333 -10 49 -16s27.334 -13.667 38.001 -23s19 -20.666 25 -33.999s9 -29 9 -47c0 -28 -4.83301 -52.833 -14.5 -74.5s-23 -39.834 -40 -54.501s-37.167 -25.834 -60.5 -33.501s-49 -11.5 -77 -11.5c-40 0 -74.333 8.83301 -103 26.5
s-47.334 43.5 -56.001 77.5l67 36c8 -20 19.833 -35.833 35.5 -47.5s36.834 -17.5 63.501 -17.5c12.667 0 25.334 1.83301 38.001 5.5s23.667 9.16699 33 16.5s17 16.5 23 27.5s9 23.5 9 37.5c0 11.333 -2.83301 20.333 -8.5 27s-13.334 12.334 -23.001 17.001
s-20.834 8.5 -33.501 11.5s-26.334 6.5 -41.001 10.5c-34 11.333 -59.667 25.166 -77 41.499s-26 40.166 -26 71.499c0 25.333 4.66699 48.333 14 69s22 38.167 38 52.5s35 25.333 57 33s46 11.5 72 11.5zM420 732.001l30 -35l-161 -144h-50l-111 146l42 33l104 -102z" />
    <glyph glyph-name="Tcommaaccent" unicode="&#x162;" horiz-adv-x="398" 
d="M321 621l-121 -621h-82l120 621h-157l15 75h396l-15 -75h-156zM109 -254h-47l48 88h-28l21 105h94l-20 -103z" />
    <glyph glyph-name="tcommaaccent" unicode="&#x163;" horiz-adv-x="250" 
d="M205 494l69.999 0.000976562c-2.66699 -11.333 -5 -22.333 -7 -33l-6 -33h-70l-57 -293c-2 -8.66699 -3.16699 -16.667 -3.5 -24s0.833984 -13.833 3.50098 -19.5s7 -10 13 -13s14.667 -4.5 26 -4.5h26l-15 -75h-38c-21.333 0 -38.833 3.16699 -52.5 9.5
s-24.167 14.666 -31.5 24.999s-12 22.333 -14 36s-1.33301 28.167 2 43.5l61 315h-55l6 33c2 10.667 4.33301 21.667 7 33h55l25 128h80zM44.999 -253.999h-47l48 88h-28l21 105h94l-20 -103z" />
    <glyph glyph-name="Tcaron" unicode="&#x164;" horiz-adv-x="398" 
d="M321 621l-121 -621h-82l120 621h-157l15 75h396l-15 -75h-156zM309 811l152 81l25 -34l-161 -124h-50l-113 124l38 32z" />
    <glyph glyph-name="tcaron" unicode="&#x165;" horiz-adv-x="296" 
d="M205 494l69.999 0.000976562c-2.66699 -11.333 -5 -22.333 -7 -33l-6 -33h-70l-57 -293c-2 -8.66699 -3.16699 -16.667 -3.5 -24s0.833984 -13.833 3.50098 -19.5s7 -10 13 -13s14.667 -4.5 26 -4.5h26l-15 -75h-38c-21.333 0 -38.833 3.16699 -52.5 9.5
s-24.167 14.666 -31.5 24.999s-12 22.333 -14 36s-1.33301 28.167 2 43.5l61 315h-55l6 33c2 10.667 4.33301 21.667 7 33h55l25 128h80zM318.999 544.001h-47l48 88h-28l21 105h94l-20 -103z" />
    <glyph glyph-name="Tbar" unicode="&#x166;" horiz-adv-x="398" 
d="M321 621l-42 -213h123l-12 -62h-123l-67 -346h-82l67 346h-122l12 62h122l41 213h-157l15 75h396l-15 -75h-156z" />
    <glyph glyph-name="tbar" unicode="&#x167;" horiz-adv-x="250" 
d="M205 494l69.999 0.000976562c-2.66699 -11.333 -5 -22.333 -7 -33l-6 -33h-70l-23 -117h67l-12 -61h-67l-22 -115c-2 -8.66699 -3.16699 -16.667 -3.5 -24s0.833984 -13.833 3.50098 -19.5s7 -10 13 -13s14.667 -4.5 26 -4.5h26l-15 -75h-38
c-21.333 0 -38.833 3.16699 -52.5 9.5s-24.167 14.666 -31.5 24.999s-12 22.333 -14 36s-1.33301 28.167 2 43.5l26 137h-60l12 61h60l23 117h-55l6 33c2 10.667 4.33301 21.667 7 33h55l25 128h80z" />
    <glyph glyph-name="Utilde" unicode="&#x168;" horiz-adv-x="513" 
d="M552 696l-45.001 -229.997l-44 -229c-6 -34.667 -15 -66.834 -27 -96.501s-27.5 -55.334 -46.5 -77.001s-42 -38.667 -69 -51s-58.833 -18.5 -95.5 -18.5c-39.333 0 -70.833 6.16699 -94.5 18.5s-41.5 28.833 -53.5 49.5s-19.167 44.167 -21.5 70.5
s-1.16602 53.5 3.50098 81.5l22.5 118.5l25 130l24 126l20.5 107.5h82l-21 -107.5l-25 -130l-25.5 -132l-21.5 -113.5c-3.33301 -16 -5 -32.167 -5 -48.5s3 -31 9 -44s15.5 -23.5 28.5 -31.5s30.5 -12 52.5 -12c26 0 48 4.5 66 13.5s33 21.167 45 36.5
s21.5 33.166 28.5 53.499s12.5 41.5 16.5 63.5l88 452h83zM303.999 854.003c10.667 0 21.168 -2.16699 31.501 -6.5s20.5 -9 30.5 -14l29 -14c9.33301 -4.33301 18.333 -6.5 27 -6.5c9.33301 0 18.666 3 27.999 9s20 16.667 32 32l43 -28c-16 -30.667 -33.667 -52 -53 -64
s-37.666 -18 -54.999 -18c-11.333 0 -22.166 2 -32.499 6s-20.5 8.5 -30.5 13.5l-29 14c-9.33301 4.33301 -18.333 6.5 -27 6.5c-10 0 -19.167 -3.5 -27.5 -10.5s-18.833 -17.167 -31.5 -30.5l-45 30c15.333 26 32.666 46 51.999 60s38.666 21 57.999 21z" />
    <glyph glyph-name="utilde" unicode="&#x169;" horiz-adv-x="444" 
d="M270 0l11 53.001h-3c-18.667 -21.333 -38.834 -36.5 -60.501 -45.5s-43.167 -13.5 -64.5 -13.5c-41.333 0 -72.166 12 -92.499 36s-27.833 56.333 -22.5 97c0 3.33301 2 16.333 6 39s9.33301 51.167 16 85.5l22.5 115l24.5 128.5h80l-22 -113.5l-20 -105l-15 -79
c-4 -21 -6 -32.833 -6 -35.5c-2 -12 -2.66699 -23.333 -2 -34s3.16699 -20.167 7.5 -28.5s11.333 -15 21 -20s23.167 -7.5 40.5 -7.5c14 0 27.333 3.33301 40 10s24.167 15.5 34.5 26.5s19 23.667 26 38s12.167 29.166 15.5 44.499l60 304h79l-96 -495h-80zM236 689.001
c10.667 0 21.168 -2.16699 31.501 -6.5s20.5 -9 30.5 -14l29 -14c9.33301 -4.33301 18.333 -6.5 27 -6.5c9.33301 0 18.666 3 27.999 9s20 16.667 32 32l43 -28c-16 -30.667 -33.667 -52 -53 -64s-37.666 -18 -54.999 -18c-11.333 0 -22.166 2 -32.499 6
s-20.5 8.5 -30.5 13.5l-29 14c-9.33301 4.33301 -18.333 6.5 -27 6.5c-10 0 -19.167 -3.5 -27.5 -10.5s-18.833 -17.167 -31.5 -30.5l-45 30c15.333 26 32.666 46 51.999 60s38.666 21 57.999 21z" />
    <glyph glyph-name="Umacron" unicode="&#x16a;" horiz-adv-x="513" 
d="M552 696l-45.001 -229.997l-44 -229c-6 -34.667 -15 -66.834 -27 -96.501s-27.5 -55.334 -46.5 -77.001s-42 -38.667 -69 -51s-58.833 -18.5 -95.5 -18.5c-39.333 0 -70.833 6.16699 -94.5 18.5s-41.5 28.833 -53.5 49.5s-19.167 44.167 -21.5 70.5
s-1.16602 53.5 3.50098 81.5l22.5 118.5l25 130l24 126l20.5 107.5h82l-21 -107.5l-25 -130l-25.5 -132l-21.5 -113.5c-3.33301 -16 -5 -32.167 -5 -48.5s3 -31 9 -44s15.5 -23.5 28.5 -31.5s30.5 -12 52.5 -12c26 0 48 4.5 66 13.5s33 21.167 45 36.5
s21.5 33.166 28.5 53.499s12.5 41.5 16.5 63.5l88 452h83zM225.999 760.003l14 71h253l-14 -71h-253z" />
    <glyph glyph-name="umacron" unicode="&#x16b;" horiz-adv-x="444" 
d="M270 0l11 53.001h-3c-18.667 -21.333 -38.834 -36.5 -60.501 -45.5s-43.167 -13.5 -64.5 -13.5c-41.333 0 -72.166 12 -92.499 36s-27.833 56.333 -22.5 97c0 3.33301 2 16.333 6 39s9.33301 51.167 16 85.5l22.5 115l24.5 128.5h80l-22 -113.5l-20 -105l-15 -79
c-4 -21 -6 -32.833 -6 -35.5c-2 -12 -2.66699 -23.333 -2 -34s3.16699 -20.167 7.5 -28.5s11.333 -15 21 -20s23.167 -7.5 40.5 -7.5c14 0 27.333 3.33301 40 10s24.167 15.5 34.5 26.5s19 23.667 26 38s12.167 29.166 15.5 44.499l60 304h79l-96 -495h-80zM159 594.001
l14 71h254l-15 -71h-253z" />
    <glyph glyph-name="Ubreve" unicode="&#x16c;" horiz-adv-x="513" 
d="M552 696l-45.001 -229.997l-44 -229c-6 -34.667 -15 -66.834 -27 -96.501s-27.5 -55.334 -46.5 -77.001s-42 -38.667 -69 -51s-58.833 -18.5 -95.5 -18.5c-39.333 0 -70.833 6.16699 -94.5 18.5s-41.5 28.833 -53.5 49.5s-19.167 44.167 -21.5 70.5
s-1.16602 53.5 3.50098 81.5l22.5 118.5l25 130l24 126l20.5 107.5h82l-21 -107.5l-25 -130l-25.5 -132l-21.5 -113.5c-3.33301 -16 -5 -32.167 -5 -48.5s3 -31 9 -44s15.5 -23.5 28.5 -31.5s30.5 -12 52.5 -12c26 0 48 4.5 66 13.5s33 21.167 45 36.5
s21.5 33.166 28.5 53.499s12.5 41.5 16.5 63.5l88 452h83zM309.999 859.003c0 -1.33301 -0.168945 -2.83496 -0.501953 -4.50195s-0.5 -3.16699 -0.5 -4.5c0 -13.333 4.33301 -26 13 -38s23.334 -18 44.001 -18c25.333 0 44.833 7 58.5 21s22.167 28.667 25.5 44h70
c-4 -15.333 -9.83301 -30.666 -17.5 -45.999s-18 -29 -31 -41s-28.667 -21.833 -47 -29.5s-39.833 -11.5 -64.5 -11.5c-22 0 -40.5 2.83301 -55.5 8.5s-27.167 13.334 -36.5 23.001s-16.166 21 -20.499 34s-6.5 26.5 -6.5 40.5v11c0 4 0.333008 7.66699 1 11h68z" />
    <glyph glyph-name="ubreve" unicode="&#x16d;" horiz-adv-x="444" 
d="M270 0l11 53.001h-3c-18.667 -21.333 -38.834 -36.5 -60.501 -45.5s-43.167 -13.5 -64.5 -13.5c-41.333 0 -72.166 12 -92.499 36s-27.833 56.333 -22.5 97c0 3.33301 2 16.333 6 39s9.33301 51.167 16 85.5l22.5 115l24.5 128.5h80l-22 -113.5l-20 -105l-15 -79
c-4 -21 -6 -32.833 -6 -35.5c-2 -12 -2.66699 -23.333 -2 -34s3.16699 -20.167 7.5 -28.5s11.333 -15 21 -20s23.167 -7.5 40.5 -7.5c14 0 27.333 3.33301 40 10s24.167 15.5 34.5 26.5s19 23.667 26 38s12.167 29.166 15.5 44.499l60 304h79l-96 -495h-80zM238 699.001
c-0.666992 -6.66699 -0.167969 -13.835 1.49902 -21.502s4.83398 -14.834 9.50098 -21.501s10.834 -12.167 18.501 -16.5s17.167 -6.5 28.5 -6.5s21.666 2 30.999 6s17.5 9.16699 24.5 15.5s12.833 13.5 17.5 21.5s7.66699 15.667 9 23h73
c-4 -15.333 -10 -30.666 -18 -45.999s-18.5 -29.166 -31.5 -41.499s-28.5 -22.333 -46.5 -30s-39 -11.5 -63 -11.5c-24.667 0 -45.167 3.5 -61.5 10.5s-29.333 16.5 -39 28.5s-16 25.833 -19 41.5s-3.5 31.834 -1.5 48.501h67z" />
    <glyph glyph-name="Uring" unicode="&#x16e;" horiz-adv-x="513" 
d="M552 696l-45.001 -229.997l-44 -229c-6 -34.667 -15 -66.834 -27 -96.501s-27.5 -55.334 -46.5 -77.001s-42 -38.667 -69 -51s-58.833 -18.5 -95.5 -18.5c-39.333 0 -70.833 6.16699 -94.5 18.5s-41.5 28.833 -53.5 49.5s-19.167 44.167 -21.5 70.5
s-1.16602 53.5 3.50098 81.5l22.5 118.5l25 130l24 126l20.5 107.5h82l-21 -107.5l-25 -130l-25.5 -132l-21.5 -113.5c-3.33301 -16 -5 -32.167 -5 -48.5s3 -31 9 -44s15.5 -23.5 28.5 -31.5s30.5 -12 52.5 -12c26 0 48 4.5 66 13.5s33 21.167 45 36.5
s21.5 33.166 28.5 53.499s12.5 41.5 16.5 63.5l88 452h83zM349.999 706.003c-23.333 0 -42.3311 7.33398 -56.998 22.001s-22 33 -22 55c0 14.667 3 28.667 9 42s14.167 25.166 24.5 35.499s22.333 18.5 36 24.5s28.5 9 44.5 9c23.333 0 42.333 -7.33301 57 -22
s22 -33 22 -55c0 -16 -3.33301 -30.833 -10 -44.5s-15.334 -25.5 -26.001 -35.5s-22.834 -17.667 -36.501 -23s-27.5 -8 -41.5 -8zM376.001 851.004c-16 0 -30.168 -6.16602 -42.501 -18.499s-18.5 -26.5 -18.5 -42.5c0 -12.667 3.83301 -22.834 11.5 -30.501
s17.834 -11.5 30.501 -11.5c16 0 30.333 6 43 18s19 26.667 19 44c0 11.333 -4 21 -12 29s-18.333 12 -31 12z" />
    <glyph glyph-name="uring" unicode="&#x16f;" horiz-adv-x="444" 
d="M270 0l11 53.001h-3c-18.667 -21.333 -38.834 -36.5 -60.501 -45.5s-43.167 -13.5 -64.5 -13.5c-41.333 0 -72.166 12 -92.499 36s-27.833 56.333 -22.5 97c0 3.33301 2 16.333 6 39s9.33301 51.167 16 85.5l22.5 115l24.5 128.5h80l-22 -113.5l-20 -105l-15 -79
c-4 -21 -6 -32.833 -6 -35.5c-2 -12 -2.66699 -23.333 -2 -34s3.16699 -20.167 7.5 -28.5s11.333 -15 21 -20s23.167 -7.5 40.5 -7.5c14 0 27.333 3.33301 40 10s24.167 15.5 34.5 26.5s19 23.667 26 38s12.167 29.166 15.5 44.499l60 304h79l-96 -495h-80zM289 544.001
c-23.333 0 -42.3311 7.33398 -56.998 22.001s-22 33 -22 55c0 14.667 3 28.667 9 42s14.167 25.166 24.5 35.499s22.333 18.5 36 24.5s28.5 9 44.5 9c23.333 0 42.333 -7.33301 57 -22s22 -33 22 -55c0 -16 -3.33301 -30.833 -10 -44.5s-15.334 -25.5 -26.001 -35.5
s-22.834 -17.667 -36.501 -23s-27.5 -8 -41.5 -8zM315.002 689.002c-16 0 -30.168 -6.16602 -42.501 -18.499s-18.5 -26.5 -18.5 -42.5c0 -12.667 3.83301 -22.834 11.5 -30.501s17.834 -11.5 30.501 -11.5c16 0 30.333 6 43 18s19 26.667 19 44c0 11.333 -4 21 -12 29
s-18.333 12 -31 12z" />
    <glyph glyph-name="Uhungarumlaut" unicode="&#x170;" horiz-adv-x="513" 
d="M552 696l-45.001 -229.997l-44 -229c-6 -34.667 -15 -66.834 -27 -96.501s-27.5 -55.334 -46.5 -77.001s-42 -38.667 -69 -51s-58.833 -18.5 -95.5 -18.5c-39.333 0 -70.833 6.16699 -94.5 18.5s-41.5 28.833 -53.5 49.5s-19.167 44.167 -21.5 70.5
s-1.16602 53.5 3.50098 81.5l22.5 118.5l25 130l24 126l20.5 107.5h82l-21 -107.5l-25 -130l-25.5 -132l-21.5 -113.5c-3.33301 -16 -5 -32.167 -5 -48.5s3 -31 9 -44s15.5 -23.5 28.5 -31.5s30.5 -12 52.5 -12c26 0 48 4.5 66 13.5s33 21.167 45 36.5
s21.5 33.166 28.5 53.499s12.5 41.5 16.5 63.5l88 452h83zM397.999 767.003l163 117l43 -59l-180 -97zM241.999 767.003l151 117l48 -59l-170 -97z" />
    <glyph glyph-name="uhungarumlaut" unicode="&#x171;" horiz-adv-x="444" 
d="M270 0l11 53.001h-3c-18.667 -21.333 -38.834 -36.5 -60.501 -45.5s-43.167 -13.5 -64.5 -13.5c-41.333 0 -72.166 12 -92.499 36s-27.833 56.333 -22.5 97c0 3.33301 2 16.333 6 39s9.33301 51.167 16 85.5l22.5 115l24.5 128.5h80l-22 -113.5l-20 -105l-15 -79
c-4 -21 -6 -32.833 -6 -35.5c-2 -12 -2.66699 -23.333 -2 -34s3.16699 -20.167 7.5 -28.5s11.333 -15 21 -20s23.167 -7.5 40.5 -7.5c14 0 27.333 3.33301 40 10s24.167 15.5 34.5 26.5s19 23.667 26 38s12.167 29.166 15.5 44.499l60 304h79l-96 -495h-80zM319 572.001
l104 173l71 -25l-130 -167zM204 572.001l104 173l71 -25l-131 -167z" />
    <glyph glyph-name="Uogonek" unicode="&#x172;" horiz-adv-x="513" 
d="M220 -178c-23.333 0 -41.667 6.83301 -55 20.5s-20 30.5 -20 50.5c0 15.333 3.66699 31 11 47s20 34.667 38 56c-32 3.33301 -57.833 11.666 -77.5 24.999s-34.5 30 -44.5 50s-15.667 42.333 -17 67s0 50 4 76l22.5 118.5l25 130l24 126l20.5 107.5h82l-21 -107.5
l-25 -130l-25.5 -132l-21.5 -113.5c-3.33301 -16 -5 -32.167 -5 -48.5s3 -31 9 -44s15.5 -23.5 28.5 -31.5s30.5 -12 52.5 -12c26 0 48 4.5 66 13.5s33 21.167 45 36.5s21.5 33.166 28.5 53.499s12.5 41.5 16.5 63.5l88 452h83l-45 -230l-44 -229
c-6 -32.667 -14.5 -63.167 -25.5 -91.5s-25 -53.166 -42 -74.499s-37.5 -38.666 -61.5 -51.999s-52.333 -21.333 -85 -24c-26.667 -31.333 -40 -59.333 -40 -84c0 -21.333 12.333 -32 37 -32c14 0 32.667 6 56 18l9 -50c-13.333 -7.33301 -28 -13.333 -44 -18
s-31.667 -7 -47 -7z" />
    </font>
</defs>
</svg>
